<?xml version="1.0" encoding="UTF-8" ?>
<svg version="1.1" width="41" height="41" xmlns="http://www.w3.org/2000/svg" shape-rendering="crispEdges">
<rect x="10" y="12" width="1" height="1" fill="#1A1715" />
<rect x="11" y="12" width="1" height="1" fill="#1A1715" />
<rect x="12" y="12" width="1" height="1" fill="#1A1715" />
<rect x="14" y="12" width="1" height="1" fill="#1A1715" />
<rect x="15" y="12" width="1" height="1" fill="#1A1715" />
<rect x="16" y="12" width="1" height="1" fill="#1A1715" />
<rect x="24" y="12" width="1" height="1" fill="#1A1715" />
<rect x="25" y="12" width="1" height="1" fill="#1A1715" />
<rect x="28" y="12" width="1" height="1" fill="#1A1715" />
<rect x="9" y="13" width="1" height="1" fill="#1A1715" />
<rect x="10" y="13" width="1" height="1" fill="#CE95BA" opacity="0.262745" />
<rect x="11" y="13" width="1" height="1" fill="#CE95BA" opacity="0.262745" />
<rect x="12" y="13" width="1" height="1" fill="#1A1715" />
<rect x="13" y="13" width="1" height="1" fill="#1A1715" />
<rect x="14" y="13" width="1" height="1" fill="#CE95BA" opacity="0.262745" />
<rect x="15" y="13" width="1" height="1" fill="#CE95BA" opacity="0.262745" />
<rect x="16" y="13" width="1" height="1" fill="#CE95BA" opacity="0.262745" />
<rect x="17" y="13" width="1" height="1" fill="#1A1715" />
<rect x="23" y="13" width="1" height="1" fill="#1A1715" />
<rect x="24" y="13" width="1" height="1" fill="#1A1715" />
<rect x="25" y="13" width="1" height="1" fill="#CE95BA" opacity="0.262745" />
<rect x="26" y="13" width="1" height="1" fill="#1A1715" />
<rect x="27" y="13" width="1" height="1" fill="#1A1715" />
<rect x="28" y="13" width="1" height="1" fill="#CE95BA" opacity="0.262745" />
<rect x="29" y="13" width="1" height="1" fill="#1A1715" />
<rect x="8" y="14" width="1" height="1" fill="#1A1715" />
<rect x="9" y="14" width="1" height="1" fill="#1A1715" />
<rect x="10" y="14" width="1" height="1" fill="#CE95BA" opacity="0.262745" />
<rect x="11" y="14" width="1" height="1" fill="#CE95BA" opacity="0.262745" />
<rect x="12" y="14" width="1" height="1" fill="#CE95BA" opacity="0.262745" />
<rect x="13" y="14" width="1" height="1" fill="#CE95BA" opacity="0.262745" />
<rect x="14" y="14" width="1" height="1" fill="#CE95BA" opacity="0.262745" />
<rect x="15" y="14" width="1" height="1" fill="#CE95BA" opacity="0.262745" />
<rect x="16" y="14" width="1" height="1" fill="#CE95BA" opacity="0.262745" />
<rect x="17" y="14" width="1" height="1" fill="#1A1715" />
<rect x="20" y="14" width="1" height="1" fill="#1A1715" />
<rect x="21" y="14" width="1" height="1" fill="#1A1715" />
<rect x="23" y="14" width="1" height="1" fill="#1A1715" />
<rect x="24" y="14" width="1" height="1" fill="#CE95BA" opacity="0.262745" />
<rect x="25" y="14" width="1" height="1" fill="#CE95BA" opacity="0.262745" />
<rect x="26" y="14" width="1" height="1" fill="#CE95BA" opacity="0.262745" />
<rect x="27" y="14" width="1" height="1" fill="#CE95BA" opacity="0.262745" />
<rect x="28" y="14" width="1" height="1" fill="#CE95BA" opacity="0.262745" />
<rect x="29" y="14" width="1" height="1" fill="#CE95BA" opacity="0.262745" />
<rect x="30" y="14" width="1" height="1" fill="#1A1715" />
<rect x="6" y="15" width="1" height="1" fill="#1A1715" />
<rect x="7" y="15" width="1" height="1" fill="#1A1715" />
<rect x="8" y="15" width="1" height="1" fill="#1A1715" />
<rect x="9" y="15" width="1" height="1" fill="#1A1715" />
<rect x="10" y="15" width="1" height="1" fill="#CE95BA" opacity="0.262745" />
<rect x="11" y="15" width="1" height="1" fill="#CE95BA" opacity="0.262745" />
<rect x="12" y="15" width="1" height="1" fill="#CE95BA" opacity="0.262745" />
<rect x="13" y="15" width="1" height="1" fill="#CE95BA" opacity="0.262745" />
<rect x="14" y="15" width="1" height="1" fill="#CE95BA" opacity="0.262745" />
<rect x="15" y="15" width="1" height="1" fill="#CE95BA" opacity="0.262745" />
<rect x="16" y="15" width="1" height="1" fill="#CE95BA" opacity="0.262745" />
<rect x="17" y="15" width="1" height="1" fill="#CE95BA" opacity="0.262745" />
<rect x="18" y="15" width="1" height="1" fill="#1A1715" />
<rect x="19" y="15" width="1" height="1" fill="#1A1715" />
<rect x="22" y="15" width="1" height="1" fill="#1A1715" />
<rect x="23" y="15" width="1" height="1" fill="#1A1715" />
<rect x="24" y="15" width="1" height="1" fill="#CE95BA" opacity="0.262745" />
<rect x="25" y="15" width="1" height="1" fill="#CE95BA" opacity="0.262745" />
<rect x="26" y="15" width="1" height="1" fill="#CE95BA" opacity="0.262745" />
<rect x="27" y="15" width="1" height="1" fill="#CE95BA" opacity="0.262745" />
<rect x="28" y="15" width="1" height="1" fill="#CE95BA" opacity="0.262745" />
<rect x="29" y="15" width="1" height="1" fill="#CE95BA" opacity="0.262745" />
<rect x="30" y="15" width="1" height="1" fill="#1A1715" />
<rect x="4" y="16" width="1" height="1" fill="#1A1715" />
<rect x="5" y="16" width="1" height="1" fill="#1A1715" />
<rect x="6" y="16" width="1" height="1" fill="#1A1715" />
<rect x="9" y="16" width="1" height="1" fill="#1A1715" />
<rect x="10" y="16" width="1" height="1" fill="#CE95BA" opacity="0.262745" />
<rect x="11" y="16" width="1" height="1" fill="#CE95BA" opacity="0.262745" />
<rect x="12" y="16" width="1" height="1" fill="#CE95BA" opacity="0.262745" />
<rect x="13" y="16" width="1" height="1" fill="#CE95BA" opacity="0.262745" />
<rect x="14" y="16" width="1" height="1" fill="#CE95BA" opacity="0.262745" />
<rect x="15" y="16" width="1" height="1" fill="#CE95BA" opacity="0.262745" />
<rect x="16" y="16" width="1" height="1" fill="#CE95BA" opacity="0.262745" />
<rect x="17" y="16" width="1" height="1" fill="#CE95BA" opacity="0.262745" />
<rect x="18" y="16" width="1" height="1" fill="#1A1715" />
<rect x="22" y="16" width="1" height="1" fill="#1A1715" />
<rect x="23" y="16" width="1" height="1" fill="#1A1715" />
<rect x="24" y="16" width="1" height="1" fill="#CE95BA" opacity="0.262745" />
<rect x="25" y="16" width="1" height="1" fill="#CE95BA" opacity="0.262745" />
<rect x="26" y="16" width="1" height="1" fill="#CE95BA" opacity="0.262745" />
<rect x="27" y="16" width="1" height="1" fill="#CE95BA" opacity="0.262745" />
<rect x="28" y="16" width="1" height="1" fill="#CE95BA" opacity="0.262745" />
<rect x="29" y="16" width="1" height="1" fill="#CE95BA" opacity="0.262745" />
<rect x="30" y="16" width="1" height="1" fill="#1A1715" />
<rect x="3" y="17" width="1" height="1" fill="#1A1715" />
<rect x="4" y="17" width="1" height="1" fill="#1A1715" />
<rect x="10" y="17" width="1" height="1" fill="#1A1715" />
<rect x="11" y="17" width="1" height="1" fill="#CE95BA" opacity="0.262745" />
<rect x="12" y="17" width="1" height="1" fill="#CE95BA" opacity="0.262745" />
<rect x="13" y="17" width="1" height="1" fill="#CE95BA" opacity="0.262745" />
<rect x="14" y="17" width="1" height="1" fill="#CE95BA" opacity="0.262745" />
<rect x="15" y="17" width="1" height="1" fill="#CE95BA" opacity="0.262745" />
<rect x="16" y="17" width="1" height="1" fill="#CE95BA" opacity="0.262745" />
<rect x="17" y="17" width="1" height="1" fill="#1A1715" />
<rect x="24" y="17" width="1" height="1" fill="#1A1715" />
<rect x="25" y="17" width="1" height="1" fill="#CE95BA" opacity="0.262745" />
<rect x="26" y="17" width="1" height="1" fill="#CE95BA" opacity="0.262745" />
<rect x="27" y="17" width="1" height="1" fill="#CE95BA" opacity="0.262745" />
<rect x="28" y="17" width="1" height="1" fill="#CE95BA" opacity="0.262745" />
<rect x="29" y="17" width="1" height="1" fill="#1A1715" />
<rect x="2" y="18" width="1" height="1" fill="#1A1715" />
<rect x="3" y="18" width="1" height="1" fill="#1A1715" />
<rect x="11" y="18" width="1" height="1" fill="#1A1715" />
<rect x="12" y="18" width="1" height="1" fill="#CE95BA" opacity="0.262745" />
<rect x="13" y="18" width="1" height="1" fill="#CE95BA" opacity="0.262745" />
<rect x="14" y="18" width="1" height="1" fill="#CE95BA" opacity="0.262745" />
<rect x="15" y="18" width="1" height="1" fill="#CE95BA" opacity="0.262745" />
<rect x="16" y="18" width="1" height="1" fill="#1A1715" />
<rect x="24" y="18" width="1" height="1" fill="#1A1715" />
<rect x="25" y="18" width="1" height="1" fill="#CE95BA" opacity="0.262745" />
<rect x="26" y="18" width="1" height="1" fill="#CE95BA" opacity="0.262745" />
<rect x="27" y="18" width="1" height="1" fill="#CE95BA" opacity="0.262745" />
<rect x="28" y="18" width="1" height="1" fill="#1A1715" />
<rect x="12" y="19" width="1" height="1" fill="#1A1715" />
<rect x="13" y="19" width="1" height="1" fill="#CE95BA" opacity="0.262745" />
<rect x="14" y="19" width="1" height="1" fill="#CE95BA" opacity="0.262745" />
<rect x="15" y="19" width="1" height="1" fill="#1A1715" />
<rect x="25" y="19" width="1" height="1" fill="#1A1715" />
<rect x="26" y="19" width="1" height="1" fill="#CE95BA" opacity="0.262745" />
<rect x="27" y="19" width="1" height="1" fill="#1A1715" />
<rect x="13" y="20" width="1" height="1" fill="#1A1715" />
<rect x="14" y="20" width="1" height="1" fill="#1A1715" />
<rect x="26" y="20" width="1" height="1" fill="#1A1715" />
</svg>