<?xml version="1.0" encoding="UTF-8" ?>
<svg version="1.1" width="41" height="41" xmlns="http://www.w3.org/2000/svg" shape-rendering="crispEdges">
<rect x="2" y="0" width="1" height="1" fill="#2E425A" />
<rect x="3" y="0" width="1" height="1" fill="#2E425A" />
<rect x="4" y="0" width="1" height="1" fill="#2E425A" />
<rect x="5" y="0" width="1" height="1" fill="#2E425A" />
<rect x="6" y="0" width="1" height="1" fill="#2E425A" />
<rect x="7" y="0" width="1" height="1" fill="#2E425A" />
<rect x="8" y="0" width="1" height="1" fill="#2E425A" />
<rect x="9" y="0" width="1" height="1" fill="#2E425A" />
<rect x="10" y="0" width="1" height="1" fill="#2E425A" />
<rect x="11" y="0" width="1" height="1" fill="#2E425A" />
<rect x="12" y="0" width="1" height="1" fill="#2E425A" />
<rect x="13" y="0" width="1" height="1" fill="#2E425A" />
<rect x="16" y="0" width="1" height="1" fill="#17283B" />
<rect x="17" y="0" width="1" height="1" fill="#17283B" />
<rect x="18" y="0" width="1" height="1" fill="#17283B" />
<rect x="19" y="0" width="1" height="1" fill="#17283B" />
<rect x="20" y="0" width="1" height="1" fill="#2E425A" />
<rect x="21" y="0" width="1" height="1" fill="#2E425A" />
<rect x="22" y="0" width="1" height="1" fill="#2E425A" />
<rect x="23" y="0" width="1" height="1" fill="#2E425A" />
<rect x="24" y="0" width="1" height="1" fill="#2E425A" />
<rect x="25" y="0" width="1" height="1" fill="#2E425A" />
<rect x="26" y="0" width="1" height="1" fill="#2E425A" />
<rect x="27" y="0" width="1" height="1" fill="#2E425A" />
<rect x="28" y="0" width="1" height="1" fill="#2E425A" />
<rect x="29" y="0" width="1" height="1" fill="#17283B" />
<rect x="30" y="0" width="1" height="1" fill="#17283B" />
<rect x="31" y="0" width="1" height="1" fill="#17283B" />
<rect x="32" y="0" width="1" height="1" fill="#17283B" />
<rect x="1" y="1" width="1" height="1" fill="#2E425A" />
<rect x="2" y="1" width="1" height="1" fill="#2E425A" />
<rect x="3" y="1" width="1" height="1" fill="#2E425A" />
<rect x="4" y="1" width="1" height="1" fill="#2E425A" />
<rect x="5" y="1" width="1" height="1" fill="#2E425A" />
<rect x="6" y="1" width="1" height="1" fill="#17283B" />
<rect x="7" y="1" width="1" height="1" fill="#17283B" />
<rect x="8" y="1" width="1" height="1" fill="#17283B" />
<rect x="9" y="1" width="1" height="1" fill="#17283B" />
<rect x="10" y="1" width="1" height="1" fill="#2E425A" />
<rect x="11" y="1" width="1" height="1" fill="#2E425A" />
<rect x="14" y="1" width="1" height="1" fill="#17283B" />
<rect x="15" y="1" width="1" height="1" fill="#17283B" />
<rect x="16" y="1" width="1" height="1" fill="#17283B" />
<rect x="17" y="1" width="1" height="1" fill="#17283B" />
<rect x="18" y="1" width="1" height="1" fill="#2E425A" />
<rect x="19" y="1" width="1" height="1" fill="#2E425A" />
<rect x="20" y="1" width="1" height="1" fill="#2E425A" />
<rect x="21" y="1" width="1" height="1" fill="#2E425A" />
<rect x="22" y="1" width="1" height="1" fill="#2E425A" />
<rect x="23" y="1" width="1" height="1" fill="#2E425A" />
<rect x="24" y="1" width="1" height="1" fill="#2E425A" />
<rect x="25" y="1" width="1" height="1" fill="#2E425A" />
<rect x="1" y="2" width="1" height="1" fill="#2E425A" />
<rect x="4" y="2" width="1" height="1" fill="#17283B" />
<rect x="5" y="2" width="1" height="1" fill="#17283B" />
<rect x="6" y="2" width="1" height="1" fill="#2E425A" />
<rect x="7" y="2" width="1" height="1" fill="#2E425A" />
<rect x="8" y="2" width="1" height="1" fill="#2E425A" />
<rect x="9" y="2" width="1" height="1" fill="#2E425A" />
<rect x="10" y="2" width="1" height="1" fill="#2E425A" />
<rect x="13" y="2" width="1" height="1" fill="#17283B" />
<rect x="14" y="2" width="1" height="1" fill="#17283B" />
<rect x="15" y="2" width="1" height="1" fill="#17283B" />
<rect x="16" y="2" width="1" height="1" fill="#2E425A" />
<rect x="17" y="2" width="1" height="1" fill="#2E425A" />
<rect x="18" y="2" width="1" height="1" fill="#2E425A" />
<rect x="19" y="2" width="1" height="1" fill="#2E425A" />
<rect x="20" y="2" width="1" height="1" fill="#2E425A" />
<rect x="21" y="2" width="1" height="1" fill="#2E425A" />
<rect x="26" y="2" width="1" height="1" fill="#17283B" />
<rect x="27" y="2" width="1" height="1" fill="#17283B" />
<rect x="31" y="2" width="1" height="1" fill="#17283B" />
<rect x="32" y="2" width="1" height="1" fill="#17283B" />
<rect x="33" y="2" width="1" height="1" fill="#17283B" />
<rect x="3" y="3" width="1" height="1" fill="#17283B" />
<rect x="4" y="3" width="1" height="1" fill="#17283B" />
<rect x="5" y="3" width="1" height="1" fill="#2E425A" />
<rect x="6" y="3" width="1" height="1" fill="#2E425A" />
<rect x="8" y="3" width="1" height="1" fill="#2E425A" />
<rect x="9" y="3" width="1" height="1" fill="#2E425A" />
<rect x="10" y="3" width="1" height="1" fill="#2E425A" />
<rect x="11" y="3" width="1" height="1" fill="#17283B" />
<rect x="12" y="3" width="1" height="1" fill="#17283B" />
<rect x="13" y="3" width="1" height="1" fill="#17283B" />
<rect x="14" y="3" width="1" height="1" fill="#2E425A" />
<rect x="15" y="3" width="1" height="1" fill="#2E425A" />
<rect x="16" y="3" width="1" height="1" fill="#2E425A" />
<rect x="17" y="3" width="1" height="1" fill="#2E425A" />
<rect x="18" y="3" width="1" height="1" fill="#2E425A" />
<rect x="19" y="3" width="1" height="1" fill="#2E425A" />
<rect x="20" y="3" width="1" height="1" fill="#2E425A" />
<rect x="22" y="3" width="1" height="1" fill="#17283B" />
<rect x="23" y="3" width="1" height="1" fill="#17283B" />
<rect x="24" y="3" width="1" height="1" fill="#17283B" />
<rect x="25" y="3" width="1" height="1" fill="#17283B" />
<rect x="26" y="3" width="1" height="1" fill="#17283B" />
<rect x="27" y="3" width="1" height="1" fill="#17283B" />
<rect x="28" y="3" width="1" height="1" fill="#2E425A" />
<rect x="29" y="3" width="1" height="1" fill="#2E425A" />
<rect x="30" y="3" width="1" height="1" fill="#17283B" />
<rect x="33" y="3" width="1" height="1" fill="#17283B" />
<rect x="34" y="3" width="1" height="1" fill="#17283B" />
<rect x="2" y="4" width="1" height="1" fill="#17283B" />
<rect x="3" y="4" width="1" height="1" fill="#17283B" />
<rect x="4" y="4" width="1" height="1" fill="#2E425A" />
<rect x="5" y="4" width="1" height="1" fill="#2E425A" />
<rect x="6" y="4" width="1" height="1" fill="#2E425A" />
<rect x="8" y="4" width="1" height="1" fill="#2E425A" />
<rect x="9" y="4" width="1" height="1" fill="#2E425A" />
<rect x="10" y="4" width="1" height="1" fill="#2E425A" />
<rect x="11" y="4" width="1" height="1" fill="#2E425A" />
<rect x="12" y="4" width="1" height="1" fill="#2E425A" />
<rect x="13" y="4" width="1" height="1" fill="#2E425A" />
<rect x="14" y="4" width="1" height="1" fill="#2E425A" />
<rect x="15" y="4" width="1" height="1" fill="#2E425A" />
<rect x="16" y="4" width="1" height="1" fill="#2E425A" />
<rect x="17" y="4" width="1" height="1" fill="#2E425A" />
<rect x="18" y="4" width="1" height="1" fill="#2E425A" />
<rect x="19" y="4" width="1" height="1" fill="#17283B" />
<rect x="20" y="4" width="1" height="1" fill="#17283B" />
<rect x="21" y="4" width="1" height="1" fill="#17283B" />
<rect x="22" y="4" width="1" height="1" fill="#17283B" />
<rect x="23" y="4" width="1" height="1" fill="#17283B" />
<rect x="24" y="4" width="1" height="1" fill="#17283B" />
<rect x="25" y="4" width="1" height="1" fill="#2E425A" />
<rect x="26" y="4" width="1" height="1" fill="#2E425A" />
<rect x="27" y="4" width="1" height="1" fill="#2E425A" />
<rect x="28" y="4" width="1" height="1" fill="#2E425A" />
<rect x="29" y="4" width="1" height="1" fill="#17283B" />
<rect x="30" y="4" width="1" height="1" fill="#17283B" />
<rect x="31" y="4" width="1" height="1" fill="#17283B" />
<rect x="34" y="4" width="1" height="1" fill="#17283B" />
<rect x="2" y="5" width="1" height="1" fill="#17283B" />
<rect x="3" y="5" width="1" height="1" fill="#2E425A" />
<rect x="4" y="5" width="1" height="1" fill="#2E425A" />
<rect x="5" y="5" width="1" height="1" fill="#2E425A" />
<rect x="6" y="5" width="1" height="1" fill="#2E425A" />
<rect x="7" y="5" width="1" height="1" fill="#2E425A" />
<rect x="10" y="5" width="1" height="1" fill="#2E425A" />
<rect x="11" y="5" width="1" height="1" fill="#2E425A" />
<rect x="12" y="5" width="1" height="1" fill="#2E425A" />
<rect x="13" y="5" width="1" height="1" fill="#2E425A" />
<rect x="14" y="5" width="1" height="1" fill="#2E425A" />
<rect x="15" y="5" width="1" height="1" fill="#2E425A" />
<rect x="16" y="5" width="1" height="1" fill="#2E425A" />
<rect x="17" y="5" width="1" height="1" fill="#2E425A" />
<rect x="18" y="5" width="1" height="1" fill="#17283B" />
<rect x="19" y="5" width="1" height="1" fill="#17283B" />
<rect x="20" y="5" width="1" height="1" fill="#2E425A" />
<rect x="21" y="5" width="1" height="1" fill="#17283B" />
<rect x="22" y="5" width="1" height="1" fill="#17283B" />
<rect x="23" y="5" width="1" height="1" fill="#2E425A" />
<rect x="24" y="5" width="1" height="1" fill="#2E425A" />
<rect x="25" y="5" width="1" height="1" fill="#2E425A" />
<rect x="26" y="5" width="1" height="1" fill="#2E425A" />
<rect x="27" y="5" width="1" height="1" fill="#2E425A" />
<rect x="28" y="5" width="1" height="1" fill="#2E425A" />
<rect x="29" y="5" width="1" height="1" fill="#17283B" />
<rect x="30" y="5" width="1" height="1" fill="#17283B" />
<rect x="31" y="5" width="1" height="1" fill="#17283B" />
<rect x="32" y="5" width="1" height="1" fill="#17283B" />
<rect x="0" y="6" width="1" height="1" fill="#2E425A" />
<rect x="2" y="6" width="1" height="1" fill="#17283B" />
<rect x="3" y="6" width="1" height="1" fill="#2E425A" />
<rect x="4" y="6" width="1" height="1" fill="#2E425A" />
<rect x="5" y="6" width="1" height="1" fill="#2E425A" />
<rect x="6" y="6" width="1" height="1" fill="#2E425A" />
<rect x="13" y="6" width="1" height="1" fill="#2E425A" />
<rect x="14" y="6" width="1" height="1" fill="#2E425A" />
<rect x="15" y="6" width="1" height="1" fill="#2E425A" />
<rect x="16" y="6" width="1" height="1" fill="#2E425A" />
<rect x="17" y="6" width="1" height="1" fill="#2E425A" />
<rect x="18" y="6" width="1" height="1" fill="#2E425A" />
<rect x="19" y="6" width="1" height="1" fill="#2E425A" />
<rect x="20" y="6" width="1" height="1" fill="#2E425A" />
<rect x="21" y="6" width="1" height="1" fill="#2E425A" />
<rect x="22" y="6" width="1" height="1" fill="#2E425A" />
<rect x="23" y="6" width="1" height="1" fill="#2E425A" />
<rect x="24" y="6" width="1" height="1" fill="#2E425A" />
<rect x="25" y="6" width="1" height="1" fill="#2E425A" />
<rect x="26" y="6" width="1" height="1" fill="#2E425A" />
<rect x="27" y="6" width="1" height="1" fill="#2E425A" />
<rect x="28" y="6" width="1" height="1" fill="#2E425A" />
<rect x="29" y="6" width="1" height="1" fill="#17283B" />
<rect x="30" y="6" width="1" height="1" fill="#17283B" />
<rect x="31" y="6" width="1" height="1" fill="#17283B" />
<rect x="32" y="6" width="1" height="1" fill="#17283B" />
<rect x="0" y="7" width="1" height="1" fill="#2E425A" />
<rect x="1" y="7" width="1" height="1" fill="#17283B" />
<rect x="2" y="7" width="1" height="1" fill="#17283B" />
<rect x="3" y="7" width="1" height="1" fill="#2E425A" />
<rect x="4" y="7" width="1" height="1" fill="#2E425A" />
<rect x="5" y="7" width="1" height="1" fill="#2E425A" />
<rect x="16" y="7" width="1" height="1" fill="#2E425A" />
<rect x="17" y="7" width="1" height="1" fill="#2E425A" />
<rect x="18" y="7" width="1" height="1" fill="#2E425A" />
<rect x="19" y="7" width="1" height="1" fill="#2E425A" />
<rect x="20" y="7" width="1" height="1" fill="#17283B" />
<rect x="21" y="7" width="1" height="1" fill="#17283B" />
<rect x="22" y="7" width="1" height="1" fill="#17283B" />
<rect x="23" y="7" width="1" height="1" fill="#17283B" />
<rect x="24" y="7" width="1" height="1" fill="#2E425A" />
<rect x="25" y="7" width="1" height="1" fill="#2E425A" />
<rect x="26" y="7" width="1" height="1" fill="#2E425A" />
<rect x="27" y="7" width="1" height="1" fill="#2E425A" />
<rect x="28" y="7" width="1" height="1" fill="#17283B" />
<rect x="29" y="7" width="1" height="1" fill="#17283B" />
<rect x="30" y="7" width="1" height="1" fill="#17283B" />
<rect x="31" y="7" width="1" height="1" fill="#17283B" />
<rect x="32" y="7" width="1" height="1" fill="#17283B" />
<rect x="0" y="8" width="1" height="1" fill="#17283B" />
<rect x="1" y="8" width="1" height="1" fill="#2E425A" />
<rect x="2" y="8" width="1" height="1" fill="#2E425A" />
<rect x="3" y="8" width="1" height="1" fill="#2E425A" />
<rect x="4" y="8" width="1" height="1" fill="#2E425A" />
<rect x="18" y="8" width="1" height="1" fill="#17283B" />
<rect x="19" y="8" width="1" height="1" fill="#17283B" />
<rect x="24" y="8" width="1" height="1" fill="#17283B" />
<rect x="25" y="8" width="1" height="1" fill="#17283B" />
<rect x="26" y="8" width="1" height="1" fill="#17283B" />
<rect x="27" y="8" width="1" height="1" fill="#17283B" />
<rect x="29" y="8" width="1" height="1" fill="#17283B" />
<rect x="30" y="8" width="1" height="1" fill="#17283B" />
<rect x="32" y="8" width="1" height="1" fill="#17283B" />
<rect x="0" y="9" width="1" height="1" fill="#2E425A" />
<rect x="1" y="9" width="1" height="1" fill="#2E425A" />
<rect x="2" y="9" width="1" height="1" fill="#2E425A" />
<rect x="3" y="9" width="1" height="1" fill="#2E425A" />
<rect x="4" y="9" width="1" height="1" fill="#2E425A" />
<rect x="20" y="9" width="1" height="1" fill="#17283B" />
<rect x="26" y="9" width="1" height="1" fill="#17283B" />
<rect x="27" y="9" width="1" height="1" fill="#17283B" />
<rect x="28" y="9" width="1" height="1" fill="#17283B" />
<rect x="31" y="9" width="1" height="1" fill="#17283B" />
<rect x="32" y="9" width="1" height="1" fill="#17283B" />
<rect x="33" y="9" width="1" height="1" fill="#17283B" />
<rect x="0" y="10" width="1" height="1" fill="#2E425A" />
<rect x="1" y="10" width="1" height="1" fill="#2E425A" />
<rect x="2" y="10" width="1" height="1" fill="#2E425A" />
<rect x="3" y="10" width="1" height="1" fill="#2E425A" />
<rect x="4" y="10" width="1" height="1" fill="#2E425A" />
<rect x="28" y="10" width="1" height="1" fill="#17283B" />
<rect x="29" y="10" width="1" height="1" fill="#17283B" />
<rect x="31" y="10" width="1" height="1" fill="#17283B" />
<rect x="0" y="11" width="1" height="1" fill="#2E425A" />
<rect x="1" y="11" width="1" height="1" fill="#2E425A" />
<rect x="2" y="11" width="1" height="1" fill="#2E425A" />
<rect x="4" y="11" width="1" height="1" fill="#2E425A" />
<rect x="30" y="11" width="1" height="1" fill="#17283B" />
<rect x="1" y="12" width="1" height="1" fill="#2E425A" />
<rect x="2" y="12" width="1" height="1" fill="#2E425A" />
<rect x="4" y="12" width="1" height="1" fill="#2E425A" />
<rect x="1" y="13" width="1" height="1" fill="#2E425A" />
<rect x="2" y="13" width="1" height="1" fill="#2E425A" />
<rect x="3" y="13" width="1" height="1" fill="#2E425A" />
<rect x="1" y="14" width="1" height="1" fill="#2E425A" />
<rect x="2" y="14" width="1" height="1" fill="#2E425A" />
<rect x="1" y="15" width="1" height="1" fill="#2E425A" />
<rect x="2" y="15" width="1" height="1" fill="#17283B" />
<rect x="1" y="16" width="1" height="1" fill="#2E425A" />
<rect x="2" y="16" width="1" height="1" fill="#17283B" />
<rect x="13" y="16" width="1" height="1" fill="#2E425A" />
<rect x="26" y="16" width="1" height="1" fill="#2E425A" />
<rect x="1" y="17" width="1" height="1" fill="#2E425A" />
<rect x="2" y="17" width="1" height="1" fill="#17283B" />
<rect x="1" y="18" width="1" height="1" fill="#2E425A" />
<rect x="2" y="18" width="1" height="1" fill="#17283B" />
<rect x="2" y="19" width="1" height="1" fill="#17283B" />
<rect x="3" y="19" width="1" height="1" fill="#17283B" />
<rect x="2" y="20" width="1" height="1" fill="#17283B" />
<rect x="3" y="20" width="1" height="1" fill="#17283B" />
<rect x="3" y="21" width="1" height="1" fill="#17283B" />
<rect x="4" y="21" width="1" height="1" fill="#17283B" />
<rect x="4" y="22" width="1" height="1" fill="#17283B" />
</svg>