<?xml version="1.0" encoding="UTF-8" ?>
<svg version="1.1" width="96" height="96" xmlns="http://www.w3.org/2000/svg" shape-rendering="crispEdges">
<rect x="41" y="0" width="1" height="1" fill="#1A1715" />
<rect x="42" y="0" width="1" height="1" fill="#1A1715" />
<rect x="43" y="0" width="1" height="1" fill="#1A1715" />
<rect x="44" y="0" width="1" height="1" fill="#1A1715" />
<rect x="45" y="0" width="1" height="1" fill="#1A1715" />
<rect x="46" y="0" width="1" height="1" fill="#1A1715" />
<rect x="47" y="0" width="1" height="1" fill="#1A1715" />
<rect x="48" y="0" width="1" height="1" fill="#1A1715" />
<rect x="49" y="0" width="1" height="1" fill="#1A1715" />
<rect x="50" y="0" width="1" height="1" fill="#1A1715" />
<rect x="51" y="0" width="1" height="1" fill="#1A1715" />
<rect x="52" y="0" width="1" height="1" fill="#1A1715" />
<rect x="53" y="0" width="1" height="1" fill="#1A1715" />
<rect x="54" y="0" width="1" height="1" fill="#1A1715" />
<rect x="36" y="1" width="1" height="1" fill="#1A1715" />
<rect x="37" y="1" width="1" height="1" fill="#1A1715" />
<rect x="38" y="1" width="1" height="1" fill="#1A1715" />
<rect x="39" y="1" width="1" height="1" fill="#1A1715" />
<rect x="40" y="1" width="1" height="1" fill="#1A1715" />
<rect x="41" y="1" width="1" height="1" fill="#E5E5E5" />
<rect x="42" y="1" width="1" height="1" fill="#E5E5E5" />
<rect x="43" y="1" width="1" height="1" fill="#E5E5E5" />
<rect x="44" y="1" width="1" height="1" fill="#E5E5E5" />
<rect x="45" y="1" width="1" height="1" fill="#E5E5E5" />
<rect x="46" y="1" width="1" height="1" fill="#E5E5E5" />
<rect x="47" y="1" width="1" height="1" fill="#E5E5E5" />
<rect x="48" y="1" width="1" height="1" fill="#E5E5E5" />
<rect x="49" y="1" width="1" height="1" fill="#E5E5E5" />
<rect x="50" y="1" width="1" height="1" fill="#E5E5E5" />
<rect x="51" y="1" width="1" height="1" fill="#E5E5E5" />
<rect x="52" y="1" width="1" height="1" fill="#E5E5E5" />
<rect x="53" y="1" width="1" height="1" fill="#E5E5E5" />
<rect x="54" y="1" width="1" height="1" fill="#E5E5E5" />
<rect x="55" y="1" width="1" height="1" fill="#1A1715" />
<rect x="56" y="1" width="1" height="1" fill="#1A1715" />
<rect x="57" y="1" width="1" height="1" fill="#1A1715" />
<rect x="58" y="1" width="1" height="1" fill="#1A1715" />
<rect x="59" y="1" width="1" height="1" fill="#1A1715" />
<rect x="33" y="2" width="1" height="1" fill="#1A1715" />
<rect x="34" y="2" width="1" height="1" fill="#1A1715" />
<rect x="35" y="2" width="1" height="1" fill="#1A1715" />
<rect x="36" y="2" width="1" height="1" fill="#E5E5E5" />
<rect x="37" y="2" width="1" height="1" fill="#E5E5E5" />
<rect x="38" y="2" width="1" height="1" fill="#E5E5E5" />
<rect x="39" y="2" width="1" height="1" fill="#E5E5E5" />
<rect x="40" y="2" width="1" height="1" fill="#E5E5E5" />
<rect x="41" y="2" width="1" height="1" fill="#1A1715" />
<rect x="42" y="2" width="1" height="1" fill="#1A1715" />
<rect x="43" y="2" width="1" height="1" fill="#1A1715" />
<rect x="44" y="2" width="1" height="1" fill="#1A1715" />
<rect x="45" y="2" width="1" height="1" fill="#1A1715" />
<rect x="46" y="2" width="1" height="1" fill="#1A1715" />
<rect x="47" y="2" width="1" height="1" fill="#1A1715" />
<rect x="48" y="2" width="1" height="1" fill="#1A1715" />
<rect x="49" y="2" width="1" height="1" fill="#1A1715" />
<rect x="50" y="2" width="1" height="1" fill="#1A1715" />
<rect x="51" y="2" width="1" height="1" fill="#1A1715" />
<rect x="52" y="2" width="1" height="1" fill="#1A1715" />
<rect x="53" y="2" width="1" height="1" fill="#1A1715" />
<rect x="54" y="2" width="1" height="1" fill="#1A1715" />
<rect x="55" y="2" width="1" height="1" fill="#E5E5E5" />
<rect x="56" y="2" width="1" height="1" fill="#E5E5E5" />
<rect x="57" y="2" width="1" height="1" fill="#E5E5E5" />
<rect x="58" y="2" width="1" height="1" fill="#E5E5E5" />
<rect x="59" y="2" width="1" height="1" fill="#E5E5E5" />
<rect x="60" y="2" width="1" height="1" fill="#1A1715" />
<rect x="61" y="2" width="1" height="1" fill="#1A1715" />
<rect x="62" y="2" width="1" height="1" fill="#1A1715" />
<rect x="30" y="3" width="1" height="1" fill="#1A1715" />
<rect x="31" y="3" width="1" height="1" fill="#1A1715" />
<rect x="32" y="3" width="1" height="1" fill="#1A1715" />
<rect x="33" y="3" width="1" height="1" fill="#E5E5E5" />
<rect x="34" y="3" width="1" height="1" fill="#E5E5E5" />
<rect x="35" y="3" width="1" height="1" fill="#E5E5E5" />
<rect x="36" y="3" width="1" height="1" fill="#1A1715" />
<rect x="37" y="3" width="1" height="1" fill="#1A1715" />
<rect x="38" y="3" width="1" height="1" fill="#1A1715" />
<rect x="39" y="3" width="1" height="1" fill="#1A1715" />
<rect x="40" y="3" width="1" height="1" fill="#1A1715" />
<rect x="55" y="3" width="1" height="1" fill="#1A1715" />
<rect x="56" y="3" width="1" height="1" fill="#1A1715" />
<rect x="57" y="3" width="1" height="1" fill="#1A1715" />
<rect x="58" y="3" width="1" height="1" fill="#1A1715" />
<rect x="59" y="3" width="1" height="1" fill="#1A1715" />
<rect x="60" y="3" width="1" height="1" fill="#E5E5E5" />
<rect x="61" y="3" width="1" height="1" fill="#E5E5E5" />
<rect x="62" y="3" width="1" height="1" fill="#E5E5E5" />
<rect x="63" y="3" width="1" height="1" fill="#1A1715" />
<rect x="64" y="3" width="1" height="1" fill="#1A1715" />
<rect x="65" y="3" width="1" height="1" fill="#1A1715" />
<rect x="28" y="4" width="1" height="1" fill="#1A1715" />
<rect x="29" y="4" width="1" height="1" fill="#1A1715" />
<rect x="30" y="4" width="1" height="1" fill="#E5E5E5" />
<rect x="31" y="4" width="1" height="1" fill="#E5E5E5" />
<rect x="32" y="4" width="1" height="1" fill="#E5E5E5" />
<rect x="33" y="4" width="1" height="1" fill="#1A1715" />
<rect x="34" y="4" width="1" height="1" fill="#1A1715" />
<rect x="35" y="4" width="1" height="1" fill="#1A1715" />
<rect x="60" y="4" width="1" height="1" fill="#1A1715" />
<rect x="61" y="4" width="1" height="1" fill="#1A1715" />
<rect x="62" y="4" width="1" height="1" fill="#1A1715" />
<rect x="63" y="4" width="1" height="1" fill="#E5E5E5" />
<rect x="64" y="4" width="1" height="1" fill="#E5E5E5" />
<rect x="65" y="4" width="1" height="1" fill="#E5E5E5" />
<rect x="66" y="4" width="1" height="1" fill="#1A1715" />
<rect x="67" y="4" width="1" height="1" fill="#1A1715" />
<rect x="26" y="5" width="1" height="1" fill="#1A1715" />
<rect x="27" y="5" width="1" height="1" fill="#1A1715" />
<rect x="28" y="5" width="1" height="1" fill="#E5E5E5" />
<rect x="29" y="5" width="1" height="1" fill="#E5E5E5" />
<rect x="30" y="5" width="1" height="1" fill="#1A1715" />
<rect x="31" y="5" width="1" height="1" fill="#1A1715" />
<rect x="32" y="5" width="1" height="1" fill="#1A1715" />
<rect x="63" y="5" width="1" height="1" fill="#1A1715" />
<rect x="64" y="5" width="1" height="1" fill="#1A1715" />
<rect x="65" y="5" width="1" height="1" fill="#1A1715" />
<rect x="66" y="5" width="1" height="1" fill="#E5E5E5" />
<rect x="67" y="5" width="1" height="1" fill="#E5E5E5" />
<rect x="68" y="5" width="1" height="1" fill="#1A1715" />
<rect x="69" y="5" width="1" height="1" fill="#1A1715" />
<rect x="25" y="6" width="1" height="1" fill="#1A1715" />
<rect x="26" y="6" width="1" height="1" fill="#E5E5E5" />
<rect x="27" y="6" width="1" height="1" fill="#E5E5E5" />
<rect x="28" y="6" width="1" height="1" fill="#1A1715" />
<rect x="29" y="6" width="1" height="1" fill="#1A1715" />
<rect x="66" y="6" width="1" height="1" fill="#1A1715" />
<rect x="67" y="6" width="1" height="1" fill="#1A1715" />
<rect x="68" y="6" width="1" height="1" fill="#E5E5E5" />
<rect x="69" y="6" width="1" height="1" fill="#E5E5E5" />
<rect x="70" y="6" width="1" height="1" fill="#1A1715" />
<rect x="71" y="6" width="1" height="1" fill="#1A1715" />
<rect x="23" y="7" width="1" height="1" fill="#1A1715" />
<rect x="24" y="7" width="1" height="1" fill="#1A1715" />
<rect x="25" y="7" width="1" height="1" fill="#E5E5E5" />
<rect x="26" y="7" width="1" height="1" fill="#1A1715" />
<rect x="27" y="7" width="1" height="1" fill="#1A1715" />
<rect x="68" y="7" width="1" height="1" fill="#1A1715" />
<rect x="69" y="7" width="1" height="1" fill="#1A1715" />
<rect x="70" y="7" width="1" height="1" fill="#E5E5E5" />
<rect x="71" y="7" width="1" height="1" fill="#E5E5E5" />
<rect x="72" y="7" width="1" height="1" fill="#1A1715" />
<rect x="22" y="8" width="1" height="1" fill="#1A1715" />
<rect x="23" y="8" width="1" height="1" fill="#E5E5E5" />
<rect x="24" y="8" width="1" height="1" fill="#E5E5E5" />
<rect x="25" y="8" width="1" height="1" fill="#1A1715" />
<rect x="70" y="8" width="1" height="1" fill="#1A1715" />
<rect x="71" y="8" width="1" height="1" fill="#1A1715" />
<rect x="72" y="8" width="1" height="1" fill="#E5E5E5" />
<rect x="73" y="8" width="1" height="1" fill="#1A1715" />
<rect x="21" y="9" width="1" height="1" fill="#1A1715" />
<rect x="22" y="9" width="1" height="1" fill="#E5E5E5" />
<rect x="23" y="9" width="1" height="1" fill="#1A1715" />
<rect x="24" y="9" width="1" height="1" fill="#1A1715" />
<rect x="72" y="9" width="1" height="1" fill="#1A1715" />
<rect x="73" y="9" width="1" height="1" fill="#E5E5E5" />
<rect x="74" y="9" width="1" height="1" fill="#1A1715" />
<rect x="19" y="10" width="1" height="1" fill="#1A1715" />
<rect x="20" y="10" width="1" height="1" fill="#1A1715" />
<rect x="21" y="10" width="1" height="1" fill="#E5E5E5" />
<rect x="22" y="10" width="1" height="1" fill="#1A1715" />
<rect x="73" y="10" width="1" height="1" fill="#1A1715" />
<rect x="74" y="10" width="1" height="1" fill="#E5E5E5" />
<rect x="75" y="10" width="1" height="1" fill="#1A1715" />
<rect x="76" y="10" width="1" height="1" fill="#1A1715" />
<rect x="18" y="11" width="1" height="1" fill="#1A1715" />
<rect x="19" y="11" width="1" height="1" fill="#E5E5E5" />
<rect x="20" y="11" width="1" height="1" fill="#E5E5E5" />
<rect x="21" y="11" width="1" height="1" fill="#1A1715" />
<rect x="74" y="11" width="1" height="1" fill="#1A1715" />
<rect x="75" y="11" width="1" height="1" fill="#E5E5E5" />
<rect x="76" y="11" width="1" height="1" fill="#E5E5E5" />
<rect x="77" y="11" width="1" height="1" fill="#1A1715" />
<rect x="17" y="12" width="1" height="1" fill="#1A1715" />
<rect x="18" y="12" width="1" height="1" fill="#E5E5E5" />
<rect x="19" y="12" width="1" height="1" fill="#1A1715" />
<rect x="20" y="12" width="1" height="1" fill="#1A1715" />
<rect x="75" y="12" width="1" height="1" fill="#1A1715" />
<rect x="76" y="12" width="1" height="1" fill="#1A1715" />
<rect x="77" y="12" width="1" height="1" fill="#E5E5E5" />
<rect x="78" y="12" width="1" height="1" fill="#1A1715" />
<rect x="16" y="13" width="1" height="1" fill="#1A1715" />
<rect x="17" y="13" width="1" height="1" fill="#E5E5E5" />
<rect x="18" y="13" width="1" height="1" fill="#1A1715" />
<rect x="77" y="13" width="1" height="1" fill="#1A1715" />
<rect x="78" y="13" width="1" height="1" fill="#E5E5E5" />
<rect x="79" y="13" width="1" height="1" fill="#1A1715" />
<rect x="15" y="14" width="1" height="1" fill="#1A1715" />
<rect x="16" y="14" width="1" height="1" fill="#E5E5E5" />
<rect x="17" y="14" width="1" height="1" fill="#1A1715" />
<rect x="78" y="14" width="1" height="1" fill="#1A1715" />
<rect x="79" y="14" width="1" height="1" fill="#E5E5E5" />
<rect x="80" y="14" width="1" height="1" fill="#1A1715" />
<rect x="14" y="15" width="1" height="1" fill="#1A1715" />
<rect x="15" y="15" width="1" height="1" fill="#E5E5E5" />
<rect x="16" y="15" width="1" height="1" fill="#1A1715" />
<rect x="79" y="15" width="1" height="1" fill="#1A1715" />
<rect x="80" y="15" width="1" height="1" fill="#E5E5E5" />
<rect x="81" y="15" width="1" height="1" fill="#1A1715" />
<rect x="13" y="16" width="1" height="1" fill="#1A1715" />
<rect x="14" y="16" width="1" height="1" fill="#E5E5E5" />
<rect x="15" y="16" width="1" height="1" fill="#1A1715" />
<rect x="80" y="16" width="1" height="1" fill="#1A1715" />
<rect x="81" y="16" width="1" height="1" fill="#E5E5E5" />
<rect x="82" y="16" width="1" height="1" fill="#1A1715" />
<rect x="12" y="17" width="1" height="1" fill="#1A1715" />
<rect x="13" y="17" width="1" height="1" fill="#E5E5E5" />
<rect x="14" y="17" width="1" height="1" fill="#1A1715" />
<rect x="81" y="17" width="1" height="1" fill="#1A1715" />
<rect x="82" y="17" width="1" height="1" fill="#E5E5E5" />
<rect x="83" y="17" width="1" height="1" fill="#1A1715" />
<rect x="11" y="18" width="1" height="1" fill="#1A1715" />
<rect x="12" y="18" width="1" height="1" fill="#E5E5E5" />
<rect x="13" y="18" width="1" height="1" fill="#1A1715" />
<rect x="82" y="18" width="1" height="1" fill="#1A1715" />
<rect x="83" y="18" width="1" height="1" fill="#E5E5E5" />
<rect x="84" y="18" width="1" height="1" fill="#1A1715" />
<rect x="10" y="19" width="1" height="1" fill="#1A1715" />
<rect x="11" y="19" width="1" height="1" fill="#E5E5E5" />
<rect x="12" y="19" width="1" height="1" fill="#1A1715" />
<rect x="83" y="19" width="1" height="1" fill="#1A1715" />
<rect x="84" y="19" width="1" height="1" fill="#E5E5E5" />
<rect x="85" y="19" width="1" height="1" fill="#1A1715" />
<rect x="10" y="20" width="1" height="1" fill="#1A1715" />
<rect x="11" y="20" width="1" height="1" fill="#E5E5E5" />
<rect x="12" y="20" width="1" height="1" fill="#1A1715" />
<rect x="83" y="20" width="1" height="1" fill="#1A1715" />
<rect x="84" y="20" width="1" height="1" fill="#E5E5E5" />
<rect x="85" y="20" width="1" height="1" fill="#1A1715" />
<rect x="9" y="21" width="1" height="1" fill="#1A1715" />
<rect x="10" y="21" width="1" height="1" fill="#E5E5E5" />
<rect x="11" y="21" width="1" height="1" fill="#1A1715" />
<rect x="84" y="21" width="1" height="1" fill="#1A1715" />
<rect x="85" y="21" width="1" height="1" fill="#E5E5E5" />
<rect x="86" y="21" width="1" height="1" fill="#1A1715" />
<rect x="8" y="22" width="1" height="1" fill="#1A1715" />
<rect x="9" y="22" width="1" height="1" fill="#E5E5E5" />
<rect x="10" y="22" width="1" height="1" fill="#1A1715" />
<rect x="85" y="22" width="1" height="1" fill="#1A1715" />
<rect x="86" y="22" width="1" height="1" fill="#E5E5E5" />
<rect x="87" y="22" width="1" height="1" fill="#1A1715" />
<rect x="7" y="23" width="1" height="1" fill="#1A1715" />
<rect x="8" y="23" width="1" height="1" fill="#E5E5E5" />
<rect x="9" y="23" width="1" height="1" fill="#1A1715" />
<rect x="86" y="23" width="1" height="1" fill="#1A1715" />
<rect x="87" y="23" width="1" height="1" fill="#E5E5E5" />
<rect x="88" y="23" width="1" height="1" fill="#1A1715" />
<rect x="7" y="24" width="1" height="1" fill="#1A1715" />
<rect x="8" y="24" width="1" height="1" fill="#E5E5E5" />
<rect x="9" y="24" width="1" height="1" fill="#1A1715" />
<rect x="86" y="24" width="1" height="1" fill="#1A1715" />
<rect x="87" y="24" width="1" height="1" fill="#E5E5E5" />
<rect x="88" y="24" width="1" height="1" fill="#1A1715" />
<rect x="6" y="25" width="1" height="1" fill="#1A1715" />
<rect x="7" y="25" width="1" height="1" fill="#E5E5E5" />
<rect x="8" y="25" width="1" height="1" fill="#1A1715" />
<rect x="87" y="25" width="1" height="1" fill="#1A1715" />
<rect x="88" y="25" width="1" height="1" fill="#E5E5E5" />
<rect x="89" y="25" width="1" height="1" fill="#1A1715" />
<rect x="5" y="26" width="1" height="1" fill="#1A1715" />
<rect x="6" y="26" width="1" height="1" fill="#E5E5E5" />
<rect x="7" y="26" width="1" height="1" fill="#1A1715" />
<rect x="88" y="26" width="1" height="1" fill="#1A1715" />
<rect x="89" y="26" width="1" height="1" fill="#E5E5E5" />
<rect x="90" y="26" width="1" height="1" fill="#1A1715" />
<rect x="5" y="27" width="1" height="1" fill="#1A1715" />
<rect x="6" y="27" width="1" height="1" fill="#E5E5E5" />
<rect x="7" y="27" width="1" height="1" fill="#1A1715" />
<rect x="88" y="27" width="1" height="1" fill="#1A1715" />
<rect x="89" y="27" width="1" height="1" fill="#E5E5E5" />
<rect x="90" y="27" width="1" height="1" fill="#1A1715" />
<rect x="4" y="28" width="1" height="1" fill="#1A1715" />
<rect x="5" y="28" width="1" height="1" fill="#E5E5E5" />
<rect x="6" y="28" width="1" height="1" fill="#1A1715" />
<rect x="89" y="28" width="1" height="1" fill="#1A1715" />
<rect x="90" y="28" width="1" height="1" fill="#E5E5E5" />
<rect x="91" y="28" width="1" height="1" fill="#1A1715" />
<rect x="4" y="29" width="1" height="1" fill="#1A1715" />
<rect x="5" y="29" width="1" height="1" fill="#E5E5E5" />
<rect x="6" y="29" width="1" height="1" fill="#1A1715" />
<rect x="89" y="29" width="1" height="1" fill="#1A1715" />
<rect x="90" y="29" width="1" height="1" fill="#E5E5E5" />
<rect x="91" y="29" width="1" height="1" fill="#1A1715" />
<rect x="3" y="30" width="1" height="1" fill="#1A1715" />
<rect x="4" y="30" width="1" height="1" fill="#E5E5E5" />
<rect x="5" y="30" width="1" height="1" fill="#1A1715" />
<rect x="90" y="30" width="1" height="1" fill="#1A1715" />
<rect x="91" y="30" width="1" height="1" fill="#E5E5E5" />
<rect x="92" y="30" width="1" height="1" fill="#1A1715" />
<rect x="3" y="31" width="1" height="1" fill="#1A1715" />
<rect x="4" y="31" width="1" height="1" fill="#E5E5E5" />
<rect x="5" y="31" width="1" height="1" fill="#1A1715" />
<rect x="90" y="31" width="1" height="1" fill="#1A1715" />
<rect x="91" y="31" width="1" height="1" fill="#E5E5E5" />
<rect x="92" y="31" width="1" height="1" fill="#1A1715" />
<rect x="3" y="32" width="1" height="1" fill="#1A1715" />
<rect x="4" y="32" width="1" height="1" fill="#E5E5E5" />
<rect x="5" y="32" width="1" height="1" fill="#1A1715" />
<rect x="90" y="32" width="1" height="1" fill="#1A1715" />
<rect x="91" y="32" width="1" height="1" fill="#E5E5E5" />
<rect x="92" y="32" width="1" height="1" fill="#1A1715" />
<rect x="2" y="33" width="1" height="1" fill="#1A1715" />
<rect x="3" y="33" width="1" height="1" fill="#E5E5E5" />
<rect x="4" y="33" width="1" height="1" fill="#1A1715" />
<rect x="91" y="33" width="1" height="1" fill="#1A1715" />
<rect x="92" y="33" width="1" height="1" fill="#E5E5E5" />
<rect x="93" y="33" width="1" height="1" fill="#1A1715" />
<rect x="2" y="34" width="1" height="1" fill="#1A1715" />
<rect x="3" y="34" width="1" height="1" fill="#E5E5E5" />
<rect x="4" y="34" width="1" height="1" fill="#1A1715" />
<rect x="91" y="34" width="1" height="1" fill="#1A1715" />
<rect x="92" y="34" width="1" height="1" fill="#E5E5E5" />
<rect x="93" y="34" width="1" height="1" fill="#1A1715" />
<rect x="2" y="35" width="1" height="1" fill="#1A1715" />
<rect x="3" y="35" width="1" height="1" fill="#E5E5E5" />
<rect x="4" y="35" width="1" height="1" fill="#1A1715" />
<rect x="91" y="35" width="1" height="1" fill="#1A1715" />
<rect x="92" y="35" width="1" height="1" fill="#E5E5E5" />
<rect x="93" y="35" width="1" height="1" fill="#1A1715" />
<rect x="1" y="36" width="1" height="1" fill="#1A1715" />
<rect x="2" y="36" width="1" height="1" fill="#E5E5E5" />
<rect x="3" y="36" width="1" height="1" fill="#1A1715" />
<rect x="92" y="36" width="1" height="1" fill="#1A1715" />
<rect x="93" y="36" width="1" height="1" fill="#E5E5E5" />
<rect x="94" y="36" width="1" height="1" fill="#1A1715" />
<rect x="1" y="37" width="1" height="1" fill="#1A1715" />
<rect x="2" y="37" width="1" height="1" fill="#E5E5E5" />
<rect x="3" y="37" width="1" height="1" fill="#1A1715" />
<rect x="92" y="37" width="1" height="1" fill="#1A1715" />
<rect x="93" y="37" width="1" height="1" fill="#E5E5E5" />
<rect x="94" y="37" width="1" height="1" fill="#1A1715" />
<rect x="1" y="38" width="1" height="1" fill="#1A1715" />
<rect x="2" y="38" width="1" height="1" fill="#E5E5E5" />
<rect x="3" y="38" width="1" height="1" fill="#1A1715" />
<rect x="92" y="38" width="1" height="1" fill="#1A1715" />
<rect x="93" y="38" width="1" height="1" fill="#E5E5E5" />
<rect x="94" y="38" width="1" height="1" fill="#1A1715" />
<rect x="1" y="39" width="1" height="1" fill="#1A1715" />
<rect x="2" y="39" width="1" height="1" fill="#E5E5E5" />
<rect x="3" y="39" width="1" height="1" fill="#1A1715" />
<rect x="92" y="39" width="1" height="1" fill="#1A1715" />
<rect x="93" y="39" width="1" height="1" fill="#E5E5E5" />
<rect x="94" y="39" width="1" height="1" fill="#1A1715" />
<rect x="1" y="40" width="1" height="1" fill="#1A1715" />
<rect x="2" y="40" width="1" height="1" fill="#E5E5E5" />
<rect x="3" y="40" width="1" height="1" fill="#1A1715" />
<rect x="92" y="40" width="1" height="1" fill="#1A1715" />
<rect x="93" y="40" width="1" height="1" fill="#E5E5E5" />
<rect x="94" y="40" width="1" height="1" fill="#1A1715" />
<rect x="0" y="41" width="1" height="1" fill="#1A1715" />
<rect x="1" y="41" width="1" height="1" fill="#E5E5E5" />
<rect x="2" y="41" width="1" height="1" fill="#1A1715" />
<rect x="93" y="41" width="1" height="1" fill="#1A1715" />
<rect x="94" y="41" width="1" height="1" fill="#E5E5E5" />
<rect x="95" y="41" width="1" height="1" fill="#1A1715" />
<rect x="0" y="42" width="1" height="1" fill="#1A1715" />
<rect x="1" y="42" width="1" height="1" fill="#E5E5E5" />
<rect x="2" y="42" width="1" height="1" fill="#1A1715" />
<rect x="93" y="42" width="1" height="1" fill="#1A1715" />
<rect x="94" y="42" width="1" height="1" fill="#E5E5E5" />
<rect x="95" y="42" width="1" height="1" fill="#1A1715" />
<rect x="0" y="43" width="1" height="1" fill="#1A1715" />
<rect x="1" y="43" width="1" height="1" fill="#E5E5E5" />
<rect x="2" y="43" width="1" height="1" fill="#1A1715" />
<rect x="93" y="43" width="1" height="1" fill="#1A1715" />
<rect x="94" y="43" width="1" height="1" fill="#E5E5E5" />
<rect x="95" y="43" width="1" height="1" fill="#1A1715" />
<rect x="0" y="44" width="1" height="1" fill="#1A1715" />
<rect x="1" y="44" width="1" height="1" fill="#E5E5E5" />
<rect x="2" y="44" width="1" height="1" fill="#1A1715" />
<rect x="93" y="44" width="1" height="1" fill="#1A1715" />
<rect x="94" y="44" width="1" height="1" fill="#E5E5E5" />
<rect x="95" y="44" width="1" height="1" fill="#1A1715" />
<rect x="0" y="45" width="1" height="1" fill="#1A1715" />
<rect x="1" y="45" width="1" height="1" fill="#E5E5E5" />
<rect x="2" y="45" width="1" height="1" fill="#1A1715" />
<rect x="93" y="45" width="1" height="1" fill="#1A1715" />
<rect x="94" y="45" width="1" height="1" fill="#E5E5E5" />
<rect x="95" y="45" width="1" height="1" fill="#1A1715" />
<rect x="0" y="46" width="1" height="1" fill="#1A1715" />
<rect x="1" y="46" width="1" height="1" fill="#E5E5E5" />
<rect x="2" y="46" width="1" height="1" fill="#1A1715" />
<rect x="93" y="46" width="1" height="1" fill="#1A1715" />
<rect x="94" y="46" width="1" height="1" fill="#E5E5E5" />
<rect x="95" y="46" width="1" height="1" fill="#1A1715" />
<rect x="0" y="47" width="1" height="1" fill="#1A1715" />
<rect x="1" y="47" width="1" height="1" fill="#E5E5E5" />
<rect x="2" y="47" width="1" height="1" fill="#1A1715" />
<rect x="93" y="47" width="1" height="1" fill="#1A1715" />
<rect x="94" y="47" width="1" height="1" fill="#E5E5E5" />
<rect x="95" y="47" width="1" height="1" fill="#1A1715" />
<rect x="0" y="48" width="1" height="1" fill="#1A1715" />
<rect x="1" y="48" width="1" height="1" fill="#E5E5E5" />
<rect x="2" y="48" width="1" height="1" fill="#1A1715" />
<rect x="93" y="48" width="1" height="1" fill="#1A1715" />
<rect x="94" y="48" width="1" height="1" fill="#E5E5E5" />
<rect x="95" y="48" width="1" height="1" fill="#1A1715" />
<rect x="0" y="49" width="1" height="1" fill="#1A1715" />
<rect x="1" y="49" width="1" height="1" fill="#E5E5E5" />
<rect x="2" y="49" width="1" height="1" fill="#1A1715" />
<rect x="93" y="49" width="1" height="1" fill="#1A1715" />
<rect x="94" y="49" width="1" height="1" fill="#E5E5E5" />
<rect x="95" y="49" width="1" height="1" fill="#1A1715" />
<rect x="0" y="50" width="1" height="1" fill="#1A1715" />
<rect x="1" y="50" width="1" height="1" fill="#E5E5E5" />
<rect x="2" y="50" width="1" height="1" fill="#1A1715" />
<rect x="93" y="50" width="1" height="1" fill="#1A1715" />
<rect x="94" y="50" width="1" height="1" fill="#E5E5E5" />
<rect x="95" y="50" width="1" height="1" fill="#1A1715" />
<rect x="0" y="51" width="1" height="1" fill="#1A1715" />
<rect x="1" y="51" width="1" height="1" fill="#E5E5E5" />
<rect x="2" y="51" width="1" height="1" fill="#1A1715" />
<rect x="93" y="51" width="1" height="1" fill="#1A1715" />
<rect x="94" y="51" width="1" height="1" fill="#E5E5E5" />
<rect x="95" y="51" width="1" height="1" fill="#1A1715" />
<rect x="0" y="52" width="1" height="1" fill="#1A1715" />
<rect x="1" y="52" width="1" height="1" fill="#E5E5E5" />
<rect x="2" y="52" width="1" height="1" fill="#1A1715" />
<rect x="93" y="52" width="1" height="1" fill="#1A1715" />
<rect x="94" y="52" width="1" height="1" fill="#E5E5E5" />
<rect x="95" y="52" width="1" height="1" fill="#1A1715" />
<rect x="0" y="53" width="1" height="1" fill="#1A1715" />
<rect x="1" y="53" width="1" height="1" fill="#E5E5E5" />
<rect x="2" y="53" width="1" height="1" fill="#1A1715" />
<rect x="93" y="53" width="1" height="1" fill="#1A1715" />
<rect x="94" y="53" width="1" height="1" fill="#E5E5E5" />
<rect x="95" y="53" width="1" height="1" fill="#1A1715" />
<rect x="0" y="54" width="1" height="1" fill="#1A1715" />
<rect x="1" y="54" width="1" height="1" fill="#E5E5E5" />
<rect x="2" y="54" width="1" height="1" fill="#1A1715" />
<rect x="93" y="54" width="1" height="1" fill="#1A1715" />
<rect x="94" y="54" width="1" height="1" fill="#E5E5E5" />
<rect x="95" y="54" width="1" height="1" fill="#1A1715" />
<rect x="1" y="55" width="1" height="1" fill="#1A1715" />
<rect x="2" y="55" width="1" height="1" fill="#E5E5E5" />
<rect x="3" y="55" width="1" height="1" fill="#1A1715" />
<rect x="92" y="55" width="1" height="1" fill="#1A1715" />
<rect x="93" y="55" width="1" height="1" fill="#E5E5E5" />
<rect x="94" y="55" width="1" height="1" fill="#1A1715" />
<rect x="1" y="56" width="1" height="1" fill="#1A1715" />
<rect x="2" y="56" width="1" height="1" fill="#E5E5E5" />
<rect x="3" y="56" width="1" height="1" fill="#1A1715" />
<rect x="92" y="56" width="1" height="1" fill="#1A1715" />
<rect x="93" y="56" width="1" height="1" fill="#E5E5E5" />
<rect x="94" y="56" width="1" height="1" fill="#1A1715" />
<rect x="1" y="57" width="1" height="1" fill="#1A1715" />
<rect x="2" y="57" width="1" height="1" fill="#E5E5E5" />
<rect x="3" y="57" width="1" height="1" fill="#1A1715" />
<rect x="92" y="57" width="1" height="1" fill="#1A1715" />
<rect x="93" y="57" width="1" height="1" fill="#E5E5E5" />
<rect x="94" y="57" width="1" height="1" fill="#1A1715" />
<rect x="1" y="58" width="1" height="1" fill="#1A1715" />
<rect x="2" y="58" width="1" height="1" fill="#E5E5E5" />
<rect x="3" y="58" width="1" height="1" fill="#1A1715" />
<rect x="92" y="58" width="1" height="1" fill="#1A1715" />
<rect x="93" y="58" width="1" height="1" fill="#E5E5E5" />
<rect x="94" y="58" width="1" height="1" fill="#1A1715" />
<rect x="1" y="59" width="1" height="1" fill="#1A1715" />
<rect x="2" y="59" width="1" height="1" fill="#E5E5E5" />
<rect x="3" y="59" width="1" height="1" fill="#1A1715" />
<rect x="92" y="59" width="1" height="1" fill="#1A1715" />
<rect x="93" y="59" width="1" height="1" fill="#E5E5E5" />
<rect x="94" y="59" width="1" height="1" fill="#1A1715" />
<rect x="2" y="60" width="1" height="1" fill="#1A1715" />
<rect x="3" y="60" width="1" height="1" fill="#E5E5E5" />
<rect x="4" y="60" width="1" height="1" fill="#1A1715" />
<rect x="91" y="60" width="1" height="1" fill="#1A1715" />
<rect x="92" y="60" width="1" height="1" fill="#E5E5E5" />
<rect x="93" y="60" width="1" height="1" fill="#1A1715" />
<rect x="2" y="61" width="1" height="1" fill="#1A1715" />
<rect x="3" y="61" width="1" height="1" fill="#E5E5E5" />
<rect x="4" y="61" width="1" height="1" fill="#1A1715" />
<rect x="91" y="61" width="1" height="1" fill="#1A1715" />
<rect x="92" y="61" width="1" height="1" fill="#E5E5E5" />
<rect x="93" y="61" width="1" height="1" fill="#1A1715" />
<rect x="2" y="62" width="1" height="1" fill="#1A1715" />
<rect x="3" y="62" width="1" height="1" fill="#E5E5E5" />
<rect x="4" y="62" width="1" height="1" fill="#1A1715" />
<rect x="91" y="62" width="1" height="1" fill="#1A1715" />
<rect x="92" y="62" width="1" height="1" fill="#E5E5E5" />
<rect x="93" y="62" width="1" height="1" fill="#1A1715" />
<rect x="3" y="63" width="1" height="1" fill="#1A1715" />
<rect x="4" y="63" width="1" height="1" fill="#E5E5E5" />
<rect x="5" y="63" width="1" height="1" fill="#1A1715" />
<rect x="90" y="63" width="1" height="1" fill="#1A1715" />
<rect x="91" y="63" width="1" height="1" fill="#E5E5E5" />
<rect x="92" y="63" width="1" height="1" fill="#1A1715" />
<rect x="3" y="64" width="1" height="1" fill="#1A1715" />
<rect x="4" y="64" width="1" height="1" fill="#E5E5E5" />
<rect x="5" y="64" width="1" height="1" fill="#1A1715" />
<rect x="90" y="64" width="1" height="1" fill="#1A1715" />
<rect x="91" y="64" width="1" height="1" fill="#E5E5E5" />
<rect x="92" y="64" width="1" height="1" fill="#1A1715" />
<rect x="3" y="65" width="1" height="1" fill="#1A1715" />
<rect x="4" y="65" width="1" height="1" fill="#E5E5E5" />
<rect x="5" y="65" width="1" height="1" fill="#1A1715" />
<rect x="90" y="65" width="1" height="1" fill="#1A1715" />
<rect x="91" y="65" width="1" height="1" fill="#E5E5E5" />
<rect x="92" y="65" width="1" height="1" fill="#1A1715" />
<rect x="4" y="66" width="1" height="1" fill="#1A1715" />
<rect x="5" y="66" width="1" height="1" fill="#E5E5E5" />
<rect x="6" y="66" width="1" height="1" fill="#1A1715" />
<rect x="89" y="66" width="1" height="1" fill="#1A1715" />
<rect x="90" y="66" width="1" height="1" fill="#E5E5E5" />
<rect x="91" y="66" width="1" height="1" fill="#1A1715" />
<rect x="4" y="67" width="1" height="1" fill="#1A1715" />
<rect x="5" y="67" width="1" height="1" fill="#E5E5E5" />
<rect x="6" y="67" width="1" height="1" fill="#1A1715" />
<rect x="89" y="67" width="1" height="1" fill="#1A1715" />
<rect x="90" y="67" width="1" height="1" fill="#E5E5E5" />
<rect x="91" y="67" width="1" height="1" fill="#1A1715" />
<rect x="5" y="68" width="1" height="1" fill="#1A1715" />
<rect x="6" y="68" width="1" height="1" fill="#E5E5E5" />
<rect x="7" y="68" width="1" height="1" fill="#1A1715" />
<rect x="88" y="68" width="1" height="1" fill="#1A1715" />
<rect x="89" y="68" width="1" height="1" fill="#E5E5E5" />
<rect x="90" y="68" width="1" height="1" fill="#1A1715" />
<rect x="5" y="69" width="1" height="1" fill="#1A1715" />
<rect x="6" y="69" width="1" height="1" fill="#E5E5E5" />
<rect x="7" y="69" width="1" height="1" fill="#1A1715" />
<rect x="88" y="69" width="1" height="1" fill="#1A1715" />
<rect x="89" y="69" width="1" height="1" fill="#E5E5E5" />
<rect x="90" y="69" width="1" height="1" fill="#1A1715" />
<rect x="6" y="70" width="1" height="1" fill="#1A1715" />
<rect x="7" y="70" width="1" height="1" fill="#E5E5E5" />
<rect x="8" y="70" width="1" height="1" fill="#1A1715" />
<rect x="87" y="70" width="1" height="1" fill="#1A1715" />
<rect x="88" y="70" width="1" height="1" fill="#E5E5E5" />
<rect x="89" y="70" width="1" height="1" fill="#1A1715" />
<rect x="6" y="71" width="1" height="1" fill="#1A1715" />
<rect x="7" y="71" width="1" height="1" fill="#E5E5E5" />
<rect x="8" y="71" width="1" height="1" fill="#1A1715" />
<rect x="87" y="71" width="1" height="1" fill="#1A1715" />
<rect x="88" y="71" width="1" height="1" fill="#E5E5E5" />
<rect x="89" y="71" width="1" height="1" fill="#1A1715" />
<rect x="7" y="72" width="1" height="1" fill="#1A1715" />
<rect x="8" y="72" width="1" height="1" fill="#E5E5E5" />
<rect x="9" y="72" width="1" height="1" fill="#1A1715" />
<rect x="86" y="72" width="1" height="1" fill="#1A1715" />
<rect x="87" y="72" width="1" height="1" fill="#E5E5E5" />
<rect x="88" y="72" width="1" height="1" fill="#1A1715" />
<rect x="8" y="73" width="1" height="1" fill="#1A1715" />
<rect x="9" y="73" width="1" height="1" fill="#E5E5E5" />
<rect x="10" y="73" width="1" height="1" fill="#1A1715" />
<rect x="85" y="73" width="1" height="1" fill="#1A1715" />
<rect x="86" y="73" width="1" height="1" fill="#E5E5E5" />
<rect x="87" y="73" width="1" height="1" fill="#1A1715" />
<rect x="9" y="74" width="1" height="1" fill="#1A1715" />
<rect x="10" y="74" width="1" height="1" fill="#E5E5E5" />
<rect x="11" y="74" width="1" height="1" fill="#1A1715" />
<rect x="84" y="74" width="1" height="1" fill="#1A1715" />
<rect x="85" y="74" width="1" height="1" fill="#E5E5E5" />
<rect x="86" y="74" width="1" height="1" fill="#1A1715" />
<rect x="10" y="75" width="1" height="1" fill="#1A1715" />
<rect x="11" y="75" width="1" height="1" fill="#E5E5E5" />
<rect x="12" y="75" width="1" height="1" fill="#1A1715" />
<rect x="83" y="75" width="1" height="1" fill="#1A1715" />
<rect x="84" y="75" width="1" height="1" fill="#E5E5E5" />
<rect x="85" y="75" width="1" height="1" fill="#1A1715" />
<rect x="10" y="76" width="1" height="1" fill="#1A1715" />
<rect x="11" y="76" width="1" height="1" fill="#E5E5E5" />
<rect x="12" y="76" width="1" height="1" fill="#1A1715" />
<rect x="83" y="76" width="1" height="1" fill="#1A1715" />
<rect x="84" y="76" width="1" height="1" fill="#E5E5E5" />
<rect x="85" y="76" width="1" height="1" fill="#1A1715" />
<rect x="11" y="77" width="1" height="1" fill="#1A1715" />
<rect x="12" y="77" width="1" height="1" fill="#E5E5E5" />
<rect x="13" y="77" width="1" height="1" fill="#1A1715" />
<rect x="82" y="77" width="1" height="1" fill="#1A1715" />
<rect x="83" y="77" width="1" height="1" fill="#E5E5E5" />
<rect x="84" y="77" width="1" height="1" fill="#1A1715" />
<rect x="12" y="78" width="1" height="1" fill="#1A1715" />
<rect x="13" y="78" width="1" height="1" fill="#E5E5E5" />
<rect x="14" y="78" width="1" height="1" fill="#1A1715" />
<rect x="81" y="78" width="1" height="1" fill="#1A1715" />
<rect x="82" y="78" width="1" height="1" fill="#E5E5E5" />
<rect x="83" y="78" width="1" height="1" fill="#1A1715" />
<rect x="13" y="79" width="1" height="1" fill="#1A1715" />
<rect x="14" y="79" width="1" height="1" fill="#E5E5E5" />
<rect x="15" y="79" width="1" height="1" fill="#1A1715" />
<rect x="80" y="79" width="1" height="1" fill="#1A1715" />
<rect x="81" y="79" width="1" height="1" fill="#E5E5E5" />
<rect x="82" y="79" width="1" height="1" fill="#1A1715" />
<rect x="14" y="80" width="1" height="1" fill="#1A1715" />
<rect x="15" y="80" width="1" height="1" fill="#E5E5E5" />
<rect x="16" y="80" width="1" height="1" fill="#1A1715" />
<rect x="79" y="80" width="1" height="1" fill="#1A1715" />
<rect x="80" y="80" width="1" height="1" fill="#E5E5E5" />
<rect x="81" y="80" width="1" height="1" fill="#1A1715" />
<rect x="15" y="81" width="1" height="1" fill="#1A1715" />
<rect x="16" y="81" width="1" height="1" fill="#E5E5E5" />
<rect x="17" y="81" width="1" height="1" fill="#1A1715" />
<rect x="78" y="81" width="1" height="1" fill="#1A1715" />
<rect x="79" y="81" width="1" height="1" fill="#E5E5E5" />
<rect x="80" y="81" width="1" height="1" fill="#1A1715" />
<rect x="16" y="82" width="1" height="1" fill="#1A1715" />
<rect x="17" y="82" width="1" height="1" fill="#E5E5E5" />
<rect x="18" y="82" width="1" height="1" fill="#1A1715" />
<rect x="77" y="82" width="1" height="1" fill="#1A1715" />
<rect x="78" y="82" width="1" height="1" fill="#E5E5E5" />
<rect x="79" y="82" width="1" height="1" fill="#1A1715" />
<rect x="17" y="83" width="1" height="1" fill="#1A1715" />
<rect x="18" y="83" width="1" height="1" fill="#E5E5E5" />
<rect x="19" y="83" width="1" height="1" fill="#1A1715" />
<rect x="20" y="83" width="1" height="1" fill="#1A1715" />
<rect x="75" y="83" width="1" height="1" fill="#1A1715" />
<rect x="76" y="83" width="1" height="1" fill="#1A1715" />
<rect x="77" y="83" width="1" height="1" fill="#E5E5E5" />
<rect x="78" y="83" width="1" height="1" fill="#1A1715" />
<rect x="18" y="84" width="1" height="1" fill="#1A1715" />
<rect x="19" y="84" width="1" height="1" fill="#E5E5E5" />
<rect x="20" y="84" width="1" height="1" fill="#E5E5E5" />
<rect x="21" y="84" width="1" height="1" fill="#1A1715" />
<rect x="74" y="84" width="1" height="1" fill="#1A1715" />
<rect x="75" y="84" width="1" height="1" fill="#E5E5E5" />
<rect x="76" y="84" width="1" height="1" fill="#E5E5E5" />
<rect x="77" y="84" width="1" height="1" fill="#1A1715" />
<rect x="19" y="85" width="1" height="1" fill="#1A1715" />
<rect x="20" y="85" width="1" height="1" fill="#1A1715" />
<rect x="21" y="85" width="1" height="1" fill="#E5E5E5" />
<rect x="22" y="85" width="1" height="1" fill="#1A1715" />
<rect x="73" y="85" width="1" height="1" fill="#1A1715" />
<rect x="74" y="85" width="1" height="1" fill="#E5E5E5" />
<rect x="75" y="85" width="1" height="1" fill="#1A1715" />
<rect x="76" y="85" width="1" height="1" fill="#1A1715" />
<rect x="21" y="86" width="1" height="1" fill="#1A1715" />
<rect x="22" y="86" width="1" height="1" fill="#E5E5E5" />
<rect x="23" y="86" width="1" height="1" fill="#1A1715" />
<rect x="24" y="86" width="1" height="1" fill="#1A1715" />
<rect x="72" y="86" width="1" height="1" fill="#1A1715" />
<rect x="73" y="86" width="1" height="1" fill="#E5E5E5" />
<rect x="74" y="86" width="1" height="1" fill="#1A1715" />
<rect x="22" y="87" width="1" height="1" fill="#1A1715" />
<rect x="23" y="87" width="1" height="1" fill="#E5E5E5" />
<rect x="24" y="87" width="1" height="1" fill="#E5E5E5" />
<rect x="25" y="87" width="1" height="1" fill="#1A1715" />
<rect x="70" y="87" width="1" height="1" fill="#1A1715" />
<rect x="71" y="87" width="1" height="1" fill="#1A1715" />
<rect x="72" y="87" width="1" height="1" fill="#E5E5E5" />
<rect x="73" y="87" width="1" height="1" fill="#1A1715" />
<rect x="23" y="88" width="1" height="1" fill="#1A1715" />
<rect x="24" y="88" width="1" height="1" fill="#1A1715" />
<rect x="25" y="88" width="1" height="1" fill="#E5E5E5" />
<rect x="26" y="88" width="1" height="1" fill="#1A1715" />
<rect x="27" y="88" width="1" height="1" fill="#1A1715" />
<rect x="68" y="88" width="1" height="1" fill="#1A1715" />
<rect x="69" y="88" width="1" height="1" fill="#1A1715" />
<rect x="70" y="88" width="1" height="1" fill="#E5E5E5" />
<rect x="71" y="88" width="1" height="1" fill="#E5E5E5" />
<rect x="72" y="88" width="1" height="1" fill="#1A1715" />
<rect x="25" y="89" width="1" height="1" fill="#1A1715" />
<rect x="26" y="89" width="1" height="1" fill="#E5E5E5" />
<rect x="27" y="89" width="1" height="1" fill="#E5E5E5" />
<rect x="28" y="89" width="1" height="1" fill="#1A1715" />
<rect x="29" y="89" width="1" height="1" fill="#1A1715" />
<rect x="66" y="89" width="1" height="1" fill="#1A1715" />
<rect x="67" y="89" width="1" height="1" fill="#1A1715" />
<rect x="68" y="89" width="1" height="1" fill="#E5E5E5" />
<rect x="69" y="89" width="1" height="1" fill="#E5E5E5" />
<rect x="70" y="89" width="1" height="1" fill="#1A1715" />
<rect x="71" y="89" width="1" height="1" fill="#1A1715" />
<rect x="26" y="90" width="1" height="1" fill="#1A1715" />
<rect x="27" y="90" width="1" height="1" fill="#1A1715" />
<rect x="28" y="90" width="1" height="1" fill="#E5E5E5" />
<rect x="29" y="90" width="1" height="1" fill="#E5E5E5" />
<rect x="30" y="90" width="1" height="1" fill="#1A1715" />
<rect x="31" y="90" width="1" height="1" fill="#1A1715" />
<rect x="32" y="90" width="1" height="1" fill="#1A1715" />
<rect x="63" y="90" width="1" height="1" fill="#1A1715" />
<rect x="64" y="90" width="1" height="1" fill="#1A1715" />
<rect x="65" y="90" width="1" height="1" fill="#1A1715" />
<rect x="66" y="90" width="1" height="1" fill="#E5E5E5" />
<rect x="67" y="90" width="1" height="1" fill="#E5E5E5" />
<rect x="68" y="90" width="1" height="1" fill="#1A1715" />
<rect x="69" y="90" width="1" height="1" fill="#1A1715" />
<rect x="28" y="91" width="1" height="1" fill="#1A1715" />
<rect x="29" y="91" width="1" height="1" fill="#1A1715" />
<rect x="30" y="91" width="1" height="1" fill="#E5E5E5" />
<rect x="31" y="91" width="1" height="1" fill="#E5E5E5" />
<rect x="32" y="91" width="1" height="1" fill="#E5E5E5" />
<rect x="33" y="91" width="1" height="1" fill="#1A1715" />
<rect x="34" y="91" width="1" height="1" fill="#1A1715" />
<rect x="35" y="91" width="1" height="1" fill="#1A1715" />
<rect x="60" y="91" width="1" height="1" fill="#1A1715" />
<rect x="61" y="91" width="1" height="1" fill="#1A1715" />
<rect x="62" y="91" width="1" height="1" fill="#1A1715" />
<rect x="63" y="91" width="1" height="1" fill="#E5E5E5" />
<rect x="64" y="91" width="1" height="1" fill="#E5E5E5" />
<rect x="65" y="91" width="1" height="1" fill="#E5E5E5" />
<rect x="66" y="91" width="1" height="1" fill="#1A1715" />
<rect x="67" y="91" width="1" height="1" fill="#1A1715" />
<rect x="30" y="92" width="1" height="1" fill="#1A1715" />
<rect x="31" y="92" width="1" height="1" fill="#1A1715" />
<rect x="32" y="92" width="1" height="1" fill="#1A1715" />
<rect x="33" y="92" width="1" height="1" fill="#E5E5E5" />
<rect x="34" y="92" width="1" height="1" fill="#E5E5E5" />
<rect x="35" y="92" width="1" height="1" fill="#E5E5E5" />
<rect x="36" y="92" width="1" height="1" fill="#1A1715" />
<rect x="37" y="92" width="1" height="1" fill="#1A1715" />
<rect x="38" y="92" width="1" height="1" fill="#1A1715" />
<rect x="39" y="92" width="1" height="1" fill="#1A1715" />
<rect x="40" y="92" width="1" height="1" fill="#1A1715" />
<rect x="55" y="92" width="1" height="1" fill="#1A1715" />
<rect x="56" y="92" width="1" height="1" fill="#1A1715" />
<rect x="57" y="92" width="1" height="1" fill="#1A1715" />
<rect x="58" y="92" width="1" height="1" fill="#1A1715" />
<rect x="59" y="92" width="1" height="1" fill="#1A1715" />
<rect x="60" y="92" width="1" height="1" fill="#E5E5E5" />
<rect x="61" y="92" width="1" height="1" fill="#E5E5E5" />
<rect x="62" y="92" width="1" height="1" fill="#E5E5E5" />
<rect x="63" y="92" width="1" height="1" fill="#1A1715" />
<rect x="64" y="92" width="1" height="1" fill="#1A1715" />
<rect x="65" y="92" width="1" height="1" fill="#1A1715" />
<rect x="33" y="93" width="1" height="1" fill="#1A1715" />
<rect x="34" y="93" width="1" height="1" fill="#1A1715" />
<rect x="35" y="93" width="1" height="1" fill="#1A1715" />
<rect x="36" y="93" width="1" height="1" fill="#E5E5E5" />
<rect x="37" y="93" width="1" height="1" fill="#E5E5E5" />
<rect x="38" y="93" width="1" height="1" fill="#E5E5E5" />
<rect x="39" y="93" width="1" height="1" fill="#E5E5E5" />
<rect x="40" y="93" width="1" height="1" fill="#E5E5E5" />
<rect x="41" y="93" width="1" height="1" fill="#1A1715" />
<rect x="42" y="93" width="1" height="1" fill="#1A1715" />
<rect x="43" y="93" width="1" height="1" fill="#1A1715" />
<rect x="44" y="93" width="1" height="1" fill="#1A1715" />
<rect x="45" y="93" width="1" height="1" fill="#1A1715" />
<rect x="46" y="93" width="1" height="1" fill="#1A1715" />
<rect x="47" y="93" width="1" height="1" fill="#1A1715" />
<rect x="48" y="93" width="1" height="1" fill="#1A1715" />
<rect x="49" y="93" width="1" height="1" fill="#1A1715" />
<rect x="50" y="93" width="1" height="1" fill="#1A1715" />
<rect x="51" y="93" width="1" height="1" fill="#1A1715" />
<rect x="52" y="93" width="1" height="1" fill="#1A1715" />
<rect x="53" y="93" width="1" height="1" fill="#1A1715" />
<rect x="54" y="93" width="1" height="1" fill="#1A1715" />
<rect x="55" y="93" width="1" height="1" fill="#E5E5E5" />
<rect x="56" y="93" width="1" height="1" fill="#E5E5E5" />
<rect x="57" y="93" width="1" height="1" fill="#E5E5E5" />
<rect x="58" y="93" width="1" height="1" fill="#E5E5E5" />
<rect x="59" y="93" width="1" height="1" fill="#E5E5E5" />
<rect x="60" y="93" width="1" height="1" fill="#1A1715" />
<rect x="61" y="93" width="1" height="1" fill="#1A1715" />
<rect x="62" y="93" width="1" height="1" fill="#1A1715" />
<rect x="36" y="94" width="1" height="1" fill="#1A1715" />
<rect x="37" y="94" width="1" height="1" fill="#1A1715" />
<rect x="38" y="94" width="1" height="1" fill="#1A1715" />
<rect x="39" y="94" width="1" height="1" fill="#1A1715" />
<rect x="40" y="94" width="1" height="1" fill="#1A1715" />
<rect x="41" y="94" width="1" height="1" fill="#E5E5E5" />
<rect x="42" y="94" width="1" height="1" fill="#E5E5E5" />
<rect x="43" y="94" width="1" height="1" fill="#E5E5E5" />
<rect x="44" y="94" width="1" height="1" fill="#E5E5E5" />
<rect x="45" y="94" width="1" height="1" fill="#E5E5E5" />
<rect x="46" y="94" width="1" height="1" fill="#E5E5E5" />
<rect x="47" y="94" width="1" height="1" fill="#E5E5E5" />
<rect x="48" y="94" width="1" height="1" fill="#E5E5E5" />
<rect x="49" y="94" width="1" height="1" fill="#E5E5E5" />
<rect x="50" y="94" width="1" height="1" fill="#E5E5E5" />
<rect x="51" y="94" width="1" height="1" fill="#E5E5E5" />
<rect x="52" y="94" width="1" height="1" fill="#E5E5E5" />
<rect x="53" y="94" width="1" height="1" fill="#E5E5E5" />
<rect x="54" y="94" width="1" height="1" fill="#E5E5E5" />
<rect x="55" y="94" width="1" height="1" fill="#1A1715" />
<rect x="56" y="94" width="1" height="1" fill="#1A1715" />
<rect x="57" y="94" width="1" height="1" fill="#1A1715" />
<rect x="58" y="94" width="1" height="1" fill="#1A1715" />
<rect x="59" y="94" width="1" height="1" fill="#1A1715" />
<rect x="41" y="95" width="1" height="1" fill="#1A1715" />
<rect x="42" y="95" width="1" height="1" fill="#1A1715" />
<rect x="43" y="95" width="1" height="1" fill="#1A1715" />
<rect x="44" y="95" width="1" height="1" fill="#1A1715" />
<rect x="45" y="95" width="1" height="1" fill="#1A1715" />
<rect x="46" y="95" width="1" height="1" fill="#1A1715" />
<rect x="47" y="95" width="1" height="1" fill="#1A1715" />
<rect x="48" y="95" width="1" height="1" fill="#1A1715" />
<rect x="49" y="95" width="1" height="1" fill="#1A1715" />
<rect x="50" y="95" width="1" height="1" fill="#1A1715" />
<rect x="51" y="95" width="1" height="1" fill="#1A1715" />
<rect x="52" y="95" width="1" height="1" fill="#1A1715" />
<rect x="53" y="95" width="1" height="1" fill="#1A1715" />
<rect x="54" y="95" width="1" height="1" fill="#1A1715" />
</svg>