<?xml version="1.0" encoding="UTF-8" ?>
<svg version="1.1" width="96" height="96" xmlns="http://www.w3.org/2000/svg" shape-rendering="crispEdges">
<rect x="42" y="15" width="1" height="1" fill="#1A1715" />
<rect x="43" y="15" width="1" height="1" fill="#1A1715" />
<rect x="44" y="15" width="1" height="1" fill="#1A1715" />
<rect x="45" y="15" width="1" height="1" fill="#1A1715" />
<rect x="46" y="15" width="1" height="1" fill="#1A1715" />
<rect x="47" y="15" width="1" height="1" fill="#1A1715" />
<rect x="48" y="15" width="1" height="1" fill="#1A1715" />
<rect x="49" y="15" width="1" height="1" fill="#1A1715" />
<rect x="50" y="15" width="1" height="1" fill="#1A1715" />
<rect x="51" y="15" width="1" height="1" fill="#1A1715" />
<rect x="52" y="15" width="1" height="1" fill="#1A1715" />
<rect x="53" y="15" width="1" height="1" fill="#1A1715" />
<rect x="38" y="16" width="1" height="1" fill="#1A1715" />
<rect x="39" y="16" width="1" height="1" fill="#1A1715" />
<rect x="40" y="16" width="1" height="1" fill="#1A1715" />
<rect x="41" y="16" width="1" height="1" fill="#1A1715" />
<rect x="42" y="16" width="1" height="1" fill="#FFFFFF" />
<rect x="43" y="16" width="1" height="1" fill="#FFFFFF" />
<rect x="44" y="16" width="1" height="1" fill="#FFFFFF" />
<rect x="45" y="16" width="1" height="1" fill="#FFFFFF" />
<rect x="46" y="16" width="1" height="1" fill="#FFFFFF" />
<rect x="47" y="16" width="1" height="1" fill="#FFFFFF" />
<rect x="48" y="16" width="1" height="1" fill="#FFFFFF" />
<rect x="49" y="16" width="1" height="1" fill="#FFFFFF" />
<rect x="50" y="16" width="1" height="1" fill="#FFFFFF" />
<rect x="51" y="16" width="1" height="1" fill="#FFFFFF" />
<rect x="52" y="16" width="1" height="1" fill="#FFFFFF" />
<rect x="53" y="16" width="1" height="1" fill="#FFFFFF" />
<rect x="54" y="16" width="1" height="1" fill="#1A1715" />
<rect x="55" y="16" width="1" height="1" fill="#1A1715" />
<rect x="56" y="16" width="1" height="1" fill="#1A1715" />
<rect x="57" y="16" width="1" height="1" fill="#1A1715" />
<rect x="36" y="17" width="1" height="1" fill="#1A1715" />
<rect x="37" y="17" width="1" height="1" fill="#1A1715" />
<rect x="38" y="17" width="1" height="1" fill="#FFFFFF" />
<rect x="39" y="17" width="1" height="1" fill="#FFFFFF" />
<rect x="40" y="17" width="1" height="1" fill="#FFFFFF" />
<rect x="41" y="17" width="1" height="1" fill="#FFFFFF" />
<rect x="42" y="17" width="1" height="1" fill="#1A1715" />
<rect x="43" y="17" width="1" height="1" fill="#1A1715" />
<rect x="44" y="17" width="1" height="1" fill="#1A1715" />
<rect x="45" y="17" width="1" height="1" fill="#1A1715" />
<rect x="46" y="17" width="1" height="1" fill="#1A1715" />
<rect x="47" y="17" width="1" height="1" fill="#1A1715" />
<rect x="48" y="17" width="1" height="1" fill="#1A1715" />
<rect x="49" y="17" width="1" height="1" fill="#1A1715" />
<rect x="50" y="17" width="1" height="1" fill="#1A1715" />
<rect x="51" y="17" width="1" height="1" fill="#1A1715" />
<rect x="52" y="17" width="1" height="1" fill="#1A1715" />
<rect x="53" y="17" width="1" height="1" fill="#1A1715" />
<rect x="54" y="17" width="1" height="1" fill="#FFFFFF" />
<rect x="55" y="17" width="1" height="1" fill="#FFFFFF" />
<rect x="56" y="17" width="1" height="1" fill="#FFFFFF" />
<rect x="57" y="17" width="1" height="1" fill="#FFFFFF" />
<rect x="58" y="17" width="1" height="1" fill="#1A1715" />
<rect x="59" y="17" width="1" height="1" fill="#1A1715" />
<rect x="34" y="18" width="1" height="1" fill="#1A1715" />
<rect x="35" y="18" width="1" height="1" fill="#1A1715" />
<rect x="36" y="18" width="1" height="1" fill="#FFFFFF" />
<rect x="37" y="18" width="1" height="1" fill="#FFFFFF" />
<rect x="38" y="18" width="1" height="1" fill="#1A1715" />
<rect x="39" y="18" width="1" height="1" fill="#1A1715" />
<rect x="40" y="18" width="1" height="1" fill="#1A1715" />
<rect x="41" y="18" width="1" height="1" fill="#1A1715" />
<rect x="54" y="18" width="1" height="1" fill="#1A1715" />
<rect x="55" y="18" width="1" height="1" fill="#1A1715" />
<rect x="56" y="18" width="1" height="1" fill="#1A1715" />
<rect x="57" y="18" width="1" height="1" fill="#1A1715" />
<rect x="58" y="18" width="1" height="1" fill="#FFFFFF" />
<rect x="59" y="18" width="1" height="1" fill="#FFFFFF" />
<rect x="60" y="18" width="1" height="1" fill="#1A1715" />
<rect x="61" y="18" width="1" height="1" fill="#1A1715" />
<rect x="32" y="19" width="1" height="1" fill="#1A1715" />
<rect x="33" y="19" width="1" height="1" fill="#1A1715" />
<rect x="34" y="19" width="1" height="1" fill="#FFFFFF" />
<rect x="35" y="19" width="1" height="1" fill="#FFFFFF" />
<rect x="36" y="19" width="1" height="1" fill="#1A1715" />
<rect x="37" y="19" width="1" height="1" fill="#1A1715" />
<rect x="58" y="19" width="1" height="1" fill="#1A1715" />
<rect x="59" y="19" width="1" height="1" fill="#1A1715" />
<rect x="60" y="19" width="1" height="1" fill="#FFFFFF" />
<rect x="61" y="19" width="1" height="1" fill="#FFFFFF" />
<rect x="62" y="19" width="1" height="1" fill="#1A1715" />
<rect x="63" y="19" width="1" height="1" fill="#1A1715" />
<rect x="30" y="20" width="1" height="1" fill="#1A1715" />
<rect x="31" y="20" width="1" height="1" fill="#1A1715" />
<rect x="32" y="20" width="1" height="1" fill="#FFFFFF" />
<rect x="33" y="20" width="1" height="1" fill="#FFFFFF" />
<rect x="34" y="20" width="1" height="1" fill="#1A1715" />
<rect x="35" y="20" width="1" height="1" fill="#1A1715" />
<rect x="60" y="20" width="1" height="1" fill="#1A1715" />
<rect x="61" y="20" width="1" height="1" fill="#1A1715" />
<rect x="62" y="20" width="1" height="1" fill="#FFFFFF" />
<rect x="63" y="20" width="1" height="1" fill="#FFFFFF" />
<rect x="64" y="20" width="1" height="1" fill="#1A1715" />
<rect x="65" y="20" width="1" height="1" fill="#1A1715" />
<rect x="29" y="21" width="1" height="1" fill="#1A1715" />
<rect x="30" y="21" width="1" height="1" fill="#FFFFFF" />
<rect x="31" y="21" width="1" height="1" fill="#FFFFFF" />
<rect x="32" y="21" width="1" height="1" fill="#1A1715" />
<rect x="33" y="21" width="1" height="1" fill="#1A1715" />
<rect x="62" y="21" width="1" height="1" fill="#1A1715" />
<rect x="63" y="21" width="1" height="1" fill="#1A1715" />
<rect x="64" y="21" width="1" height="1" fill="#FFFFFF" />
<rect x="65" y="21" width="1" height="1" fill="#FFFFFF" />
<rect x="66" y="21" width="1" height="1" fill="#1A1715" />
<rect x="28" y="22" width="1" height="1" fill="#1A1715" />
<rect x="29" y="22" width="1" height="1" fill="#FFFFFF" />
<rect x="30" y="22" width="1" height="1" fill="#1A1715" />
<rect x="31" y="22" width="1" height="1" fill="#1A1715" />
<rect x="64" y="22" width="1" height="1" fill="#1A1715" />
<rect x="65" y="22" width="1" height="1" fill="#1A1715" />
<rect x="66" y="22" width="1" height="1" fill="#FFFFFF" />
<rect x="67" y="22" width="1" height="1" fill="#1A1715" />
<rect x="26" y="23" width="1" height="1" fill="#1A1715" />
<rect x="27" y="23" width="1" height="1" fill="#1A1715" />
<rect x="28" y="23" width="1" height="1" fill="#FFFFFF" />
<rect x="29" y="23" width="1" height="1" fill="#1A1715" />
<rect x="66" y="23" width="1" height="1" fill="#1A1715" />
<rect x="67" y="23" width="1" height="1" fill="#FFFFFF" />
<rect x="68" y="23" width="1" height="1" fill="#1A1715" />
<rect x="69" y="23" width="1" height="1" fill="#1A1715" />
<rect x="25" y="24" width="1" height="1" fill="#1A1715" />
<rect x="26" y="24" width="1" height="1" fill="#FFFFFF" />
<rect x="27" y="24" width="1" height="1" fill="#FFFFFF" />
<rect x="28" y="24" width="1" height="1" fill="#1A1715" />
<rect x="67" y="24" width="1" height="1" fill="#1A1715" />
<rect x="68" y="24" width="1" height="1" fill="#FFFFFF" />
<rect x="69" y="24" width="1" height="1" fill="#FFFFFF" />
<rect x="70" y="24" width="1" height="1" fill="#1A1715" />
<rect x="24" y="25" width="1" height="1" fill="#1A1715" />
<rect x="25" y="25" width="1" height="1" fill="#FFFFFF" />
<rect x="26" y="25" width="1" height="1" fill="#1A1715" />
<rect x="27" y="25" width="1" height="1" fill="#1A1715" />
<rect x="68" y="25" width="1" height="1" fill="#1A1715" />
<rect x="69" y="25" width="1" height="1" fill="#1A1715" />
<rect x="70" y="25" width="1" height="1" fill="#FFFFFF" />
<rect x="71" y="25" width="1" height="1" fill="#1A1715" />
<rect x="23" y="26" width="1" height="1" fill="#1A1715" />
<rect x="24" y="26" width="1" height="1" fill="#FFFFFF" />
<rect x="25" y="26" width="1" height="1" fill="#1A1715" />
<rect x="70" y="26" width="1" height="1" fill="#1A1715" />
<rect x="71" y="26" width="1" height="1" fill="#FFFFFF" />
<rect x="72" y="26" width="1" height="1" fill="#1A1715" />
<rect x="23" y="27" width="1" height="1" fill="#1A1715" />
<rect x="24" y="27" width="1" height="1" fill="#FFFFFF" />
<rect x="25" y="27" width="1" height="1" fill="#1A1715" />
<rect x="70" y="27" width="1" height="1" fill="#1A1715" />
<rect x="71" y="27" width="1" height="1" fill="#FFFFFF" />
<rect x="72" y="27" width="1" height="1" fill="#1A1715" />
<rect x="22" y="28" width="1" height="1" fill="#1A1715" />
<rect x="23" y="28" width="1" height="1" fill="#FFFFFF" />
<rect x="24" y="28" width="1" height="1" fill="#1A1715" />
<rect x="71" y="28" width="1" height="1" fill="#1A1715" />
<rect x="72" y="28" width="1" height="1" fill="#FFFFFF" />
<rect x="73" y="28" width="1" height="1" fill="#1A1715" />
<rect x="21" y="29" width="1" height="1" fill="#1A1715" />
<rect x="22" y="29" width="1" height="1" fill="#FFFFFF" />
<rect x="23" y="29" width="1" height="1" fill="#1A1715" />
<rect x="72" y="29" width="1" height="1" fill="#1A1715" />
<rect x="73" y="29" width="1" height="1" fill="#FFFFFF" />
<rect x="74" y="29" width="1" height="1" fill="#1A1715" />
<rect x="20" y="30" width="1" height="1" fill="#1A1715" />
<rect x="21" y="30" width="1" height="1" fill="#FFFFFF" />
<rect x="22" y="30" width="1" height="1" fill="#1A1715" />
<rect x="73" y="30" width="1" height="1" fill="#1A1715" />
<rect x="74" y="30" width="1" height="1" fill="#FFFFFF" />
<rect x="75" y="30" width="1" height="1" fill="#1A1715" />
<rect x="20" y="31" width="1" height="1" fill="#1A1715" />
<rect x="21" y="31" width="1" height="1" fill="#FFFFFF" />
<rect x="22" y="31" width="1" height="1" fill="#1A1715" />
<rect x="73" y="31" width="1" height="1" fill="#1A1715" />
<rect x="74" y="31" width="1" height="1" fill="#FFFFFF" />
<rect x="75" y="31" width="1" height="1" fill="#1A1715" />
<rect x="19" y="32" width="1" height="1" fill="#1A1715" />
<rect x="20" y="32" width="1" height="1" fill="#FFFFFF" />
<rect x="21" y="32" width="1" height="1" fill="#1A1715" />
<rect x="74" y="32" width="1" height="1" fill="#1A1715" />
<rect x="75" y="32" width="1" height="1" fill="#FFFFFF" />
<rect x="76" y="32" width="1" height="1" fill="#1A1715" />
<rect x="19" y="33" width="1" height="1" fill="#1A1715" />
<rect x="20" y="33" width="1" height="1" fill="#FFFFFF" />
<rect x="21" y="33" width="1" height="1" fill="#1A1715" />
<rect x="74" y="33" width="1" height="1" fill="#1A1715" />
<rect x="75" y="33" width="1" height="1" fill="#FFFFFF" />
<rect x="76" y="33" width="1" height="1" fill="#1A1715" />
<rect x="18" y="34" width="1" height="1" fill="#1A1715" />
<rect x="19" y="34" width="1" height="1" fill="#FFFFFF" />
<rect x="20" y="34" width="1" height="1" fill="#1A1715" />
<rect x="75" y="34" width="1" height="1" fill="#1A1715" />
<rect x="76" y="34" width="1" height="1" fill="#FFFFFF" />
<rect x="77" y="34" width="1" height="1" fill="#1A1715" />
<rect x="18" y="35" width="1" height="1" fill="#1A1715" />
<rect x="19" y="35" width="1" height="1" fill="#FFFFFF" />
<rect x="20" y="35" width="1" height="1" fill="#1A1715" />
<rect x="75" y="35" width="1" height="1" fill="#1A1715" />
<rect x="76" y="35" width="1" height="1" fill="#FFFFFF" />
<rect x="77" y="35" width="1" height="1" fill="#1A1715" />
<rect x="17" y="36" width="1" height="1" fill="#1A1715" />
<rect x="18" y="36" width="1" height="1" fill="#FFFFFF" />
<rect x="19" y="36" width="1" height="1" fill="#1A1715" />
<rect x="76" y="36" width="1" height="1" fill="#1A1715" />
<rect x="77" y="36" width="1" height="1" fill="#FFFFFF" />
<rect x="78" y="36" width="1" height="1" fill="#1A1715" />
<rect x="17" y="37" width="1" height="1" fill="#1A1715" />
<rect x="18" y="37" width="1" height="1" fill="#FFFFFF" />
<rect x="19" y="37" width="1" height="1" fill="#1A1715" />
<rect x="76" y="37" width="1" height="1" fill="#1A1715" />
<rect x="77" y="37" width="1" height="1" fill="#FFFFFF" />
<rect x="78" y="37" width="1" height="1" fill="#1A1715" />
<rect x="16" y="38" width="1" height="1" fill="#1A1715" />
<rect x="17" y="38" width="1" height="1" fill="#FFFFFF" />
<rect x="18" y="38" width="1" height="1" fill="#1A1715" />
<rect x="77" y="38" width="1" height="1" fill="#1A1715" />
<rect x="78" y="38" width="1" height="1" fill="#FFFFFF" />
<rect x="79" y="38" width="1" height="1" fill="#1A1715" />
<rect x="16" y="39" width="1" height="1" fill="#1A1715" />
<rect x="17" y="39" width="1" height="1" fill="#FFFFFF" />
<rect x="18" y="39" width="1" height="1" fill="#1A1715" />
<rect x="77" y="39" width="1" height="1" fill="#1A1715" />
<rect x="78" y="39" width="1" height="1" fill="#FFFFFF" />
<rect x="79" y="39" width="1" height="1" fill="#1A1715" />
<rect x="16" y="40" width="1" height="1" fill="#1A1715" />
<rect x="17" y="40" width="1" height="1" fill="#FFFFFF" />
<rect x="18" y="40" width="1" height="1" fill="#1A1715" />
<rect x="77" y="40" width="1" height="1" fill="#1A1715" />
<rect x="78" y="40" width="1" height="1" fill="#FFFFFF" />
<rect x="79" y="40" width="1" height="1" fill="#1A1715" />
<rect x="16" y="41" width="1" height="1" fill="#1A1715" />
<rect x="17" y="41" width="1" height="1" fill="#FFFFFF" />
<rect x="18" y="41" width="1" height="1" fill="#1A1715" />
<rect x="77" y="41" width="1" height="1" fill="#1A1715" />
<rect x="78" y="41" width="1" height="1" fill="#FFFFFF" />
<rect x="79" y="41" width="1" height="1" fill="#1A1715" />
<rect x="15" y="42" width="1" height="1" fill="#1A1715" />
<rect x="16" y="42" width="1" height="1" fill="#FFFFFF" />
<rect x="17" y="42" width="1" height="1" fill="#1A1715" />
<rect x="78" y="42" width="1" height="1" fill="#1A1715" />
<rect x="79" y="42" width="1" height="1" fill="#FFFFFF" />
<rect x="80" y="42" width="1" height="1" fill="#1A1715" />
<rect x="15" y="43" width="1" height="1" fill="#1A1715" />
<rect x="16" y="43" width="1" height="1" fill="#FFFFFF" />
<rect x="17" y="43" width="1" height="1" fill="#1A1715" />
<rect x="78" y="43" width="1" height="1" fill="#1A1715" />
<rect x="79" y="43" width="1" height="1" fill="#FFFFFF" />
<rect x="80" y="43" width="1" height="1" fill="#1A1715" />
<rect x="15" y="44" width="1" height="1" fill="#1A1715" />
<rect x="16" y="44" width="1" height="1" fill="#FFFFFF" />
<rect x="17" y="44" width="1" height="1" fill="#1A1715" />
<rect x="78" y="44" width="1" height="1" fill="#1A1715" />
<rect x="79" y="44" width="1" height="1" fill="#FFFFFF" />
<rect x="80" y="44" width="1" height="1" fill="#1A1715" />
<rect x="15" y="45" width="1" height="1" fill="#1A1715" />
<rect x="16" y="45" width="1" height="1" fill="#FFFFFF" />
<rect x="17" y="45" width="1" height="1" fill="#1A1715" />
<rect x="78" y="45" width="1" height="1" fill="#1A1715" />
<rect x="79" y="45" width="1" height="1" fill="#FFFFFF" />
<rect x="80" y="45" width="1" height="1" fill="#1A1715" />
<rect x="15" y="46" width="1" height="1" fill="#1A1715" />
<rect x="16" y="46" width="1" height="1" fill="#FFFFFF" />
<rect x="17" y="46" width="1" height="1" fill="#1A1715" />
<rect x="78" y="46" width="1" height="1" fill="#1A1715" />
<rect x="79" y="46" width="1" height="1" fill="#FFFFFF" />
<rect x="80" y="46" width="1" height="1" fill="#1A1715" />
<rect x="15" y="47" width="1" height="1" fill="#1A1715" />
<rect x="16" y="47" width="1" height="1" fill="#FFFFFF" />
<rect x="17" y="47" width="1" height="1" fill="#1A1715" />
<rect x="78" y="47" width="1" height="1" fill="#1A1715" />
<rect x="79" y="47" width="1" height="1" fill="#FFFFFF" />
<rect x="80" y="47" width="1" height="1" fill="#1A1715" />
<rect x="15" y="48" width="1" height="1" fill="#1A1715" />
<rect x="16" y="48" width="1" height="1" fill="#FFFFFF" />
<rect x="17" y="48" width="1" height="1" fill="#1A1715" />
<rect x="78" y="48" width="1" height="1" fill="#1A1715" />
<rect x="79" y="48" width="1" height="1" fill="#FFFFFF" />
<rect x="80" y="48" width="1" height="1" fill="#1A1715" />
<rect x="15" y="49" width="1" height="1" fill="#1A1715" />
<rect x="16" y="49" width="1" height="1" fill="#FFFFFF" />
<rect x="17" y="49" width="1" height="1" fill="#1A1715" />
<rect x="78" y="49" width="1" height="1" fill="#1A1715" />
<rect x="79" y="49" width="1" height="1" fill="#FFFFFF" />
<rect x="80" y="49" width="1" height="1" fill="#1A1715" />
<rect x="15" y="50" width="1" height="1" fill="#1A1715" />
<rect x="16" y="50" width="1" height="1" fill="#FFFFFF" />
<rect x="17" y="50" width="1" height="1" fill="#1A1715" />
<rect x="78" y="50" width="1" height="1" fill="#1A1715" />
<rect x="79" y="50" width="1" height="1" fill="#FFFFFF" />
<rect x="80" y="50" width="1" height="1" fill="#1A1715" />
<rect x="15" y="51" width="1" height="1" fill="#1A1715" />
<rect x="16" y="51" width="1" height="1" fill="#FFFFFF" />
<rect x="17" y="51" width="1" height="1" fill="#1A1715" />
<rect x="78" y="51" width="1" height="1" fill="#1A1715" />
<rect x="79" y="51" width="1" height="1" fill="#FFFFFF" />
<rect x="80" y="51" width="1" height="1" fill="#1A1715" />
<rect x="15" y="52" width="1" height="1" fill="#1A1715" />
<rect x="16" y="52" width="1" height="1" fill="#FFFFFF" />
<rect x="17" y="52" width="1" height="1" fill="#1A1715" />
<rect x="78" y="52" width="1" height="1" fill="#1A1715" />
<rect x="79" y="52" width="1" height="1" fill="#FFFFFF" />
<rect x="80" y="52" width="1" height="1" fill="#1A1715" />
<rect x="15" y="53" width="1" height="1" fill="#1A1715" />
<rect x="16" y="53" width="1" height="1" fill="#FFFFFF" />
<rect x="17" y="53" width="1" height="1" fill="#1A1715" />
<rect x="78" y="53" width="1" height="1" fill="#1A1715" />
<rect x="79" y="53" width="1" height="1" fill="#FFFFFF" />
<rect x="80" y="53" width="1" height="1" fill="#1A1715" />
<rect x="16" y="54" width="1" height="1" fill="#1A1715" />
<rect x="17" y="54" width="1" height="1" fill="#FFFFFF" />
<rect x="18" y="54" width="1" height="1" fill="#1A1715" />
<rect x="77" y="54" width="1" height="1" fill="#1A1715" />
<rect x="78" y="54" width="1" height="1" fill="#FFFFFF" />
<rect x="79" y="54" width="1" height="1" fill="#1A1715" />
<rect x="16" y="55" width="1" height="1" fill="#1A1715" />
<rect x="17" y="55" width="1" height="1" fill="#FFFFFF" />
<rect x="18" y="55" width="1" height="1" fill="#1A1715" />
<rect x="77" y="55" width="1" height="1" fill="#1A1715" />
<rect x="78" y="55" width="1" height="1" fill="#FFFFFF" />
<rect x="79" y="55" width="1" height="1" fill="#1A1715" />
<rect x="16" y="56" width="1" height="1" fill="#1A1715" />
<rect x="17" y="56" width="1" height="1" fill="#FFFFFF" />
<rect x="18" y="56" width="1" height="1" fill="#1A1715" />
<rect x="77" y="56" width="1" height="1" fill="#1A1715" />
<rect x="78" y="56" width="1" height="1" fill="#FFFFFF" />
<rect x="79" y="56" width="1" height="1" fill="#1A1715" />
<rect x="16" y="57" width="1" height="1" fill="#1A1715" />
<rect x="17" y="57" width="1" height="1" fill="#FFFFFF" />
<rect x="18" y="57" width="1" height="1" fill="#1A1715" />
<rect x="77" y="57" width="1" height="1" fill="#1A1715" />
<rect x="78" y="57" width="1" height="1" fill="#FFFFFF" />
<rect x="79" y="57" width="1" height="1" fill="#1A1715" />
<rect x="17" y="58" width="1" height="1" fill="#1A1715" />
<rect x="18" y="58" width="1" height="1" fill="#FFFFFF" />
<rect x="19" y="58" width="1" height="1" fill="#1A1715" />
<rect x="76" y="58" width="1" height="1" fill="#1A1715" />
<rect x="77" y="58" width="1" height="1" fill="#FFFFFF" />
<rect x="78" y="58" width="1" height="1" fill="#1A1715" />
<rect x="17" y="59" width="1" height="1" fill="#1A1715" />
<rect x="18" y="59" width="1" height="1" fill="#FFFFFF" />
<rect x="19" y="59" width="1" height="1" fill="#1A1715" />
<rect x="76" y="59" width="1" height="1" fill="#1A1715" />
<rect x="77" y="59" width="1" height="1" fill="#FFFFFF" />
<rect x="78" y="59" width="1" height="1" fill="#1A1715" />
<rect x="18" y="60" width="1" height="1" fill="#1A1715" />
<rect x="19" y="60" width="1" height="1" fill="#FFFFFF" />
<rect x="20" y="60" width="1" height="1" fill="#1A1715" />
<rect x="75" y="60" width="1" height="1" fill="#1A1715" />
<rect x="76" y="60" width="1" height="1" fill="#FFFFFF" />
<rect x="77" y="60" width="1" height="1" fill="#1A1715" />
<rect x="18" y="61" width="1" height="1" fill="#1A1715" />
<rect x="19" y="61" width="1" height="1" fill="#FFFFFF" />
<rect x="20" y="61" width="1" height="1" fill="#1A1715" />
<rect x="75" y="61" width="1" height="1" fill="#1A1715" />
<rect x="76" y="61" width="1" height="1" fill="#FFFFFF" />
<rect x="77" y="61" width="1" height="1" fill="#1A1715" />
<rect x="19" y="62" width="1" height="1" fill="#1A1715" />
<rect x="20" y="62" width="1" height="1" fill="#FFFFFF" />
<rect x="21" y="62" width="1" height="1" fill="#1A1715" />
<rect x="74" y="62" width="1" height="1" fill="#1A1715" />
<rect x="75" y="62" width="1" height="1" fill="#FFFFFF" />
<rect x="76" y="62" width="1" height="1" fill="#1A1715" />
<rect x="19" y="63" width="1" height="1" fill="#1A1715" />
<rect x="20" y="63" width="1" height="1" fill="#FFFFFF" />
<rect x="21" y="63" width="1" height="1" fill="#1A1715" />
<rect x="74" y="63" width="1" height="1" fill="#1A1715" />
<rect x="75" y="63" width="1" height="1" fill="#FFFFFF" />
<rect x="76" y="63" width="1" height="1" fill="#1A1715" />
<rect x="20" y="64" width="1" height="1" fill="#1A1715" />
<rect x="21" y="64" width="1" height="1" fill="#FFFFFF" />
<rect x="22" y="64" width="1" height="1" fill="#1A1715" />
<rect x="73" y="64" width="1" height="1" fill="#1A1715" />
<rect x="74" y="64" width="1" height="1" fill="#FFFFFF" />
<rect x="75" y="64" width="1" height="1" fill="#1A1715" />
<rect x="20" y="65" width="1" height="1" fill="#1A1715" />
<rect x="21" y="65" width="1" height="1" fill="#FFFFFF" />
<rect x="22" y="65" width="1" height="1" fill="#1A1715" />
<rect x="73" y="65" width="1" height="1" fill="#1A1715" />
<rect x="74" y="65" width="1" height="1" fill="#FFFFFF" />
<rect x="75" y="65" width="1" height="1" fill="#1A1715" />
<rect x="21" y="66" width="1" height="1" fill="#1A1715" />
<rect x="22" y="66" width="1" height="1" fill="#FFFFFF" />
<rect x="23" y="66" width="1" height="1" fill="#1A1715" />
<rect x="72" y="66" width="1" height="1" fill="#1A1715" />
<rect x="73" y="66" width="1" height="1" fill="#FFFFFF" />
<rect x="74" y="66" width="1" height="1" fill="#1A1715" />
<rect x="22" y="67" width="1" height="1" fill="#1A1715" />
<rect x="23" y="67" width="1" height="1" fill="#FFFFFF" />
<rect x="24" y="67" width="1" height="1" fill="#1A1715" />
<rect x="71" y="67" width="1" height="1" fill="#1A1715" />
<rect x="72" y="67" width="1" height="1" fill="#FFFFFF" />
<rect x="73" y="67" width="1" height="1" fill="#1A1715" />
<rect x="23" y="68" width="1" height="1" fill="#1A1715" />
<rect x="24" y="68" width="1" height="1" fill="#FFFFFF" />
<rect x="25" y="68" width="1" height="1" fill="#1A1715" />
<rect x="70" y="68" width="1" height="1" fill="#1A1715" />
<rect x="71" y="68" width="1" height="1" fill="#FFFFFF" />
<rect x="72" y="68" width="1" height="1" fill="#1A1715" />
<rect x="23" y="69" width="1" height="1" fill="#1A1715" />
<rect x="24" y="69" width="1" height="1" fill="#FFFFFF" />
<rect x="25" y="69" width="1" height="1" fill="#1A1715" />
<rect x="70" y="69" width="1" height="1" fill="#1A1715" />
<rect x="71" y="69" width="1" height="1" fill="#FFFFFF" />
<rect x="72" y="69" width="1" height="1" fill="#1A1715" />
<rect x="24" y="70" width="1" height="1" fill="#1A1715" />
<rect x="25" y="70" width="1" height="1" fill="#FFFFFF" />
<rect x="26" y="70" width="1" height="1" fill="#1A1715" />
<rect x="27" y="70" width="1" height="1" fill="#1A1715" />
<rect x="68" y="70" width="1" height="1" fill="#1A1715" />
<rect x="69" y="70" width="1" height="1" fill="#1A1715" />
<rect x="70" y="70" width="1" height="1" fill="#FFFFFF" />
<rect x="71" y="70" width="1" height="1" fill="#1A1715" />
<rect x="25" y="71" width="1" height="1" fill="#1A1715" />
<rect x="26" y="71" width="1" height="1" fill="#FFFFFF" />
<rect x="27" y="71" width="1" height="1" fill="#FFFFFF" />
<rect x="28" y="71" width="1" height="1" fill="#1A1715" />
<rect x="67" y="71" width="1" height="1" fill="#1A1715" />
<rect x="68" y="71" width="1" height="1" fill="#FFFFFF" />
<rect x="69" y="71" width="1" height="1" fill="#FFFFFF" />
<rect x="70" y="71" width="1" height="1" fill="#1A1715" />
<rect x="26" y="72" width="1" height="1" fill="#1A1715" />
<rect x="27" y="72" width="1" height="1" fill="#1A1715" />
<rect x="28" y="72" width="1" height="1" fill="#FFFFFF" />
<rect x="29" y="72" width="1" height="1" fill="#1A1715" />
<rect x="66" y="72" width="1" height="1" fill="#1A1715" />
<rect x="67" y="72" width="1" height="1" fill="#FFFFFF" />
<rect x="68" y="72" width="1" height="1" fill="#1A1715" />
<rect x="69" y="72" width="1" height="1" fill="#1A1715" />
<rect x="28" y="73" width="1" height="1" fill="#1A1715" />
<rect x="29" y="73" width="1" height="1" fill="#FFFFFF" />
<rect x="30" y="73" width="1" height="1" fill="#1A1715" />
<rect x="31" y="73" width="1" height="1" fill="#1A1715" />
<rect x="64" y="73" width="1" height="1" fill="#1A1715" />
<rect x="65" y="73" width="1" height="1" fill="#1A1715" />
<rect x="66" y="73" width="1" height="1" fill="#FFFFFF" />
<rect x="67" y="73" width="1" height="1" fill="#1A1715" />
<rect x="29" y="74" width="1" height="1" fill="#1A1715" />
<rect x="30" y="74" width="1" height="1" fill="#FFFFFF" />
<rect x="31" y="74" width="1" height="1" fill="#FFFFFF" />
<rect x="32" y="74" width="1" height="1" fill="#1A1715" />
<rect x="33" y="74" width="1" height="1" fill="#1A1715" />
<rect x="62" y="74" width="1" height="1" fill="#1A1715" />
<rect x="63" y="74" width="1" height="1" fill="#1A1715" />
<rect x="64" y="74" width="1" height="1" fill="#FFFFFF" />
<rect x="65" y="74" width="1" height="1" fill="#FFFFFF" />
<rect x="66" y="74" width="1" height="1" fill="#1A1715" />
<rect x="30" y="75" width="1" height="1" fill="#1A1715" />
<rect x="31" y="75" width="1" height="1" fill="#1A1715" />
<rect x="32" y="75" width="1" height="1" fill="#FFFFFF" />
<rect x="33" y="75" width="1" height="1" fill="#FFFFFF" />
<rect x="34" y="75" width="1" height="1" fill="#1A1715" />
<rect x="35" y="75" width="1" height="1" fill="#1A1715" />
<rect x="60" y="75" width="1" height="1" fill="#1A1715" />
<rect x="61" y="75" width="1" height="1" fill="#1A1715" />
<rect x="62" y="75" width="1" height="1" fill="#FFFFFF" />
<rect x="63" y="75" width="1" height="1" fill="#FFFFFF" />
<rect x="64" y="75" width="1" height="1" fill="#1A1715" />
<rect x="65" y="75" width="1" height="1" fill="#1A1715" />
<rect x="32" y="76" width="1" height="1" fill="#1A1715" />
<rect x="33" y="76" width="1" height="1" fill="#1A1715" />
<rect x="34" y="76" width="1" height="1" fill="#FFFFFF" />
<rect x="35" y="76" width="1" height="1" fill="#FFFFFF" />
<rect x="36" y="76" width="1" height="1" fill="#1A1715" />
<rect x="37" y="76" width="1" height="1" fill="#1A1715" />
<rect x="58" y="76" width="1" height="1" fill="#1A1715" />
<rect x="59" y="76" width="1" height="1" fill="#1A1715" />
<rect x="60" y="76" width="1" height="1" fill="#FFFFFF" />
<rect x="61" y="76" width="1" height="1" fill="#FFFFFF" />
<rect x="62" y="76" width="1" height="1" fill="#1A1715" />
<rect x="63" y="76" width="1" height="1" fill="#1A1715" />
<rect x="34" y="77" width="1" height="1" fill="#1A1715" />
<rect x="35" y="77" width="1" height="1" fill="#1A1715" />
<rect x="36" y="77" width="1" height="1" fill="#FFFFFF" />
<rect x="37" y="77" width="1" height="1" fill="#FFFFFF" />
<rect x="38" y="77" width="1" height="1" fill="#1A1715" />
<rect x="39" y="77" width="1" height="1" fill="#1A1715" />
<rect x="40" y="77" width="1" height="1" fill="#1A1715" />
<rect x="41" y="77" width="1" height="1" fill="#1A1715" />
<rect x="54" y="77" width="1" height="1" fill="#1A1715" />
<rect x="55" y="77" width="1" height="1" fill="#1A1715" />
<rect x="56" y="77" width="1" height="1" fill="#1A1715" />
<rect x="57" y="77" width="1" height="1" fill="#1A1715" />
<rect x="58" y="77" width="1" height="1" fill="#FFFFFF" />
<rect x="59" y="77" width="1" height="1" fill="#FFFFFF" />
<rect x="60" y="77" width="1" height="1" fill="#1A1715" />
<rect x="61" y="77" width="1" height="1" fill="#1A1715" />
<rect x="36" y="78" width="1" height="1" fill="#1A1715" />
<rect x="37" y="78" width="1" height="1" fill="#1A1715" />
<rect x="38" y="78" width="1" height="1" fill="#FFFFFF" />
<rect x="39" y="78" width="1" height="1" fill="#FFFFFF" />
<rect x="40" y="78" width="1" height="1" fill="#FFFFFF" />
<rect x="41" y="78" width="1" height="1" fill="#FFFFFF" />
<rect x="42" y="78" width="1" height="1" fill="#1A1715" />
<rect x="43" y="78" width="1" height="1" fill="#1A1715" />
<rect x="44" y="78" width="1" height="1" fill="#1A1715" />
<rect x="45" y="78" width="1" height="1" fill="#1A1715" />
<rect x="46" y="78" width="1" height="1" fill="#1A1715" />
<rect x="47" y="78" width="1" height="1" fill="#1A1715" />
<rect x="48" y="78" width="1" height="1" fill="#1A1715" />
<rect x="49" y="78" width="1" height="1" fill="#1A1715" />
<rect x="50" y="78" width="1" height="1" fill="#1A1715" />
<rect x="51" y="78" width="1" height="1" fill="#1A1715" />
<rect x="52" y="78" width="1" height="1" fill="#1A1715" />
<rect x="53" y="78" width="1" height="1" fill="#1A1715" />
<rect x="54" y="78" width="1" height="1" fill="#FFFFFF" />
<rect x="55" y="78" width="1" height="1" fill="#FFFFFF" />
<rect x="56" y="78" width="1" height="1" fill="#FFFFFF" />
<rect x="57" y="78" width="1" height="1" fill="#FFFFFF" />
<rect x="58" y="78" width="1" height="1" fill="#1A1715" />
<rect x="59" y="78" width="1" height="1" fill="#1A1715" />
<rect x="38" y="79" width="1" height="1" fill="#1A1715" />
<rect x="39" y="79" width="1" height="1" fill="#1A1715" />
<rect x="40" y="79" width="1" height="1" fill="#1A1715" />
<rect x="41" y="79" width="1" height="1" fill="#1A1715" />
<rect x="42" y="79" width="1" height="1" fill="#FFFFFF" />
<rect x="43" y="79" width="1" height="1" fill="#FFFFFF" />
<rect x="44" y="79" width="1" height="1" fill="#FFFFFF" />
<rect x="45" y="79" width="1" height="1" fill="#FFFFFF" />
<rect x="46" y="79" width="1" height="1" fill="#FFFFFF" />
<rect x="47" y="79" width="1" height="1" fill="#FFFFFF" />
<rect x="48" y="79" width="1" height="1" fill="#FFFFFF" />
<rect x="49" y="79" width="1" height="1" fill="#FFFFFF" />
<rect x="50" y="79" width="1" height="1" fill="#FFFFFF" />
<rect x="51" y="79" width="1" height="1" fill="#FFFFFF" />
<rect x="52" y="79" width="1" height="1" fill="#FFFFFF" />
<rect x="53" y="79" width="1" height="1" fill="#FFFFFF" />
<rect x="54" y="79" width="1" height="1" fill="#1A1715" />
<rect x="55" y="79" width="1" height="1" fill="#1A1715" />
<rect x="56" y="79" width="1" height="1" fill="#1A1715" />
<rect x="57" y="79" width="1" height="1" fill="#1A1715" />
<rect x="42" y="80" width="1" height="1" fill="#1A1715" />
<rect x="43" y="80" width="1" height="1" fill="#1A1715" />
<rect x="44" y="80" width="1" height="1" fill="#1A1715" />
<rect x="45" y="80" width="1" height="1" fill="#1A1715" />
<rect x="46" y="80" width="1" height="1" fill="#1A1715" />
<rect x="47" y="80" width="1" height="1" fill="#1A1715" />
<rect x="48" y="80" width="1" height="1" fill="#1A1715" />
<rect x="49" y="80" width="1" height="1" fill="#1A1715" />
<rect x="50" y="80" width="1" height="1" fill="#1A1715" />
<rect x="51" y="80" width="1" height="1" fill="#1A1715" />
<rect x="52" y="80" width="1" height="1" fill="#1A1715" />
<rect x="53" y="80" width="1" height="1" fill="#1A1715" />
</svg>