<?xml version="1.0" encoding="UTF-8" ?>
<svg version="1.1" width="187" height="236" xmlns="http://www.w3.org/2000/svg" shape-rendering="crispEdges">
<rect x="75" y="11" width="1" height="1" fill="#5487D3" />
<rect x="76" y="12" width="1" height="1" fill="#5487D3" />
<rect x="77" y="12" width="1" height="1" fill="#5487D3" />
<rect x="78" y="12" width="1" height="1" fill="#8ED3E2" />
<rect x="79" y="12" width="1" height="1" fill="#8ED3E2" />
<rect x="80" y="12" width="1" height="1" fill="#8ED3E2" />
<rect x="81" y="12" width="1" height="1" fill="#8ED3E2" />
<rect x="85" y="12" width="1" height="1" fill="#5487D3" />
<rect x="78" y="13" width="1" height="1" fill="#5487D3" />
<rect x="79" y="13" width="1" height="1" fill="#8ED3E2" />
<rect x="80" y="13" width="1" height="1" fill="#8ED3E2" />
<rect x="81" y="13" width="1" height="1" fill="#8ED3E2" />
<rect x="82" y="13" width="1" height="1" fill="#A4FCED" />
<rect x="84" y="13" width="1" height="1" fill="#8ED3E2" />
<rect x="85" y="13" width="1" height="1" fill="#8ED3E2" />
<rect x="86" y="13" width="1" height="1" fill="#5487D3" />
<rect x="87" y="13" width="1" height="1" fill="#5487D3" />
<rect x="79" y="14" width="1" height="1" fill="#5487D3" />
<rect x="80" y="14" width="1" height="1" fill="#5487D3" />
<rect x="81" y="14" width="1" height="1" fill="#5487D3" />
<rect x="82" y="14" width="1" height="1" fill="#A4FCED" />
<rect x="83" y="14" width="1" height="1" fill="#8ED3E2" />
<rect x="84" y="14" width="1" height="1" fill="#A4FCED" />
<rect x="85" y="14" width="1" height="1" fill="#A4FCED" />
<rect x="86" y="14" width="1" height="1" fill="#8ED3E2" />
<rect x="87" y="14" width="1" height="1" fill="#5487D3" />
<rect x="88" y="14" width="1" height="1" fill="#5487D3" />
<rect x="82" y="15" width="1" height="1" fill="#8ED3E2" />
<rect x="83" y="15" width="1" height="1" fill="#A4FCED" />
<rect x="84" y="15" width="1" height="1" fill="#A4FCED" />
<rect x="85" y="15" width="1" height="1" fill="#5487D3" />
<rect x="86" y="15" width="1" height="1" fill="#8ED3E2" />
<rect x="87" y="15" width="1" height="1" fill="#8ED3E2" />
<rect x="88" y="15" width="1" height="1" fill="#5487D3" />
<rect x="93" y="15" width="1" height="1" fill="#8ED3E2" />
<rect x="94" y="15" width="1" height="1" fill="#8ED3E2" />
<rect x="95" y="15" width="1" height="1" fill="#8ED3E2" />
<rect x="96" y="15" width="1" height="1" fill="#8ED3E2" />
<rect x="83" y="16" width="1" height="1" fill="#5487D3" />
<rect x="84" y="16" width="1" height="1" fill="#5487D3" />
<rect x="85" y="16" width="1" height="1" fill="#5487D3" />
<rect x="86" y="16" width="1" height="1" fill="#5487D3" />
<rect x="87" y="16" width="1" height="1" fill="#5487D3" />
<rect x="88" y="16" width="1" height="1" fill="#5487D3" />
<rect x="94" y="16" width="1" height="1" fill="#A4FCED" />
<rect x="95" y="16" width="1" height="1" fill="#A4FCED" />
<rect x="96" y="16" width="1" height="1" fill="#8ED3E2" />
<rect x="97" y="16" width="1" height="1" fill="#8ED3E2" />
<rect x="74" y="17" width="1" height="1" fill="#8ED3E2" />
<rect x="75" y="17" width="1" height="1" fill="#8ED3E2" />
<rect x="76" y="17" width="1" height="1" fill="#8ED3E2" />
<rect x="94" y="17" width="1" height="1" fill="#A4FCED" />
<rect x="95" y="17" width="1" height="1" fill="#A4FCED" />
<rect x="96" y="17" width="1" height="1" fill="#A4FCED" />
<rect x="97" y="17" width="1" height="1" fill="#A4FCED" />
<rect x="75" y="18" width="1" height="1" fill="#8ED3E2" />
<rect x="76" y="18" width="1" height="1" fill="#A4FCED" />
<rect x="77" y="18" width="1" height="1" fill="#A4FCED" />
<rect x="78" y="18" width="1" height="1" fill="#A4FCED" />
<rect x="79" y="18" width="1" height="1" fill="#8ED3E2" />
<rect x="95" y="18" width="1" height="1" fill="#8ED3E2" />
<rect x="96" y="18" width="1" height="1" fill="#A4FCED" />
<rect x="97" y="18" width="1" height="1" fill="#A4FCED" />
<rect x="98" y="18" width="1" height="1" fill="#8ED3E2" />
<rect x="99" y="18" width="1" height="1" fill="#8ED3E2" />
<rect x="76" y="19" width="1" height="1" fill="#A4FCED" />
<rect x="77" y="19" width="1" height="1" fill="#A4FCED" />
<rect x="78" y="19" width="1" height="1" fill="#A4FCED" />
<rect x="79" y="19" width="1" height="1" fill="#A4FCED" />
<rect x="97" y="19" width="1" height="1" fill="#A4FCED" />
<rect x="98" y="19" width="1" height="1" fill="#8ED3E2" />
<rect x="99" y="19" width="1" height="1" fill="#8ED3E2" />
<rect x="100" y="19" width="1" height="1" fill="#5487D3" />
<rect x="51" y="20" width="1" height="1" fill="#5487D3" />
<rect x="52" y="20" width="1" height="1" fill="#5487D3" />
<rect x="53" y="20" width="1" height="1" fill="#5487D3" />
<rect x="54" y="20" width="1" height="1" fill="#5487D3" />
<rect x="76" y="20" width="1" height="1" fill="#8ED3E2" />
<rect x="77" y="20" width="1" height="1" fill="#8ED3E2" />
<rect x="78" y="20" width="1" height="1" fill="#A4FCED" />
<rect x="79" y="20" width="1" height="1" fill="#A4FCED" />
<rect x="80" y="20" width="1" height="1" fill="#A4FCED" />
<rect x="81" y="20" width="1" height="1" fill="#A4FCED" />
<rect x="97" y="20" width="1" height="1" fill="#8ED3E2" />
<rect x="98" y="20" width="1" height="1" fill="#8ED3E2" />
<rect x="99" y="20" width="1" height="1" fill="#8ED3E2" />
<rect x="100" y="20" width="1" height="1" fill="#8ED3E2" />
<rect x="107" y="20" width="1" height="1" fill="#5487D3" />
<rect x="45" y="21" width="1" height="1" fill="#5487D3" />
<rect x="46" y="21" width="1" height="1" fill="#5487D3" />
<rect x="47" y="21" width="1" height="1" fill="#5487D3" />
<rect x="48" y="21" width="1" height="1" fill="#5487D3" />
<rect x="49" y="21" width="1" height="1" fill="#5487D3" />
<rect x="50" y="21" width="1" height="1" fill="#5487D3" />
<rect x="51" y="21" width="1" height="1" fill="#8ED3E2" />
<rect x="52" y="21" width="1" height="1" fill="#8ED3E2" />
<rect x="53" y="21" width="1" height="1" fill="#8ED3E2" />
<rect x="54" y="21" width="1" height="1" fill="#8ED3E2" />
<rect x="55" y="21" width="1" height="1" fill="#5487D3" />
<rect x="56" y="21" width="1" height="1" fill="#5487D3" />
<rect x="57" y="21" width="1" height="1" fill="#5487D3" />
<rect x="58" y="21" width="1" height="1" fill="#5487D3" />
<rect x="59" y="21" width="1" height="1" fill="#5487D3" />
<rect x="77" y="21" width="1" height="1" fill="#8ED3E2" />
<rect x="78" y="21" width="1" height="1" fill="#8ED3E2" />
<rect x="79" y="21" width="1" height="1" fill="#A4FCED" />
<rect x="80" y="21" width="1" height="1" fill="#A4FCED" />
<rect x="81" y="21" width="1" height="1" fill="#A4FCED" />
<rect x="82" y="21" width="1" height="1" fill="#8ED3E2" />
<rect x="84" y="21" width="1" height="1" fill="#5487D3" />
<rect x="86" y="21" width="1" height="1" fill="#5487D3" />
<rect x="97" y="21" width="1" height="1" fill="#8ED3E2" />
<rect x="98" y="21" width="1" height="1" fill="#8ED3E2" />
<rect x="99" y="21" width="1" height="1" fill="#8ED3E2" />
<rect x="100" y="21" width="1" height="1" fill="#5487D3" />
<rect x="101" y="21" width="1" height="1" fill="#5487D3" />
<rect x="107" y="21" width="1" height="1" fill="#5487D3" />
<rect x="108" y="21" width="1" height="1" fill="#5487D3" />
<rect x="109" y="21" width="1" height="1" fill="#5487D3" />
<rect x="44" y="22" width="1" height="1" fill="#5487D3" />
<rect x="45" y="22" width="1" height="1" fill="#8ED3E2" />
<rect x="46" y="22" width="1" height="1" fill="#8ED3E2" />
<rect x="47" y="22" width="1" height="1" fill="#8ED3E2" />
<rect x="48" y="22" width="1" height="1" fill="#8ED3E2" />
<rect x="49" y="22" width="1" height="1" fill="#8ED3E2" />
<rect x="50" y="22" width="1" height="1" fill="#8ED3E2" />
<rect x="51" y="22" width="1" height="1" fill="#A4FCED" />
<rect x="52" y="22" width="1" height="1" fill="#A4FCED" />
<rect x="53" y="22" width="1" height="1" fill="#8ED3E2" />
<rect x="54" y="22" width="1" height="1" fill="#8ED3E2" />
<rect x="55" y="22" width="1" height="1" fill="#8ED3E2" />
<rect x="56" y="22" width="1" height="1" fill="#8ED3E2" />
<rect x="57" y="22" width="1" height="1" fill="#8ED3E2" />
<rect x="58" y="22" width="1" height="1" fill="#8ED3E2" />
<rect x="59" y="22" width="1" height="1" fill="#8ED3E2" />
<rect x="60" y="22" width="1" height="1" fill="#5487D3" />
<rect x="78" y="22" width="1" height="1" fill="#8ED3E2" />
<rect x="79" y="22" width="1" height="1" fill="#8ED3E2" />
<rect x="80" y="22" width="1" height="1" fill="#8ED3E2" />
<rect x="81" y="22" width="1" height="1" fill="#8ED3E2" />
<rect x="82" y="22" width="1" height="1" fill="#8ED3E2" />
<rect x="83" y="22" width="1" height="1" fill="#8ED3E2" />
<rect x="84" y="22" width="1" height="1" fill="#8ED3E2" />
<rect x="87" y="22" width="1" height="1" fill="#5487D3" />
<rect x="88" y="22" width="1" height="1" fill="#5487D3" />
<rect x="89" y="22" width="1" height="1" fill="#5487D3" />
<rect x="97" y="22" width="1" height="1" fill="#5487D3" />
<rect x="98" y="22" width="1" height="1" fill="#5487D3" />
<rect x="99" y="22" width="1" height="1" fill="#5487D3" />
<rect x="100" y="22" width="1" height="1" fill="#5487D3" />
<rect x="101" y="22" width="1" height="1" fill="#8ED3E2" />
<rect x="102" y="22" width="1" height="1" fill="#5487D3" />
<rect x="107" y="22" width="1" height="1" fill="#5487D3" />
<rect x="108" y="22" width="1" height="1" fill="#5487D3" />
<rect x="109" y="22" width="1" height="1" fill="#5487D3" />
<rect x="110" y="22" width="1" height="1" fill="#5487D3" />
<rect x="111" y="22" width="1" height="1" fill="#5487D3" />
<rect x="112" y="22" width="1" height="1" fill="#5487D3" />
<rect x="43" y="23" width="1" height="1" fill="#5487D3" />
<rect x="44" y="23" width="1" height="1" fill="#8ED3E2" />
<rect x="45" y="23" width="1" height="1" fill="#8ED3E2" />
<rect x="46" y="23" width="1" height="1" fill="#8ED3E2" />
<rect x="47" y="23" width="1" height="1" fill="#A4FCED" />
<rect x="48" y="23" width="1" height="1" fill="#A4FCED" />
<rect x="49" y="23" width="1" height="1" fill="#A4FCED" />
<rect x="50" y="23" width="1" height="1" fill="#A4FCED" />
<rect x="51" y="23" width="1" height="1" fill="#A4FCED" />
<rect x="52" y="23" width="1" height="1" fill="#A4FCED" />
<rect x="53" y="23" width="1" height="1" fill="#A4FCED" />
<rect x="54" y="23" width="1" height="1" fill="#A4FCED" />
<rect x="55" y="23" width="1" height="1" fill="#A4FCED" />
<rect x="56" y="23" width="1" height="1" fill="#A4FCED" />
<rect x="57" y="23" width="1" height="1" fill="#8ED3E2" />
<rect x="58" y="23" width="1" height="1" fill="#8ED3E2" />
<rect x="59" y="23" width="1" height="1" fill="#8ED3E2" />
<rect x="60" y="23" width="1" height="1" fill="#8ED3E2" />
<rect x="61" y="23" width="1" height="1" fill="#5487D3" />
<rect x="79" y="23" width="1" height="1" fill="#8ED3E2" />
<rect x="80" y="23" width="1" height="1" fill="#8ED3E2" />
<rect x="81" y="23" width="1" height="1" fill="#8ED3E2" />
<rect x="82" y="23" width="1" height="1" fill="#8ED3E2" />
<rect x="83" y="23" width="1" height="1" fill="#8ED3E2" />
<rect x="84" y="23" width="1" height="1" fill="#8ED3E2" />
<rect x="87" y="23" width="1" height="1" fill="#8ED3E2" />
<rect x="88" y="23" width="1" height="1" fill="#A4FCED" />
<rect x="89" y="23" width="1" height="1" fill="#8ED3E2" />
<rect x="90" y="23" width="1" height="1" fill="#5487D3" />
<rect x="95" y="23" width="1" height="1" fill="#5487D3" />
<rect x="96" y="23" width="1" height="1" fill="#5487D3" />
<rect x="97" y="23" width="1" height="1" fill="#5487D3" />
<rect x="98" y="23" width="1" height="1" fill="#8ED3E2" />
<rect x="99" y="23" width="1" height="1" fill="#8ED3E2" />
<rect x="100" y="23" width="1" height="1" fill="#8ED3E2" />
<rect x="101" y="23" width="1" height="1" fill="#9FEBFC" />
<rect x="102" y="23" width="1" height="1" fill="#5487D3" />
<rect x="103" y="23" width="1" height="1" fill="#5487D3" />
<rect x="108" y="23" width="1" height="1" fill="#5487D3" />
<rect x="109" y="23" width="1" height="1" fill="#5487D3" />
<rect x="110" y="23" width="1" height="1" fill="#8ED3E2" />
<rect x="111" y="23" width="1" height="1" fill="#8ED3E2" />
<rect x="112" y="23" width="1" height="1" fill="#8ED3E2" />
<rect x="113" y="23" width="1" height="1" fill="#5487D3" />
<rect x="114" y="23" width="1" height="1" fill="#5487D3" />
<rect x="115" y="23" width="1" height="1" fill="#5487D3" />
<rect x="44" y="24" width="1" height="1" fill="#5487D3" />
<rect x="45" y="24" width="1" height="1" fill="#5487D3" />
<rect x="46" y="24" width="1" height="1" fill="#8ED3E2" />
<rect x="47" y="24" width="1" height="1" fill="#8ED3E2" />
<rect x="48" y="24" width="1" height="1" fill="#8ED3E2" />
<rect x="49" y="24" width="1" height="1" fill="#8ED3E2" />
<rect x="50" y="24" width="1" height="1" fill="#8ED3E2" />
<rect x="51" y="24" width="1" height="1" fill="#A4FCED" />
<rect x="52" y="24" width="1" height="1" fill="#A4FCED" />
<rect x="53" y="24" width="1" height="1" fill="#A4FCED" />
<rect x="54" y="24" width="1" height="1" fill="#A4FCED" />
<rect x="55" y="24" width="1" height="1" fill="#A4FCED" />
<rect x="56" y="24" width="1" height="1" fill="#A4FCED" />
<rect x="57" y="24" width="1" height="1" fill="#A4FCED" />
<rect x="58" y="24" width="1" height="1" fill="#A4FCED" />
<rect x="59" y="24" width="1" height="1" fill="#A4FCED" />
<rect x="60" y="24" width="1" height="1" fill="#8ED3E2" />
<rect x="61" y="24" width="1" height="1" fill="#8ED3E2" />
<rect x="62" y="24" width="1" height="1" fill="#5487D3" />
<rect x="83" y="24" width="1" height="1" fill="#8ED3E2" />
<rect x="88" y="24" width="1" height="1" fill="#8ED3E2" />
<rect x="89" y="24" width="1" height="1" fill="#A4FCED" />
<rect x="90" y="24" width="1" height="1" fill="#A4FCED" />
<rect x="91" y="24" width="1" height="1" fill="#5487D3" />
<rect x="94" y="24" width="1" height="1" fill="#5487D3" />
<rect x="95" y="24" width="1" height="1" fill="#5487D3" />
<rect x="96" y="24" width="1" height="1" fill="#5487D3" />
<rect x="97" y="24" width="1" height="1" fill="#8ED3E2" />
<rect x="98" y="24" width="1" height="1" fill="#8ED3E2" />
<rect x="99" y="24" width="1" height="1" fill="#9FEBFC" />
<rect x="100" y="24" width="1" height="1" fill="#9FEBFC" />
<rect x="101" y="24" width="1" height="1" fill="#9FEBFC" />
<rect x="102" y="24" width="1" height="1" fill="#5487D3" />
<rect x="103" y="24" width="1" height="1" fill="#5487D3" />
<rect x="110" y="24" width="1" height="1" fill="#5487D3" />
<rect x="111" y="24" width="1" height="1" fill="#5487D3" />
<rect x="112" y="24" width="1" height="1" fill="#8ED3E2" />
<rect x="113" y="24" width="1" height="1" fill="#8ED3E2" />
<rect x="114" y="24" width="1" height="1" fill="#8ED3E2" />
<rect x="115" y="24" width="1" height="1" fill="#8ED3E2" />
<rect x="46" y="25" width="1" height="1" fill="#5487D3" />
<rect x="47" y="25" width="1" height="1" fill="#5487D3" />
<rect x="48" y="25" width="1" height="1" fill="#5487D3" />
<rect x="49" y="25" width="1" height="1" fill="#5487D3" />
<rect x="50" y="25" width="1" height="1" fill="#8ED3E2" />
<rect x="51" y="25" width="1" height="1" fill="#8ED3E2" />
<rect x="52" y="25" width="1" height="1" fill="#8ED3E2" />
<rect x="53" y="25" width="1" height="1" fill="#8ED3E2" />
<rect x="54" y="25" width="1" height="1" fill="#8ED3E2" />
<rect x="55" y="25" width="1" height="1" fill="#A4FCED" />
<rect x="56" y="25" width="1" height="1" fill="#A4FCED" />
<rect x="57" y="25" width="1" height="1" fill="#A4FCED" />
<rect x="58" y="25" width="1" height="1" fill="#A4FCED" />
<rect x="59" y="25" width="1" height="1" fill="#A4FCED" />
<rect x="60" y="25" width="1" height="1" fill="#A4FCED" />
<rect x="61" y="25" width="1" height="1" fill="#A4FCED" />
<rect x="62" y="25" width="1" height="1" fill="#8ED3E2" />
<rect x="63" y="25" width="1" height="1" fill="#5487D3" />
<rect x="89" y="25" width="1" height="1" fill="#8ED3E2" />
<rect x="90" y="25" width="1" height="1" fill="#5487D3" />
<rect x="94" y="25" width="1" height="1" fill="#5487D3" />
<rect x="95" y="25" width="1" height="1" fill="#5487D3" />
<rect x="96" y="25" width="1" height="1" fill="#8ED3E2" />
<rect x="97" y="25" width="1" height="1" fill="#8ED3E2" />
<rect x="98" y="25" width="1" height="1" fill="#5487D3" />
<rect x="99" y="25" width="1" height="1" fill="#8ED3E2" />
<rect x="100" y="25" width="1" height="1" fill="#8ED3E2" />
<rect x="101" y="25" width="1" height="1" fill="#8ED3E2" />
<rect x="102" y="25" width="1" height="1" fill="#9FEBFC" />
<rect x="103" y="25" width="1" height="1" fill="#9FEBFC" />
<rect x="104" y="25" width="1" height="1" fill="#8ED3E2" />
<rect x="112" y="25" width="1" height="1" fill="#5487D3" />
<rect x="113" y="25" width="1" height="1" fill="#8ED3E2" />
<rect x="114" y="25" width="1" height="1" fill="#8ED3E2" />
<rect x="115" y="25" width="1" height="1" fill="#8ED3E2" />
<rect x="116" y="25" width="1" height="1" fill="#8ED3E2" />
<rect x="117" y="25" width="1" height="1" fill="#8ED3E2" />
<rect x="118" y="25" width="1" height="1" fill="#8ED3E2" />
<rect x="50" y="26" width="1" height="1" fill="#5487D3" />
<rect x="51" y="26" width="1" height="1" fill="#5487D3" />
<rect x="52" y="26" width="1" height="1" fill="#5487D3" />
<rect x="53" y="26" width="1" height="1" fill="#5487D3" />
<rect x="54" y="26" width="1" height="1" fill="#5487D3" />
<rect x="55" y="26" width="1" height="1" fill="#8ED3E2" />
<rect x="56" y="26" width="1" height="1" fill="#8ED3E2" />
<rect x="57" y="26" width="1" height="1" fill="#8ED3E2" />
<rect x="58" y="26" width="1" height="1" fill="#8ED3E2" />
<rect x="59" y="26" width="1" height="1" fill="#8ED3E2" />
<rect x="60" y="26" width="1" height="1" fill="#8ED3E2" />
<rect x="61" y="26" width="1" height="1" fill="#8ED3E2" />
<rect x="62" y="26" width="1" height="1" fill="#8ED3E2" />
<rect x="63" y="26" width="1" height="1" fill="#8ED3E2" />
<rect x="64" y="26" width="1" height="1" fill="#5487D3" />
<rect x="91" y="26" width="1" height="1" fill="#5487D3" />
<rect x="95" y="26" width="1" height="1" fill="#5487D3" />
<rect x="96" y="26" width="1" height="1" fill="#5487D3" />
<rect x="99" y="26" width="1" height="1" fill="#5487D3" />
<rect x="101" y="26" width="1" height="1" fill="#8ED3E2" />
<rect x="102" y="26" width="1" height="1" fill="#8ED3E2" />
<rect x="103" y="26" width="1" height="1" fill="#9FEBFC" />
<rect x="104" y="26" width="1" height="1" fill="#9FEBFC" />
<rect x="105" y="26" width="1" height="1" fill="#8ED3E2" />
<rect x="113" y="26" width="1" height="1" fill="#5487D3" />
<rect x="114" y="26" width="1" height="1" fill="#8ED3E2" />
<rect x="115" y="26" width="1" height="1" fill="#8ED3E2" />
<rect x="116" y="26" width="1" height="1" fill="#A4FCED" />
<rect x="117" y="26" width="1" height="1" fill="#A4FCED" />
<rect x="118" y="26" width="1" height="1" fill="#A4FCED" />
<rect x="119" y="26" width="1" height="1" fill="#8ED3E2" />
<rect x="120" y="26" width="1" height="1" fill="#5487D3" />
<rect x="121" y="26" width="1" height="1" fill="#5487D3" />
<rect x="122" y="26" width="1" height="1" fill="#5487D3" />
<rect x="55" y="27" width="1" height="1" fill="#5487D3" />
<rect x="56" y="27" width="1" height="1" fill="#5487D3" />
<rect x="57" y="27" width="1" height="1" fill="#5487D3" />
<rect x="58" y="27" width="1" height="1" fill="#5487D3" />
<rect x="59" y="27" width="1" height="1" fill="#5487D3" />
<rect x="60" y="27" width="1" height="1" fill="#5487D3" />
<rect x="61" y="27" width="1" height="1" fill="#5487D3" />
<rect x="62" y="27" width="1" height="1" fill="#5487D3" />
<rect x="63" y="27" width="1" height="1" fill="#5487D3" />
<rect x="103" y="27" width="1" height="1" fill="#9FEBFC" />
<rect x="104" y="27" width="1" height="1" fill="#9FEBFC" />
<rect x="105" y="27" width="1" height="1" fill="#8ED3E2" />
<rect x="106" y="27" width="1" height="1" fill="#5487D3" />
<rect x="113" y="27" width="1" height="1" fill="#5487D3" />
<rect x="114" y="27" width="1" height="1" fill="#5487D3" />
<rect x="115" y="27" width="1" height="1" fill="#8ED3E2" />
<rect x="116" y="27" width="1" height="1" fill="#8ED3E2" />
<rect x="117" y="27" width="1" height="1" fill="#A4FCED" />
<rect x="118" y="27" width="1" height="1" fill="#A4FCED" />
<rect x="119" y="27" width="1" height="1" fill="#A4FCED" />
<rect x="120" y="27" width="1" height="1" fill="#8ED3E2" />
<rect x="121" y="27" width="1" height="1" fill="#8ED3E2" />
<rect x="122" y="27" width="1" height="1" fill="#5487D3" />
<rect x="123" y="27" width="1" height="1" fill="#5487D3" />
<rect x="58" y="28" width="1" height="1" fill="#5487D3" />
<rect x="59" y="28" width="1" height="1" fill="#5487D3" />
<rect x="104" y="28" width="1" height="1" fill="#8ED3E2" />
<rect x="105" y="28" width="1" height="1" fill="#5487D3" />
<rect x="106" y="28" width="1" height="1" fill="#5487D3" />
<rect x="116" y="28" width="1" height="1" fill="#8ED3E2" />
<rect x="117" y="28" width="1" height="1" fill="#8ED3E2" />
<rect x="118" y="28" width="1" height="1" fill="#8ED3E2" />
<rect x="119" y="28" width="1" height="1" fill="#A4FCED" />
<rect x="120" y="28" width="1" height="1" fill="#A4FCED" />
<rect x="121" y="28" width="1" height="1" fill="#A4FCED" />
<rect x="122" y="28" width="1" height="1" fill="#8ED3E2" />
<rect x="123" y="28" width="1" height="1" fill="#8ED3E2" />
<rect x="124" y="28" width="1" height="1" fill="#5487D3" />
<rect x="107" y="29" width="1" height="1" fill="#5487D3" />
<rect x="119" y="29" width="1" height="1" fill="#5487D3" />
<rect x="120" y="29" width="1" height="1" fill="#5487D3" />
<rect x="121" y="29" width="1" height="1" fill="#A4FCED" />
<rect x="122" y="29" width="1" height="1" fill="#A4FCED" />
<rect x="123" y="29" width="1" height="1" fill="#8ED3E2" />
<rect x="124" y="29" width="1" height="1" fill="#8ED3E2" />
<rect x="80" y="30" width="1" height="1" fill="#5487D3" />
<rect x="119" y="30" width="1" height="1" fill="#5487D3" />
<rect x="120" y="30" width="1" height="1" fill="#5487D3" />
<rect x="121" y="30" width="1" height="1" fill="#5487D3" />
<rect x="122" y="30" width="1" height="1" fill="#5487D3" />
<rect x="123" y="30" width="1" height="1" fill="#5487D3" />
<rect x="124" y="30" width="1" height="1" fill="#5487D3" />
<rect x="125" y="30" width="1" height="1" fill="#5487D3" />
<rect x="129" y="30" width="1" height="1" fill="#8ED3E2" />
<rect x="130" y="30" width="1" height="1" fill="#8ED3E2" />
<rect x="131" y="30" width="1" height="1" fill="#8ED3E2" />
<rect x="132" y="30" width="1" height="1" fill="#8ED3E2" />
<rect x="81" y="31" width="1" height="1" fill="#5487D3" />
<rect x="82" y="31" width="1" height="1" fill="#5487D3" />
<rect x="83" y="31" width="1" height="1" fill="#5487D3" />
<rect x="122" y="31" width="1" height="1" fill="#5487D3" />
<rect x="123" y="31" width="1" height="1" fill="#5487D3" />
<rect x="124" y="31" width="1" height="1" fill="#5487D3" />
<rect x="129" y="31" width="1" height="1" fill="#8ED3E2" />
<rect x="130" y="31" width="1" height="1" fill="#A4FCED" />
<rect x="131" y="31" width="1" height="1" fill="#A4FCED" />
<rect x="132" y="31" width="1" height="1" fill="#A4FCED" />
<rect x="133" y="31" width="1" height="1" fill="#8ED3E2" />
<rect x="134" y="31" width="1" height="1" fill="#8ED3E2" />
<rect x="84" y="32" width="1" height="1" fill="#5487D3" />
<rect x="85" y="32" width="1" height="1" fill="#5487D3" />
<rect x="86" y="32" width="1" height="1" fill="#5487D3" />
<rect x="130" y="32" width="1" height="1" fill="#8ED3E2" />
<rect x="131" y="32" width="1" height="1" fill="#A4FCED" />
<rect x="132" y="32" width="1" height="1" fill="#A4FCED" />
<rect x="133" y="32" width="1" height="1" fill="#A4FCED" />
<rect x="134" y="32" width="1" height="1" fill="#8ED3E2" />
<rect x="87" y="33" width="1" height="1" fill="#5487D3" />
<rect x="131" y="33" width="1" height="1" fill="#8ED3E2" />
<rect x="132" y="33" width="1" height="1" fill="#A4FCED" />
<rect x="133" y="33" width="1" height="1" fill="#A4FCED" />
<rect x="134" y="33" width="1" height="1" fill="#A4FCED" />
<rect x="135" y="33" width="1" height="1" fill="#8ED3E2" />
<rect x="132" y="34" width="1" height="1" fill="#8ED3E2" />
<rect x="133" y="34" width="1" height="1" fill="#8ED3E2" />
<rect x="134" y="34" width="1" height="1" fill="#A4FCED" />
<rect x="135" y="34" width="1" height="1" fill="#8ED3E2" />
<rect x="133" y="35" width="1" height="1" fill="#8ED3E2" />
<rect x="134" y="35" width="1" height="1" fill="#A4FCED" />
<rect x="135" y="35" width="1" height="1" fill="#A4FCED" />
<rect x="136" y="35" width="1" height="1" fill="#8ED3E2" />
<rect x="133" y="36" width="1" height="1" fill="#8ED3E2" />
<rect x="134" y="36" width="1" height="1" fill="#8ED3E2" />
<rect x="135" y="36" width="1" height="1" fill="#A4FCED" />
<rect x="136" y="36" width="1" height="1" fill="#8ED3E2" />
<rect x="134" y="37" width="1" height="1" fill="#8ED3E2" />
<rect x="135" y="37" width="1" height="1" fill="#A4FCED" />
<rect x="136" y="37" width="1" height="1" fill="#8ED3E2" />
<rect x="137" y="37" width="1" height="1" fill="#8ED3E2" />
<rect x="134" y="38" width="1" height="1" fill="#5487D3" />
<rect x="135" y="38" width="1" height="1" fill="#8ED3E2" />
<rect x="136" y="38" width="1" height="1" fill="#8ED3E2" />
<rect x="137" y="38" width="1" height="1" fill="#5487D3" />
<rect x="133" y="39" width="1" height="1" fill="#5487D3" />
<rect x="134" y="39" width="1" height="1" fill="#5487D3" />
<rect x="135" y="39" width="1" height="1" fill="#5487D3" />
<rect x="136" y="39" width="1" height="1" fill="#5487D3" />
<rect x="137" y="39" width="1" height="1" fill="#5487D3" />
<rect x="138" y="39" width="1" height="1" fill="#5487D3" />
<rect x="131" y="40" width="1" height="1" fill="#5487D3" />
<rect x="132" y="40" width="1" height="1" fill="#5487D3" />
<rect x="133" y="40" width="1" height="1" fill="#5487D3" />
<rect x="134" y="40" width="1" height="1" fill="#5487D3" />
<rect x="135" y="40" width="1" height="1" fill="#5487D3" />
<rect x="136" y="40" width="1" height="1" fill="#8ED3E2" />
<rect x="137" y="40" width="1" height="1" fill="#8ED3E2" />
<rect x="138" y="40" width="1" height="1" fill="#8ED3E2" />
<rect x="139" y="40" width="1" height="1" fill="#5487D3" />
<rect x="140" y="40" width="1" height="1" fill="#5487D3" />
<rect x="130" y="41" width="1" height="1" fill="#5487D3" />
<rect x="131" y="41" width="1" height="1" fill="#5487D3" />
<rect x="132" y="41" width="1" height="1" fill="#5487D3" />
<rect x="133" y="41" width="1" height="1" fill="#5487D3" />
<rect x="134" y="41" width="1" height="1" fill="#8ED3E2" />
<rect x="135" y="41" width="1" height="1" fill="#9FEBFC" />
<rect x="136" y="41" width="1" height="1" fill="#9FEBFC" />
<rect x="137" y="41" width="1" height="1" fill="#9FEBFC" />
<rect x="138" y="41" width="1" height="1" fill="#8ED3E2" />
<rect x="139" y="41" width="1" height="1" fill="#8ED3E2" />
<rect x="140" y="41" width="1" height="1" fill="#5487D3" />
<rect x="141" y="41" width="1" height="1" fill="#5487D3" />
<rect x="129" y="42" width="1" height="1" fill="#5487D3" />
<rect x="130" y="42" width="1" height="1" fill="#5487D3" />
<rect x="131" y="42" width="1" height="1" fill="#8ED3E2" />
<rect x="132" y="42" width="1" height="1" fill="#8ED3E2" />
<rect x="133" y="42" width="1" height="1" fill="#8ED3E2" />
<rect x="134" y="42" width="1" height="1" fill="#8ED3E2" />
<rect x="135" y="42" width="1" height="1" fill="#8ED3E2" />
<rect x="136" y="42" width="1" height="1" fill="#8ED3E2" />
<rect x="137" y="42" width="1" height="1" fill="#9FEBFC" />
<rect x="138" y="42" width="1" height="1" fill="#9FEBFC" />
<rect x="139" y="42" width="1" height="1" fill="#8ED3E2" />
<rect x="140" y="42" width="1" height="1" fill="#5487D3" />
<rect x="141" y="42" width="1" height="1" fill="#5487D3" />
<rect x="131" y="43" width="1" height="1" fill="#8ED3E2" />
<rect x="132" y="43" width="1" height="1" fill="#5487D3" />
<rect x="133" y="43" width="1" height="1" fill="#5487D3" />
<rect x="134" y="43" width="1" height="1" fill="#5487D3" />
<rect x="135" y="43" width="1" height="1" fill="#5487D3" />
<rect x="136" y="43" width="1" height="1" fill="#5487D3" />
<rect x="137" y="43" width="1" height="1" fill="#8ED3E2" />
<rect x="138" y="43" width="1" height="1" fill="#8ED3E2" />
<rect x="139" y="43" width="1" height="1" fill="#9FEBFC" />
<rect x="140" y="43" width="1" height="1" fill="#8ED3E2" />
<rect x="141" y="43" width="1" height="1" fill="#8ED3E2" />
<rect x="137" y="44" width="1" height="1" fill="#5487D3" />
<rect x="138" y="44" width="1" height="1" fill="#8ED3E2" />
<rect x="139" y="44" width="1" height="1" fill="#9FEBFC" />
<rect x="140" y="44" width="1" height="1" fill="#9FEBFC" />
<rect x="141" y="44" width="1" height="1" fill="#8ED3E2" />
<rect x="142" y="44" width="1" height="1" fill="#8ED3E2" />
<rect x="138" y="45" width="1" height="1" fill="#8ED3E2" />
<rect x="139" y="45" width="1" height="1" fill="#8ED3E2" />
<rect x="140" y="45" width="1" height="1" fill="#8ED3E2" />
<rect x="141" y="45" width="1" height="1" fill="#9FEBFC" />
<rect x="142" y="45" width="1" height="1" fill="#9FEBFC" />
<rect x="139" y="46" width="1" height="1" fill="#5487D3" />
<rect x="141" y="46" width="1" height="1" fill="#8ED3E2" />
<rect x="142" y="46" width="1" height="1" fill="#9FEBFC" />
<rect x="143" y="46" width="1" height="1" fill="#5487D3" />
<rect x="144" y="46" width="1" height="1" fill="#5487D3" />
<rect x="141" y="47" width="1" height="1" fill="#8ED3E2" />
<rect x="142" y="47" width="1" height="1" fill="#9FEBFC" />
<rect x="143" y="47" width="1" height="1" fill="#8ED3E2" />
<rect x="144" y="47" width="1" height="1" fill="#5487D3" />
<rect x="145" y="47" width="1" height="1" fill="#5487D3" />
<rect x="142" y="48" width="1" height="1" fill="#8ED3E2" />
<rect x="143" y="48" width="1" height="1" fill="#5487D3" />
<rect x="144" y="48" width="1" height="1" fill="#5487D3" />
<rect x="145" y="48" width="1" height="1" fill="#5487D3" />
<rect x="142" y="49" width="1" height="1" fill="#5487D3" />
<rect x="144" y="49" width="1" height="1" fill="#5487D3" />
<rect x="145" y="49" width="1" height="1" fill="#5487D3" />
<rect x="146" y="49" width="1" height="1" fill="#5487D3" />
<rect x="56" y="68" width="1" height="1" fill="#5487D3" />
<rect x="57" y="68" width="1" height="1" fill="#5487D3" />
<rect x="56" y="69" width="1" height="1" fill="#5487D3" />
<rect x="57" y="69" width="1" height="1" fill="#5487D3" />
<rect x="53" y="70" width="1" height="1" fill="#5487D3" />
<rect x="54" y="70" width="1" height="1" fill="#5487D3" />
<rect x="55" y="70" width="1" height="1" fill="#5487D3" />
<rect x="56" y="70" width="1" height="1" fill="#8ED3E2" />
<rect x="57" y="70" width="1" height="1" fill="#5487D3" />
<rect x="52" y="71" width="1" height="1" fill="#5487D3" />
<rect x="53" y="71" width="1" height="1" fill="#8ED3E2" />
<rect x="54" y="71" width="1" height="1" fill="#5487D3" />
<rect x="55" y="71" width="1" height="1" fill="#9FEBFC" />
<rect x="56" y="71" width="1" height="1" fill="#9FEBFC" />
<rect x="57" y="71" width="1" height="1" fill="#8ED3E2" />
<rect x="52" y="72" width="1" height="1" fill="#5487D3" />
<rect x="53" y="72" width="1" height="1" fill="#A4FCED" />
<rect x="54" y="72" width="1" height="1" fill="#8ED3E2" />
<rect x="55" y="72" width="1" height="1" fill="#9FEBFC" />
<rect x="56" y="72" width="1" height="1" fill="#8ED3E2" />
<rect x="52" y="73" width="1" height="1" fill="#A4FCED" />
<rect x="53" y="73" width="1" height="1" fill="#8ED3E2" />
<rect x="54" y="73" width="1" height="1" fill="#9FEBFC" />
<rect x="55" y="73" width="1" height="1" fill="#8ED3E2" />
<rect x="56" y="73" width="1" height="1" fill="#5487D3" />
<rect x="51" y="74" width="1" height="1" fill="#A4FCED" />
<rect x="52" y="74" width="1" height="1" fill="#A4FCED" />
<rect x="53" y="74" width="1" height="1" fill="#9FEBFC" />
<rect x="54" y="74" width="1" height="1" fill="#9FEBFC" />
<rect x="55" y="74" width="1" height="1" fill="#8ED3E2" />
<rect x="50" y="75" width="1" height="1" fill="#A4FCED" />
<rect x="51" y="75" width="1" height="1" fill="#A4FCED" />
<rect x="52" y="75" width="1" height="1" fill="#8ED3E2" />
<rect x="53" y="75" width="1" height="1" fill="#9FEBFC" />
<rect x="49" y="76" width="1" height="1" fill="#8ED3E2" />
<rect x="50" y="76" width="1" height="1" fill="#A4FCED" />
<rect x="51" y="76" width="1" height="1" fill="#5487D3" />
<rect x="52" y="76" width="1" height="1" fill="#5487D3" />
<rect x="48" y="77" width="1" height="1" fill="#8ED3E2" />
<rect x="49" y="77" width="1" height="1" fill="#A4FCED" />
<rect x="50" y="77" width="1" height="1" fill="#A4FCED" />
<rect x="51" y="77" width="1" height="1" fill="#8ED3E2" />
<rect x="52" y="77" width="1" height="1" fill="#5487D3" />
<rect x="68" y="77" width="1" height="1" fill="#5487D3" />
<rect x="46" y="78" width="1" height="1" fill="#8ED3E2" />
<rect x="47" y="78" width="1" height="1" fill="#8ED3E2" />
<rect x="48" y="78" width="1" height="1" fill="#A4FCED" />
<rect x="49" y="78" width="1" height="1" fill="#8ED3E2" />
<rect x="50" y="78" width="1" height="1" fill="#8ED3E2" />
<rect x="51" y="78" width="1" height="1" fill="#5487D3" />
<rect x="66" y="78" width="1" height="1" fill="#5487D3" />
<rect x="67" y="78" width="1" height="1" fill="#5487D3" />
<rect x="68" y="78" width="1" height="1" fill="#8ED3E2" />
<rect x="46" y="79" width="1" height="1" fill="#A4FCED" />
<rect x="47" y="79" width="1" height="1" fill="#A4FCED" />
<rect x="48" y="79" width="1" height="1" fill="#A4FCED" />
<rect x="49" y="79" width="1" height="1" fill="#8ED3E2" />
<rect x="66" y="79" width="1" height="1" fill="#5487D3" />
<rect x="67" y="79" width="1" height="1" fill="#8ED3E2" />
<rect x="68" y="79" width="1" height="1" fill="#8ED3E2" />
<rect x="69" y="79" width="1" height="1" fill="#5487D3" />
<rect x="45" y="80" width="1" height="1" fill="#8ED3E2" />
<rect x="46" y="80" width="1" height="1" fill="#A4FCED" />
<rect x="47" y="80" width="1" height="1" fill="#A4FCED" />
<rect x="65" y="80" width="1" height="1" fill="#5487D3" />
<rect x="66" y="80" width="1" height="1" fill="#8ED3E2" />
<rect x="67" y="80" width="1" height="1" fill="#8ED3E2" />
<rect x="68" y="80" width="1" height="1" fill="#5487D3" />
<rect x="45" y="81" width="1" height="1" fill="#8ED3E2" />
<rect x="46" y="81" width="1" height="1" fill="#A4FCED" />
<rect x="47" y="81" width="1" height="1" fill="#A4FCED" />
<rect x="64" y="81" width="1" height="1" fill="#5487D3" />
<rect x="65" y="81" width="1" height="1" fill="#8ED3E2" />
<rect x="66" y="81" width="1" height="1" fill="#A4FCED" />
<rect x="67" y="81" width="1" height="1" fill="#8ED3E2" />
<rect x="45" y="82" width="1" height="1" fill="#8ED3E2" />
<rect x="46" y="82" width="1" height="1" fill="#8ED3E2" />
<rect x="63" y="82" width="1" height="1" fill="#5487D3" />
<rect x="64" y="82" width="1" height="1" fill="#8ED3E2" />
<rect x="65" y="82" width="1" height="1" fill="#A4FCED" />
<rect x="66" y="82" width="1" height="1" fill="#8ED3E2" />
<rect x="67" y="82" width="1" height="1" fill="#5487D3" />
<rect x="62" y="83" width="1" height="1" fill="#5487D3" />
<rect x="63" y="83" width="1" height="1" fill="#8ED3E2" />
<rect x="64" y="83" width="1" height="1" fill="#A4FCED" />
<rect x="65" y="83" width="1" height="1" fill="#A4FCED" />
<rect x="66" y="83" width="1" height="1" fill="#5487D3" />
<rect x="61" y="84" width="1" height="1" fill="#5487D3" />
<rect x="62" y="84" width="1" height="1" fill="#8ED3E2" />
<rect x="63" y="84" width="1" height="1" fill="#A4FCED" />
<rect x="64" y="84" width="1" height="1" fill="#A4FCED" />
<rect x="65" y="84" width="1" height="1" fill="#5487D3" />
<rect x="66" y="84" width="1" height="1" fill="#5487D3" />
<rect x="61" y="85" width="1" height="1" fill="#8ED3E2" />
<rect x="62" y="85" width="1" height="1" fill="#A4FCED" />
<rect x="63" y="85" width="1" height="1" fill="#A4FCED" />
<rect x="64" y="85" width="1" height="1" fill="#5487D3" />
<rect x="59" y="86" width="1" height="1" fill="#5487D3" />
<rect x="60" y="86" width="1" height="1" fill="#5487D3" />
<rect x="61" y="86" width="1" height="1" fill="#A4FCED" />
<rect x="62" y="86" width="1" height="1" fill="#A4FCED" />
<rect x="63" y="86" width="1" height="1" fill="#5487D3" />
<rect x="59" y="87" width="1" height="1" fill="#5487D3" />
<rect x="60" y="87" width="1" height="1" fill="#8ED3E2" />
<rect x="61" y="87" width="1" height="1" fill="#A4FCED" />
<rect x="62" y="87" width="1" height="1" fill="#5487D3" />
<rect x="58" y="88" width="1" height="1" fill="#5487D3" />
<rect x="59" y="88" width="1" height="1" fill="#8ED3E2" />
<rect x="60" y="88" width="1" height="1" fill="#A4FCED" />
<rect x="61" y="88" width="1" height="1" fill="#A4FCED" />
<rect x="62" y="88" width="1" height="1" fill="#5487D3" />
<rect x="58" y="89" width="1" height="1" fill="#5487D3" />
<rect x="59" y="89" width="1" height="1" fill="#A4FCED" />
<rect x="60" y="89" width="1" height="1" fill="#A4FCED" />
<rect x="61" y="89" width="1" height="1" fill="#8ED3E2" />
<rect x="62" y="89" width="1" height="1" fill="#5487D3" />
<rect x="57" y="90" width="1" height="1" fill="#5487D3" />
<rect x="58" y="90" width="1" height="1" fill="#8ED3E2" />
<rect x="59" y="90" width="1" height="1" fill="#8ED3E2" />
<rect x="60" y="90" width="1" height="1" fill="#8ED3E2" />
<rect x="61" y="90" width="1" height="1" fill="#5487D3" />
<rect x="57" y="91" width="1" height="1" fill="#5487D3" />
<rect x="58" y="91" width="1" height="1" fill="#5487D3" />
<rect x="144" y="91" width="1" height="1" fill="#5487D3" />
<rect x="145" y="91" width="1" height="1" fill="#8ED3E2" />
<rect x="144" y="92" width="1" height="1" fill="#5487D3" />
<rect x="145" y="92" width="1" height="1" fill="#A4FCED" />
<rect x="145" y="93" width="1" height="1" fill="#A4FCED" />
<rect x="146" y="93" width="1" height="1" fill="#5487D3" />
<rect x="144" y="94" width="1" height="1" fill="#5487D3" />
<rect x="145" y="94" width="1" height="1" fill="#8ED3E2" />
<rect x="146" y="94" width="1" height="1" fill="#8ED3E2" />
<rect x="145" y="95" width="1" height="1" fill="#8ED3E2" />
<rect x="146" y="95" width="1" height="1" fill="#A4FCED" />
<rect x="147" y="95" width="1" height="1" fill="#5487D3" />
<rect x="145" y="96" width="1" height="1" fill="#8ED3E2" />
<rect x="146" y="96" width="1" height="1" fill="#A4FCED" />
<rect x="147" y="96" width="1" height="1" fill="#5487D3" />
<rect x="145" y="97" width="1" height="1" fill="#8ED3E2" />
<rect x="146" y="97" width="1" height="1" fill="#A4FCED" />
<rect x="147" y="97" width="1" height="1" fill="#5487D3" />
<rect x="145" y="98" width="1" height="1" fill="#5487D3" />
<rect x="146" y="98" width="1" height="1" fill="#A4FCED" />
<rect x="147" y="98" width="1" height="1" fill="#8ED3E2" />
<rect x="145" y="99" width="1" height="1" fill="#5487D3" />
<rect x="146" y="99" width="1" height="1" fill="#A4FCED" />
<rect x="147" y="99" width="1" height="1" fill="#5487D3" />
<rect x="146" y="100" width="1" height="1" fill="#A4FCED" />
<rect x="146" y="101" width="1" height="1" fill="#8ED3E2" />
</svg>