<?xml version="1.0" encoding="UTF-8" ?>
<svg version="1.1" width="16" height="160" xmlns="http://www.w3.org/2000/svg" shape-rendering="crispEdges">
<rect x="7" y="8" width="1" height="1" fill="#F7F7F7" />
<rect x="8" y="8" width="1" height="1" fill="#F7F7F7" />
<rect x="7" y="9" width="1" height="1" fill="#F7F7F7" />
<rect x="8" y="9" width="1" height="1" fill="#F7F7F7" />
<rect x="7" y="10" width="1" height="1" fill="#F7F7F7" />
<rect x="8" y="10" width="1" height="1" fill="#F7F7F7" />
<rect x="7" y="11" width="1" height="1" fill="#F7F7F7" />
<rect x="8" y="11" width="1" height="1" fill="#F7F7F7" />
<rect x="7" y="12" width="1" height="1" fill="#F7F7F7" />
<rect x="8" y="12" width="1" height="1" fill="#F7F7F7" />
<rect x="7" y="13" width="1" height="1" fill="#F7F7F7" />
<rect x="8" y="13" width="1" height="1" fill="#F7F7F7" />
<rect x="7" y="14" width="1" height="1" fill="#F7F7F7" />
<rect x="8" y="14" width="1" height="1" fill="#F7F7F7" />
<rect x="7" y="15" width="1" height="1" fill="#F7F7F7" />
<rect x="8" y="15" width="1" height="1" fill="#F7F7F7" />
<rect x="7" y="16" width="1" height="1" fill="#F7F7F7" />
<rect x="8" y="16" width="1" height="1" fill="#F7F7F7" />
<rect x="7" y="17" width="1" height="1" fill="#F7F7F7" />
<rect x="8" y="17" width="1" height="1" fill="#F7F7F7" />
<rect x="7" y="18" width="1" height="1" fill="#F7F7F7" />
<rect x="8" y="18" width="1" height="1" fill="#F7F7F7" />
<rect x="7" y="19" width="1" height="1" fill="#F7F7F7" />
<rect x="8" y="19" width="1" height="1" fill="#F7F7F7" />
<rect x="7" y="20" width="1" height="1" fill="#F7F7F7" />
<rect x="8" y="20" width="1" height="1" fill="#F7F7F7" />
<rect x="7" y="21" width="1" height="1" fill="#F7F7F7" />
<rect x="8" y="21" width="1" height="1" fill="#F7F7F7" />
<rect x="7" y="22" width="1" height="1" fill="#F7F7F7" />
<rect x="8" y="22" width="1" height="1" fill="#F7F7F7" />
<rect x="7" y="23" width="1" height="1" fill="#F7F7F7" />
<rect x="8" y="23" width="1" height="1" fill="#F7F7F7" />
<rect x="7" y="24" width="1" height="1" fill="#F7F7F7" />
<rect x="8" y="24" width="1" height="1" fill="#F7F7F7" />
<rect x="7" y="25" width="1" height="1" fill="#F7F7F7" />
<rect x="8" y="25" width="1" height="1" fill="#F7F7F7" />
<rect x="7" y="26" width="1" height="1" fill="#F7F7F7" />
<rect x="8" y="26" width="1" height="1" fill="#F7F7F7" />
<rect x="7" y="27" width="1" height="1" fill="#F7F7F7" />
<rect x="8" y="27" width="1" height="1" fill="#F7F7F7" />
<rect x="7" y="28" width="1" height="1" fill="#F7F7F7" />
<rect x="8" y="28" width="1" height="1" fill="#F7F7F7" />
<rect x="7" y="29" width="1" height="1" fill="#F7F7F7" />
<rect x="8" y="29" width="1" height="1" fill="#F7F7F7" />
<rect x="7" y="30" width="1" height="1" fill="#F7F7F7" />
<rect x="8" y="30" width="1" height="1" fill="#F7F7F7" />
<rect x="7" y="31" width="1" height="1" fill="#F7F7F7" />
<rect x="8" y="31" width="1" height="1" fill="#F7F7F7" />
<rect x="7" y="32" width="1" height="1" fill="#F7F7F7" />
<rect x="8" y="32" width="1" height="1" fill="#F7F7F7" />
<rect x="7" y="33" width="1" height="1" fill="#F7F7F7" />
<rect x="8" y="33" width="1" height="1" fill="#F7F7F7" />
<rect x="7" y="34" width="1" height="1" fill="#F7F7F7" />
<rect x="8" y="34" width="1" height="1" fill="#F7F7F7" />
<rect x="7" y="35" width="1" height="1" fill="#F7F7F7" />
<rect x="8" y="35" width="1" height="1" fill="#F7F7F7" />
<rect x="7" y="36" width="1" height="1" fill="#F7F7F7" />
<rect x="8" y="36" width="1" height="1" fill="#F7F7F7" />
<rect x="7" y="37" width="1" height="1" fill="#F7F7F7" />
<rect x="8" y="37" width="1" height="1" fill="#F7F7F7" />
<rect x="7" y="38" width="1" height="1" fill="#F7F7F7" />
<rect x="8" y="38" width="1" height="1" fill="#F7F7F7" />
<rect x="7" y="39" width="1" height="1" fill="#F7F7F7" />
<rect x="8" y="39" width="1" height="1" fill="#F7F7F7" />
<rect x="7" y="40" width="1" height="1" fill="#F7F7F7" />
<rect x="8" y="40" width="1" height="1" fill="#F7F7F7" />
<rect x="7" y="41" width="1" height="1" fill="#F7F7F7" />
<rect x="8" y="41" width="1" height="1" fill="#F7F7F7" />
<rect x="7" y="42" width="1" height="1" fill="#F7F7F7" />
<rect x="8" y="42" width="1" height="1" fill="#F7F7F7" />
<rect x="7" y="43" width="1" height="1" fill="#F7F7F7" />
<rect x="8" y="43" width="1" height="1" fill="#F7F7F7" />
<rect x="7" y="44" width="1" height="1" fill="#F7F7F7" />
<rect x="8" y="44" width="1" height="1" fill="#F7F7F7" />
<rect x="7" y="45" width="1" height="1" fill="#F7F7F7" />
<rect x="8" y="45" width="1" height="1" fill="#F7F7F7" />
<rect x="7" y="46" width="1" height="1" fill="#F7F7F7" />
<rect x="8" y="46" width="1" height="1" fill="#F7F7F7" />
<rect x="7" y="47" width="1" height="1" fill="#F7F7F7" />
<rect x="8" y="47" width="1" height="1" fill="#F7F7F7" />
<rect x="7" y="48" width="1" height="1" fill="#F7F7F7" />
<rect x="8" y="48" width="1" height="1" fill="#F7F7F7" />
<rect x="7" y="49" width="1" height="1" fill="#F7F7F7" />
<rect x="8" y="49" width="1" height="1" fill="#F7F7F7" />
<rect x="7" y="50" width="1" height="1" fill="#F7F7F7" />
<rect x="8" y="50" width="1" height="1" fill="#F7F7F7" />
<rect x="7" y="51" width="1" height="1" fill="#F7F7F7" />
<rect x="8" y="51" width="1" height="1" fill="#F7F7F7" />
<rect x="7" y="52" width="1" height="1" fill="#F7F7F7" />
<rect x="8" y="52" width="1" height="1" fill="#F7F7F7" />
<rect x="7" y="53" width="1" height="1" fill="#F7F7F7" />
<rect x="8" y="53" width="1" height="1" fill="#F7F7F7" />
<rect x="7" y="54" width="1" height="1" fill="#F7F7F7" />
<rect x="8" y="54" width="1" height="1" fill="#F7F7F7" />
<rect x="7" y="55" width="1" height="1" fill="#F7F7F7" />
<rect x="8" y="55" width="1" height="1" fill="#F7F7F7" />
<rect x="7" y="56" width="1" height="1" fill="#F7F7F7" />
<rect x="8" y="56" width="1" height="1" fill="#F7F7F7" />
<rect x="7" y="57" width="1" height="1" fill="#F7F7F7" />
<rect x="8" y="57" width="1" height="1" fill="#F7F7F7" />
<rect x="7" y="58" width="1" height="1" fill="#F7F7F7" />
<rect x="8" y="58" width="1" height="1" fill="#F7F7F7" />
<rect x="7" y="59" width="1" height="1" fill="#F7F7F7" />
<rect x="8" y="59" width="1" height="1" fill="#F7F7F7" />
<rect x="7" y="60" width="1" height="1" fill="#F7F7F7" />
<rect x="8" y="60" width="1" height="1" fill="#F7F7F7" />
<rect x="7" y="61" width="1" height="1" fill="#F7F7F7" />
<rect x="8" y="61" width="1" height="1" fill="#F7F7F7" />
<rect x="7" y="62" width="1" height="1" fill="#F7F7F7" />
<rect x="8" y="62" width="1" height="1" fill="#F7F7F7" />
<rect x="7" y="63" width="1" height="1" fill="#F7F7F7" />
<rect x="8" y="63" width="1" height="1" fill="#F7F7F7" />
<rect x="7" y="64" width="1" height="1" fill="#F7F7F7" />
<rect x="8" y="64" width="1" height="1" fill="#F7F7F7" />
<rect x="7" y="65" width="1" height="1" fill="#F7F7F7" />
<rect x="8" y="65" width="1" height="1" fill="#F7F7F7" />
<rect x="7" y="66" width="1" height="1" fill="#F7F7F7" />
<rect x="8" y="66" width="1" height="1" fill="#F7F7F7" />
<rect x="7" y="67" width="1" height="1" fill="#F7F7F7" />
<rect x="8" y="67" width="1" height="1" fill="#F7F7F7" />
<rect x="7" y="68" width="1" height="1" fill="#F7F7F7" />
<rect x="8" y="68" width="1" height="1" fill="#F7F7F7" />
<rect x="7" y="69" width="1" height="1" fill="#F7F7F7" />
<rect x="8" y="69" width="1" height="1" fill="#F7F7F7" />
<rect x="7" y="70" width="1" height="1" fill="#F7F7F7" />
<rect x="8" y="70" width="1" height="1" fill="#F7F7F7" />
<rect x="7" y="71" width="1" height="1" fill="#F7F7F7" />
<rect x="8" y="71" width="1" height="1" fill="#F7F7F7" />
<rect x="7" y="72" width="1" height="1" fill="#F7F7F7" />
<rect x="8" y="72" width="1" height="1" fill="#F7F7F7" />
<rect x="7" y="73" width="1" height="1" fill="#F7F7F7" />
<rect x="8" y="73" width="1" height="1" fill="#F7F7F7" />
<rect x="7" y="74" width="1" height="1" fill="#F7F7F7" />
<rect x="8" y="74" width="1" height="1" fill="#F7F7F7" />
<rect x="7" y="75" width="1" height="1" fill="#F7F7F7" />
<rect x="8" y="75" width="1" height="1" fill="#F7F7F7" />
<rect x="7" y="76" width="1" height="1" fill="#F7F7F7" />
<rect x="8" y="76" width="1" height="1" fill="#F7F7F7" />
<rect x="7" y="77" width="1" height="1" fill="#F7F7F7" />
<rect x="8" y="77" width="1" height="1" fill="#F7F7F7" />
<rect x="7" y="78" width="1" height="1" fill="#F7F7F7" />
<rect x="8" y="78" width="1" height="1" fill="#F7F7F7" />
<rect x="7" y="79" width="1" height="1" fill="#F7F7F7" />
<rect x="8" y="79" width="1" height="1" fill="#F7F7F7" />
<rect x="7" y="80" width="1" height="1" fill="#F7F7F7" />
<rect x="8" y="80" width="1" height="1" fill="#F7F7F7" />
<rect x="7" y="81" width="1" height="1" fill="#F7F7F7" />
<rect x="8" y="81" width="1" height="1" fill="#F7F7F7" />
<rect x="7" y="82" width="1" height="1" fill="#F7F7F7" />
<rect x="8" y="82" width="1" height="1" fill="#F7F7F7" />
<rect x="7" y="83" width="1" height="1" fill="#F7F7F7" />
<rect x="8" y="83" width="1" height="1" fill="#F7F7F7" />
<rect x="7" y="84" width="1" height="1" fill="#F7F7F7" />
<rect x="8" y="84" width="1" height="1" fill="#F7F7F7" />
<rect x="7" y="85" width="1" height="1" fill="#F7F7F7" />
<rect x="8" y="85" width="1" height="1" fill="#F7F7F7" />
<rect x="7" y="86" width="1" height="1" fill="#F7F7F7" />
<rect x="8" y="86" width="1" height="1" fill="#F7F7F7" />
<rect x="7" y="87" width="1" height="1" fill="#F7F7F7" />
<rect x="8" y="87" width="1" height="1" fill="#F7F7F7" />
<rect x="7" y="88" width="1" height="1" fill="#F7F7F7" />
<rect x="8" y="88" width="1" height="1" fill="#F7F7F7" />
<rect x="7" y="89" width="1" height="1" fill="#F7F7F7" />
<rect x="8" y="89" width="1" height="1" fill="#F7F7F7" />
<rect x="7" y="90" width="1" height="1" fill="#F7F7F7" />
<rect x="8" y="90" width="1" height="1" fill="#F7F7F7" />
<rect x="7" y="91" width="1" height="1" fill="#F7F7F7" />
<rect x="8" y="91" width="1" height="1" fill="#F7F7F7" />
<rect x="7" y="92" width="1" height="1" fill="#F7F7F7" />
<rect x="8" y="92" width="1" height="1" fill="#F7F7F7" />
<rect x="7" y="93" width="1" height="1" fill="#F7F7F7" />
<rect x="8" y="93" width="1" height="1" fill="#F7F7F7" />
<rect x="7" y="94" width="1" height="1" fill="#F7F7F7" />
<rect x="8" y="94" width="1" height="1" fill="#F7F7F7" />
<rect x="7" y="95" width="1" height="1" fill="#F7F7F7" />
<rect x="8" y="95" width="1" height="1" fill="#F7F7F7" />
<rect x="7" y="96" width="1" height="1" fill="#F7F7F7" />
<rect x="8" y="96" width="1" height="1" fill="#F7F7F7" />
<rect x="7" y="97" width="1" height="1" fill="#F7F7F7" />
<rect x="8" y="97" width="1" height="1" fill="#F7F7F7" />
<rect x="7" y="98" width="1" height="1" fill="#F7F7F7" />
<rect x="8" y="98" width="1" height="1" fill="#F7F7F7" />
<rect x="7" y="99" width="1" height="1" fill="#F7F7F7" />
<rect x="8" y="99" width="1" height="1" fill="#F7F7F7" />
<rect x="7" y="100" width="1" height="1" fill="#F7F7F7" />
<rect x="8" y="100" width="1" height="1" fill="#F7F7F7" />
<rect x="7" y="101" width="1" height="1" fill="#F7F7F7" />
<rect x="8" y="101" width="1" height="1" fill="#F7F7F7" />
<rect x="7" y="102" width="1" height="1" fill="#F7F7F7" />
<rect x="8" y="102" width="1" height="1" fill="#F7F7F7" />
<rect x="7" y="103" width="1" height="1" fill="#F7F7F7" />
<rect x="8" y="103" width="1" height="1" fill="#F7F7F7" />
<rect x="7" y="104" width="1" height="1" fill="#F7F7F7" />
<rect x="8" y="104" width="1" height="1" fill="#F7F7F7" />
<rect x="7" y="105" width="1" height="1" fill="#F7F7F7" />
<rect x="8" y="105" width="1" height="1" fill="#F7F7F7" />
<rect x="7" y="106" width="1" height="1" fill="#F7F7F7" />
<rect x="8" y="106" width="1" height="1" fill="#F7F7F7" />
<rect x="7" y="107" width="1" height="1" fill="#F7F7F7" />
<rect x="8" y="107" width="1" height="1" fill="#F7F7F7" />
<rect x="7" y="108" width="1" height="1" fill="#F7F7F7" />
<rect x="8" y="108" width="1" height="1" fill="#F7F7F7" />
<rect x="7" y="109" width="1" height="1" fill="#F7F7F7" />
<rect x="8" y="109" width="1" height="1" fill="#F7F7F7" />
<rect x="7" y="110" width="1" height="1" fill="#F7F7F7" />
<rect x="8" y="110" width="1" height="1" fill="#F7F7F7" />
<rect x="7" y="111" width="1" height="1" fill="#F7F7F7" />
<rect x="8" y="111" width="1" height="1" fill="#F7F7F7" />
<rect x="7" y="112" width="1" height="1" fill="#F7F7F7" />
<rect x="8" y="112" width="1" height="1" fill="#F7F7F7" />
<rect x="7" y="113" width="1" height="1" fill="#F7F7F7" />
<rect x="8" y="113" width="1" height="1" fill="#F7F7F7" />
<rect x="7" y="114" width="1" height="1" fill="#F7F7F7" />
<rect x="8" y="114" width="1" height="1" fill="#F7F7F7" />
<rect x="7" y="115" width="1" height="1" fill="#F7F7F7" />
<rect x="8" y="115" width="1" height="1" fill="#F7F7F7" />
<rect x="7" y="116" width="1" height="1" fill="#F7F7F7" />
<rect x="8" y="116" width="1" height="1" fill="#F7F7F7" />
<rect x="7" y="117" width="1" height="1" fill="#F7F7F7" />
<rect x="8" y="117" width="1" height="1" fill="#F7F7F7" />
<rect x="7" y="118" width="1" height="1" fill="#F7F7F7" />
<rect x="8" y="118" width="1" height="1" fill="#F7F7F7" />
<rect x="7" y="119" width="1" height="1" fill="#F7F7F7" />
<rect x="8" y="119" width="1" height="1" fill="#F7F7F7" />
<rect x="7" y="120" width="1" height="1" fill="#F7F7F7" />
<rect x="8" y="120" width="1" height="1" fill="#F7F7F7" />
<rect x="7" y="121" width="1" height="1" fill="#F7F7F7" />
<rect x="8" y="121" width="1" height="1" fill="#F7F7F7" />
<rect x="7" y="122" width="1" height="1" fill="#F7F7F7" />
<rect x="8" y="122" width="1" height="1" fill="#F7F7F7" />
<rect x="7" y="123" width="1" height="1" fill="#F7F7F7" />
<rect x="8" y="123" width="1" height="1" fill="#F7F7F7" />
<rect x="7" y="124" width="1" height="1" fill="#F7F7F7" />
<rect x="8" y="124" width="1" height="1" fill="#F7F7F7" />
<rect x="7" y="125" width="1" height="1" fill="#F7F7F7" />
<rect x="8" y="125" width="1" height="1" fill="#F7F7F7" />
<rect x="7" y="126" width="1" height="1" fill="#F7F7F7" />
<rect x="8" y="126" width="1" height="1" fill="#F7F7F7" />
<rect x="7" y="127" width="1" height="1" fill="#F7F7F7" />
<rect x="8" y="127" width="1" height="1" fill="#F7F7F7" />
<rect x="7" y="128" width="1" height="1" fill="#F7F7F7" />
<rect x="8" y="128" width="1" height="1" fill="#F7F7F7" />
<rect x="7" y="129" width="1" height="1" fill="#F7F7F7" />
<rect x="8" y="129" width="1" height="1" fill="#F7F7F7" />
<rect x="7" y="130" width="1" height="1" fill="#F7F7F7" />
<rect x="8" y="130" width="1" height="1" fill="#F7F7F7" />
<rect x="7" y="131" width="1" height="1" fill="#F7F7F7" />
<rect x="8" y="131" width="1" height="1" fill="#F7F7F7" />
<rect x="7" y="132" width="1" height="1" fill="#F7F7F7" />
<rect x="8" y="132" width="1" height="1" fill="#F7F7F7" />
<rect x="7" y="133" width="1" height="1" fill="#F7F7F7" />
<rect x="8" y="133" width="1" height="1" fill="#F7F7F7" />
<rect x="7" y="134" width="1" height="1" fill="#F7F7F7" />
<rect x="8" y="134" width="1" height="1" fill="#F7F7F7" />
<rect x="7" y="135" width="1" height="1" fill="#F7F7F7" />
<rect x="8" y="135" width="1" height="1" fill="#F7F7F7" />
<rect x="7" y="136" width="1" height="1" fill="#F7F7F7" />
<rect x="8" y="136" width="1" height="1" fill="#F7F7F7" />
<rect x="7" y="137" width="1" height="1" fill="#F7F7F7" />
<rect x="8" y="137" width="1" height="1" fill="#F7F7F7" />
<rect x="7" y="138" width="1" height="1" fill="#F7F7F7" />
<rect x="8" y="138" width="1" height="1" fill="#F7F7F7" />
<rect x="7" y="139" width="1" height="1" fill="#F7F7F7" />
<rect x="8" y="139" width="1" height="1" fill="#F7F7F7" />
<rect x="7" y="140" width="1" height="1" fill="#F7F7F7" />
<rect x="8" y="140" width="1" height="1" fill="#F7F7F7" />
<rect x="7" y="141" width="1" height="1" fill="#F7F7F7" />
<rect x="8" y="141" width="1" height="1" fill="#F7F7F7" />
<rect x="7" y="142" width="1" height="1" fill="#F7F7F7" />
<rect x="8" y="142" width="1" height="1" fill="#F7F7F7" />
<rect x="7" y="143" width="1" height="1" fill="#F7F7F7" />
<rect x="8" y="143" width="1" height="1" fill="#F7F7F7" />
<rect x="7" y="144" width="1" height="1" fill="#F7F7F7" />
<rect x="8" y="144" width="1" height="1" fill="#F7F7F7" />
<rect x="7" y="145" width="1" height="1" fill="#F7F7F7" />
<rect x="8" y="145" width="1" height="1" fill="#F7F7F7" />
<rect x="7" y="146" width="1" height="1" fill="#F7F7F7" />
<rect x="8" y="146" width="1" height="1" fill="#F7F7F7" />
<rect x="7" y="147" width="1" height="1" fill="#F7F7F7" />
<rect x="8" y="147" width="1" height="1" fill="#F7F7F7" />
<rect x="7" y="148" width="1" height="1" fill="#F7F7F7" />
<rect x="8" y="148" width="1" height="1" fill="#F7F7F7" />
<rect x="7" y="149" width="1" height="1" fill="#F7F7F7" />
<rect x="8" y="149" width="1" height="1" fill="#F7F7F7" />
<rect x="7" y="150" width="1" height="1" fill="#F7F7F7" />
<rect x="8" y="150" width="1" height="1" fill="#F7F7F7" />
<rect x="7" y="151" width="1" height="1" fill="#F7F7F7" />
<rect x="8" y="151" width="1" height="1" fill="#F7F7F7" />
<rect x="7" y="152" width="1" height="1" fill="#F7F7F7" />
<rect x="8" y="152" width="1" height="1" fill="#F7F7F7" />
</svg>