<?xml version="1.0" encoding="UTF-8" ?>
<svg version="1.1" width="41" height="41" xmlns="http://www.w3.org/2000/svg" shape-rendering="crispEdges">
<rect x="12" y="16" width="1" height="1" fill="#1A1715" />
<rect x="13" y="16" width="1" height="1" fill="#1A1715" />
<rect x="14" y="16" width="1" height="1" fill="#1A1715" />
<rect x="15" y="16" width="1" height="1" fill="#1A1715" />
<rect x="16" y="16" width="1" height="1" fill="#1A1715" />
<rect x="17" y="16" width="1" height="1" fill="#1A1715" />
<rect x="18" y="16" width="1" height="1" fill="#1A1715" />
<rect x="19" y="16" width="1" height="1" fill="#1A1715" />
<rect x="20" y="16" width="1" height="1" fill="#1A1715" />
<rect x="21" y="16" width="1" height="1" fill="#1A1715" />
<rect x="22" y="16" width="1" height="1" fill="#1A1715" />
<rect x="23" y="16" width="1" height="1" fill="#1A1715" />
<rect x="24" y="16" width="1" height="1" fill="#1A1715" />
<rect x="25" y="16" width="1" height="1" fill="#1A1715" />
<rect x="26" y="16" width="1" height="1" fill="#1A1715" />
<rect x="27" y="16" width="1" height="1" fill="#1A1715" />
<rect x="28" y="16" width="1" height="1" fill="#1A1715" />
<rect x="29" y="16" width="1" height="1" fill="#1A1715" />
<rect x="30" y="16" width="1" height="1" fill="#1A1715" />
<rect x="31" y="16" width="1" height="1" fill="#1A1715" />
<rect x="32" y="16" width="1" height="1" fill="#1A1715" />
<rect x="33" y="16" width="1" height="1" fill="#1A1715" />
<rect x="34" y="16" width="1" height="1" fill="#1A1715" />
<rect x="35" y="16" width="1" height="1" fill="#1A1715" />
<rect x="10" y="17" width="1" height="1" fill="#1A1715" />
<rect x="11" y="17" width="1" height="1" fill="#1A1715" />
<rect x="12" y="17" width="1" height="1" fill="#1A1715" />
<rect x="13" y="17" width="1" height="1" fill="#1A1715" />
<rect x="14" y="17" width="1" height="1" fill="#1A1715" />
<rect x="15" y="17" width="1" height="1" fill="#1A1715" />
<rect x="16" y="17" width="1" height="1" fill="#1A1715" />
<rect x="17" y="17" width="1" height="1" fill="#1A1715" />
<rect x="18" y="17" width="1" height="1" fill="#1A1715" />
<rect x="19" y="17" width="1" height="1" fill="#1A1715" />
<rect x="20" y="17" width="1" height="1" fill="#1A1715" />
<rect x="21" y="17" width="1" height="1" fill="#1A1715" />
<rect x="22" y="17" width="1" height="1" fill="#1A1715" />
<rect x="23" y="17" width="1" height="1" fill="#1A1715" />
<rect x="27" y="17" width="1" height="1" fill="#1A1715" />
<rect x="28" y="17" width="1" height="1" fill="#1A1715" />
<rect x="29" y="17" width="1" height="1" fill="#1A1715" />
<rect x="30" y="17" width="1" height="1" fill="#1A1715" />
<rect x="31" y="17" width="1" height="1" fill="#1A1715" />
<rect x="32" y="17" width="1" height="1" fill="#1A1715" />
<rect x="33" y="17" width="1" height="1" fill="#1A1715" />
<rect x="34" y="17" width="1" height="1" fill="#1A1715" />
<rect x="35" y="17" width="1" height="1" fill="#1A1715" />
<rect x="8" y="18" width="1" height="1" fill="#1A1715" />
<rect x="9" y="18" width="1" height="1" fill="#1A1715" />
<rect x="10" y="18" width="1" height="1" fill="#1A1715" />
<rect x="12" y="18" width="1" height="1" fill="#1A1715" />
<rect x="13" y="18" width="1" height="1" fill="#1A1715" />
<rect x="14" y="18" width="1" height="1" fill="#1A1715" />
<rect x="15" y="18" width="1" height="1" fill="#1A1715" />
<rect x="16" y="18" width="1" height="1" fill="#1A1715" />
<rect x="17" y="18" width="1" height="1" fill="#1A1715" />
<rect x="18" y="18" width="1" height="1" fill="#1A1715" />
<rect x="19" y="18" width="1" height="1" fill="#1A1715" />
<rect x="20" y="18" width="1" height="1" fill="#1A1715" />
<rect x="21" y="18" width="1" height="1" fill="#1A1715" />
<rect x="22" y="18" width="1" height="1" fill="#1A1715" />
<rect x="23" y="18" width="1" height="1" fill="#1A1715" />
<rect x="27" y="18" width="1" height="1" fill="#1A1715" />
<rect x="28" y="18" width="1" height="1" fill="#1A1715" />
<rect x="29" y="18" width="1" height="1" fill="#1A1715" />
<rect x="30" y="18" width="1" height="1" fill="#1A1715" />
<rect x="31" y="18" width="1" height="1" fill="#1A1715" />
<rect x="32" y="18" width="1" height="1" fill="#1A1715" />
<rect x="33" y="18" width="1" height="1" fill="#1A1715" />
<rect x="34" y="18" width="1" height="1" fill="#1A1715" />
<rect x="6" y="19" width="1" height="1" fill="#1A1715" />
<rect x="7" y="19" width="1" height="1" fill="#1A1715" />
<rect x="13" y="19" width="1" height="1" fill="#1A1715" />
<rect x="14" y="19" width="1" height="1" fill="#1A1715" />
<rect x="15" y="19" width="1" height="1" fill="#1A1715" />
<rect x="16" y="19" width="1" height="1" fill="#1A1715" />
<rect x="17" y="19" width="1" height="1" fill="#1A1715" />
<rect x="18" y="19" width="1" height="1" fill="#1A1715" />
<rect x="19" y="19" width="1" height="1" fill="#1A1715" />
<rect x="20" y="19" width="1" height="1" fill="#1A1715" />
<rect x="21" y="19" width="1" height="1" fill="#1A1715" />
<rect x="22" y="19" width="1" height="1" fill="#1A1715" />
<rect x="28" y="19" width="1" height="1" fill="#1A1715" />
<rect x="29" y="19" width="1" height="1" fill="#1A1715" />
<rect x="30" y="19" width="1" height="1" fill="#1A1715" />
<rect x="31" y="19" width="1" height="1" fill="#1A1715" />
<rect x="32" y="19" width="1" height="1" fill="#1A1715" />
<rect x="33" y="19" width="1" height="1" fill="#1A1715" />
<rect x="34" y="19" width="1" height="1" fill="#1A1715" />
<rect x="6" y="20" width="1" height="1" fill="#1A1715" />
<rect x="13" y="20" width="1" height="1" fill="#1A1715" />
<rect x="14" y="20" width="1" height="1" fill="#1A1715" />
<rect x="15" y="20" width="1" height="1" fill="#1A1715" />
<rect x="16" y="20" width="1" height="1" fill="#1A1715" />
<rect x="17" y="20" width="1" height="1" fill="#1A1715" />
<rect x="18" y="20" width="1" height="1" fill="#1A1715" />
<rect x="19" y="20" width="1" height="1" fill="#1A1715" />
<rect x="20" y="20" width="1" height="1" fill="#1A1715" />
<rect x="21" y="20" width="1" height="1" fill="#1A1715" />
<rect x="22" y="20" width="1" height="1" fill="#1A1715" />
<rect x="23" y="20" width="1" height="1" fill="#1A1715" />
<rect x="29" y="20" width="1" height="1" fill="#1A1715" />
<rect x="30" y="20" width="1" height="1" fill="#1A1715" />
<rect x="31" y="20" width="1" height="1" fill="#1A1715" />
<rect x="32" y="20" width="1" height="1" fill="#1A1715" />
<rect x="33" y="20" width="1" height="1" fill="#1A1715" />
<rect x="16" y="21" width="1" height="1" fill="#1A1715" />
<rect x="17" y="21" width="1" height="1" fill="#1A1715" />
<rect x="18" y="21" width="1" height="1" fill="#1A1715" />
<rect x="19" y="21" width="1" height="1" fill="#1A1715" />
<rect x="20" y="21" width="1" height="1" fill="#1A1715" />
<rect x="30" y="21" width="1" height="1" fill="#1A1715" />
<rect x="31" y="21" width="1" height="1" fill="#1A1715" />
<rect x="32" y="21" width="1" height="1" fill="#1A1715" />
</svg>