<?xml version="1.0" encoding="UTF-8" ?>
<svg version="1.1" width="41" height="41" xmlns="http://www.w3.org/2000/svg" shape-rendering="crispEdges">
<rect x="15" y="0" width="1" height="1" fill="#1A1715" />
<rect x="16" y="0" width="1" height="1" fill="#1A1715" />
<rect x="17" y="0" width="1" height="1" fill="#1A1715" />
<rect x="18" y="0" width="1" height="1" fill="#1A1715" />
<rect x="19" y="0" width="1" height="1" fill="#1A1715" />
<rect x="20" y="0" width="1" height="1" fill="#1A1715" />
<rect x="21" y="0" width="1" height="1" fill="#1A1715" />
<rect x="22" y="0" width="1" height="1" fill="#1A1715" />
<rect x="23" y="0" width="1" height="1" fill="#1A1715" />
<rect x="24" y="0" width="1" height="1" fill="#1A1715" />
<rect x="25" y="0" width="1" height="1" fill="#1A1715" />
<rect x="26" y="0" width="1" height="1" fill="#1A1715" />
<rect x="27" y="0" width="1" height="1" fill="#1A1715" />
<rect x="28" y="0" width="1" height="1" fill="#1A1715" />
<rect x="29" y="0" width="1" height="1" fill="#1A1715" />
<rect x="14" y="1" width="1" height="1" fill="#1A1715" />
<rect x="15" y="1" width="1" height="1" fill="#1A1715" />
<rect x="16" y="1" width="1" height="1" fill="#1A1715" />
<rect x="17" y="1" width="1" height="1" fill="#1A1715" />
<rect x="18" y="1" width="1" height="1" fill="#1A1715" />
<rect x="19" y="1" width="1" height="1" fill="#1A1715" />
<rect x="20" y="1" width="1" height="1" fill="#1A1715" />
<rect x="21" y="1" width="1" height="1" fill="#1A1715" />
<rect x="22" y="1" width="1" height="1" fill="#1A1715" />
<rect x="23" y="1" width="1" height="1" fill="#1A1715" />
<rect x="24" y="1" width="1" height="1" fill="#1A1715" />
<rect x="25" y="1" width="1" height="1" fill="#1A1715" />
<rect x="26" y="1" width="1" height="1" fill="#1A1715" />
<rect x="27" y="1" width="1" height="1" fill="#1A1715" />
<rect x="28" y="1" width="1" height="1" fill="#1A1715" />
<rect x="29" y="1" width="1" height="1" fill="#1A1715" />
<rect x="30" y="1" width="1" height="1" fill="#1A1715" />
<rect x="31" y="1" width="1" height="1" fill="#1A1715" />
<rect x="32" y="1" width="1" height="1" fill="#1A1715" />
<rect x="14" y="2" width="1" height="1" fill="#1A1715" />
<rect x="15" y="2" width="1" height="1" fill="#1A1715" />
<rect x="16" y="2" width="1" height="1" fill="#1A1715" />
<rect x="17" y="2" width="1" height="1" fill="#1A1715" />
<rect x="18" y="2" width="1" height="1" fill="#1A1715" />
<rect x="19" y="2" width="1" height="1" fill="#1A1715" />
<rect x="20" y="2" width="1" height="1" fill="#1A1715" />
<rect x="21" y="2" width="1" height="1" fill="#1A1715" />
<rect x="22" y="2" width="1" height="1" fill="#1A1715" />
<rect x="23" y="2" width="1" height="1" fill="#1A1715" />
<rect x="24" y="2" width="1" height="1" fill="#1A1715" />
<rect x="25" y="2" width="1" height="1" fill="#1A1715" />
<rect x="26" y="2" width="1" height="1" fill="#1A1715" />
<rect x="27" y="2" width="1" height="1" fill="#1A1715" />
<rect x="28" y="2" width="1" height="1" fill="#1A1715" />
<rect x="29" y="2" width="1" height="1" fill="#1A1715" />
<rect x="30" y="2" width="1" height="1" fill="#1A1715" />
<rect x="31" y="2" width="1" height="1" fill="#1A1715" />
<rect x="32" y="2" width="1" height="1" fill="#1A1715" />
<rect x="14" y="3" width="1" height="1" fill="#1A1715" />
<rect x="15" y="3" width="1" height="1" fill="#1A1715" />
<rect x="16" y="3" width="1" height="1" fill="#1A1715" />
<rect x="17" y="3" width="1" height="1" fill="#1A1715" />
<rect x="18" y="3" width="1" height="1" fill="#1A1715" />
<rect x="19" y="3" width="1" height="1" fill="#1A1715" />
<rect x="20" y="3" width="1" height="1" fill="#1A1715" />
<rect x="21" y="3" width="1" height="1" fill="#1A1715" />
<rect x="22" y="3" width="1" height="1" fill="#1A1715" />
<rect x="23" y="3" width="1" height="1" fill="#1A1715" />
<rect x="24" y="3" width="1" height="1" fill="#1A1715" />
<rect x="25" y="3" width="1" height="1" fill="#1A1715" />
<rect x="26" y="3" width="1" height="1" fill="#262322" />
<rect x="27" y="3" width="1" height="1" fill="#262322" />
<rect x="28" y="3" width="1" height="1" fill="#262322" />
<rect x="29" y="3" width="1" height="1" fill="#262322" />
<rect x="30" y="3" width="1" height="1" fill="#262322" />
<rect x="31" y="3" width="1" height="1" fill="#1A1715" />
<rect x="32" y="3" width="1" height="1" fill="#1A1715" />
<rect x="33" y="3" width="1" height="1" fill="#1A1715" />
<rect x="13" y="4" width="1" height="1" fill="#1A1715" />
<rect x="14" y="4" width="1" height="1" fill="#1A1715" />
<rect x="15" y="4" width="1" height="1" fill="#1A1715" />
<rect x="16" y="4" width="1" height="1" fill="#1A1715" />
<rect x="17" y="4" width="1" height="1" fill="#1A1715" />
<rect x="18" y="4" width="1" height="1" fill="#1A1715" />
<rect x="19" y="4" width="1" height="1" fill="#1A1715" />
<rect x="20" y="4" width="1" height="1" fill="#1A1715" />
<rect x="21" y="4" width="1" height="1" fill="#1A1715" />
<rect x="22" y="4" width="1" height="1" fill="#262322" />
<rect x="23" y="4" width="1" height="1" fill="#262322" />
<rect x="24" y="4" width="1" height="1" fill="#262322" />
<rect x="25" y="4" width="1" height="1" fill="#262322" />
<rect x="26" y="4" width="1" height="1" fill="#262322" />
<rect x="27" y="4" width="1" height="1" fill="#262322" />
<rect x="28" y="4" width="1" height="1" fill="#262322" />
<rect x="29" y="4" width="1" height="1" fill="#262322" />
<rect x="30" y="4" width="1" height="1" fill="#262322" />
<rect x="31" y="4" width="1" height="1" fill="#262322" />
<rect x="32" y="4" width="1" height="1" fill="#1A1715" />
<rect x="33" y="4" width="1" height="1" fill="#1A1715" />
<rect x="13" y="5" width="1" height="1" fill="#1A1715" />
<rect x="14" y="5" width="1" height="1" fill="#1A1715" />
<rect x="15" y="5" width="1" height="1" fill="#1A1715" />
<rect x="16" y="5" width="1" height="1" fill="#1A1715" />
<rect x="17" y="5" width="1" height="1" fill="#1A1715" />
<rect x="18" y="5" width="1" height="1" fill="#1A1715" />
<rect x="19" y="5" width="1" height="1" fill="#1A1715" />
<rect x="20" y="5" width="1" height="1" fill="#1A1715" />
<rect x="21" y="5" width="1" height="1" fill="#262322" />
<rect x="22" y="5" width="1" height="1" fill="#262322" />
<rect x="23" y="5" width="1" height="1" fill="#262322" />
<rect x="24" y="5" width="1" height="1" fill="#262322" />
<rect x="25" y="5" width="1" height="1" fill="#262322" />
<rect x="26" y="5" width="1" height="1" fill="#262322" />
<rect x="27" y="5" width="1" height="1" fill="#262322" />
<rect x="28" y="5" width="1" height="1" fill="#262322" />
<rect x="29" y="5" width="1" height="1" fill="#262322" />
<rect x="30" y="5" width="1" height="1" fill="#262322" />
<rect x="31" y="5" width="1" height="1" fill="#262322" />
<rect x="32" y="5" width="1" height="1" fill="#1A1715" />
<rect x="33" y="5" width="1" height="1" fill="#1A1715" />
<rect x="14" y="6" width="1" height="1" fill="#1A1715" />
<rect x="15" y="6" width="1" height="1" fill="#1A1715" />
<rect x="16" y="6" width="1" height="1" fill="#1A1715" />
<rect x="17" y="6" width="1" height="1" fill="#1A1715" />
<rect x="18" y="6" width="1" height="1" fill="#1A1715" />
<rect x="19" y="6" width="1" height="1" fill="#1A1715" />
<rect x="20" y="6" width="1" height="1" fill="#1A1715" />
<rect x="21" y="6" width="1" height="1" fill="#262322" />
<rect x="22" y="6" width="1" height="1" fill="#262322" />
<rect x="23" y="6" width="1" height="1" fill="#262322" />
<rect x="24" y="6" width="1" height="1" fill="#262322" />
<rect x="25" y="6" width="1" height="1" fill="#262322" />
<rect x="26" y="6" width="1" height="1" fill="#262322" />
<rect x="27" y="6" width="1" height="1" fill="#262322" />
<rect x="28" y="6" width="1" height="1" fill="#262322" />
<rect x="29" y="6" width="1" height="1" fill="#262322" />
<rect x="30" y="6" width="1" height="1" fill="#262322" />
<rect x="31" y="6" width="1" height="1" fill="#262322" />
<rect x="32" y="6" width="1" height="1" fill="#1A1715" />
<rect x="33" y="6" width="1" height="1" fill="#1A1715" />
<rect x="15" y="7" width="1" height="1" fill="#1A1715" />
<rect x="16" y="7" width="1" height="1" fill="#1A1715" />
<rect x="17" y="7" width="1" height="1" fill="#1A1715" />
<rect x="18" y="7" width="1" height="1" fill="#1A1715" />
<rect x="19" y="7" width="1" height="1" fill="#1A1715" />
<rect x="20" y="7" width="1" height="1" fill="#1A1715" />
<rect x="21" y="7" width="1" height="1" fill="#262322" />
<rect x="22" y="7" width="1" height="1" fill="#262322" />
<rect x="23" y="7" width="1" height="1" fill="#262322" />
<rect x="24" y="7" width="1" height="1" fill="#262322" />
<rect x="25" y="7" width="1" height="1" fill="#262322" />
<rect x="26" y="7" width="1" height="1" fill="#262322" />
<rect x="27" y="7" width="1" height="1" fill="#262322" />
<rect x="28" y="7" width="1" height="1" fill="#262322" />
<rect x="29" y="7" width="1" height="1" fill="#262322" />
<rect x="30" y="7" width="1" height="1" fill="#262322" />
<rect x="31" y="7" width="1" height="1" fill="#262322" />
<rect x="32" y="7" width="1" height="1" fill="#1A1715" />
<rect x="15" y="8" width="1" height="1" fill="#1A1715" />
<rect x="16" y="8" width="1" height="1" fill="#1A1715" />
<rect x="17" y="8" width="1" height="1" fill="#1A1715" />
<rect x="18" y="8" width="1" height="1" fill="#1A1715" />
<rect x="19" y="8" width="1" height="1" fill="#1A1715" />
<rect x="20" y="8" width="1" height="1" fill="#262322" />
<rect x="21" y="8" width="1" height="1" fill="#262322" />
<rect x="22" y="8" width="1" height="1" fill="#262322" />
<rect x="23" y="8" width="1" height="1" fill="#262322" />
<rect x="24" y="8" width="1" height="1" fill="#262322" />
<rect x="25" y="8" width="1" height="1" fill="#262322" />
<rect x="26" y="8" width="1" height="1" fill="#262322" />
<rect x="27" y="8" width="1" height="1" fill="#262322" />
<rect x="28" y="8" width="1" height="1" fill="#262322" />
<rect x="29" y="8" width="1" height="1" fill="#262322" />
<rect x="30" y="8" width="1" height="1" fill="#262322" />
<rect x="31" y="8" width="1" height="1" fill="#1A1715" />
<rect x="32" y="8" width="1" height="1" fill="#1A1715" />
<rect x="16" y="9" width="1" height="1" fill="#1A1715" />
<rect x="17" y="9" width="1" height="1" fill="#1A1715" />
<rect x="18" y="9" width="1" height="1" fill="#1A1715" />
<rect x="19" y="9" width="1" height="1" fill="#1A1715" />
<rect x="20" y="9" width="1" height="1" fill="#1A1715" />
<rect x="21" y="9" width="1" height="1" fill="#262322" />
<rect x="22" y="9" width="1" height="1" fill="#262322" />
<rect x="23" y="9" width="1" height="1" fill="#262322" />
<rect x="24" y="9" width="1" height="1" fill="#262322" />
<rect x="25" y="9" width="1" height="1" fill="#262322" />
<rect x="26" y="9" width="1" height="1" fill="#262322" />
<rect x="27" y="9" width="1" height="1" fill="#1A1715" />
<rect x="28" y="9" width="1" height="1" fill="#1A1715" />
<rect x="29" y="9" width="1" height="1" fill="#1A1715" />
<rect x="30" y="9" width="1" height="1" fill="#1A1715" />
<rect x="31" y="9" width="1" height="1" fill="#1A1715" />
<rect x="32" y="9" width="1" height="1" fill="#1A1715" />
<rect x="33" y="9" width="1" height="1" fill="#1A1715" />
<rect x="18" y="10" width="1" height="1" fill="#1A1715" />
<rect x="19" y="10" width="1" height="1" fill="#1A1715" />
<rect x="20" y="10" width="1" height="1" fill="#1A1715" />
<rect x="21" y="10" width="1" height="1" fill="#262322" />
<rect x="22" y="10" width="1" height="1" fill="#262322" />
<rect x="23" y="10" width="1" height="1" fill="#262322" />
<rect x="24" y="10" width="1" height="1" fill="#1A1715" />
<rect x="25" y="10" width="1" height="1" fill="#1A1715" />
<rect x="26" y="10" width="1" height="1" fill="#1A1715" />
<rect x="27" y="10" width="1" height="1" fill="#1A1715" />
<rect x="28" y="10" width="1" height="1" fill="#1A1715" />
<rect x="29" y="10" width="1" height="1" fill="#1A1715" />
<rect x="30" y="10" width="1" height="1" fill="#1A1715" />
<rect x="31" y="10" width="1" height="1" fill="#1A1715" />
<rect x="32" y="10" width="1" height="1" fill="#1A1715" />
<rect x="33" y="10" width="1" height="1" fill="#1A1715" />
<rect x="34" y="10" width="1" height="1" fill="#1A1715" />
<rect x="35" y="10" width="1" height="1" fill="#1A1715" />
<rect x="19" y="11" width="1" height="1" fill="#1A1715" />
<rect x="20" y="11" width="1" height="1" fill="#1A1715" />
<rect x="21" y="11" width="1" height="1" fill="#1A1715" />
<rect x="22" y="11" width="1" height="1" fill="#1A1715" />
<rect x="23" y="11" width="1" height="1" fill="#1A1715" />
<rect x="24" y="11" width="1" height="1" fill="#1A1715" />
<rect x="25" y="11" width="1" height="1" fill="#1A1715" />
<rect x="26" y="11" width="1" height="1" fill="#1A1715" />
<rect x="27" y="11" width="1" height="1" fill="#1A1715" />
<rect x="28" y="11" width="1" height="1" fill="#1A1715" />
<rect x="29" y="11" width="1" height="1" fill="#1A1715" />
<rect x="30" y="11" width="1" height="1" fill="#1A1715" />
<rect x="31" y="11" width="1" height="1" fill="#1A1715" />
<rect x="32" y="11" width="1" height="1" fill="#1A1715" />
<rect x="33" y="11" width="1" height="1" fill="#1A1715" />
<rect x="34" y="11" width="1" height="1" fill="#1A1715" />
<rect x="35" y="11" width="1" height="1" fill="#1A1715" />
<rect x="36" y="11" width="1" height="1" fill="#1A1715" />
<rect x="19" y="12" width="1" height="1" fill="#1A1715" />
<rect x="20" y="12" width="1" height="1" fill="#1A1715" />
<rect x="21" y="12" width="1" height="1" fill="#1A1715" />
<rect x="22" y="12" width="1" height="1" fill="#1A1715" />
<rect x="23" y="12" width="1" height="1" fill="#1A1715" />
<rect x="24" y="12" width="1" height="1" fill="#1A1715" />
<rect x="25" y="12" width="1" height="1" fill="#1A1715" />
<rect x="26" y="12" width="1" height="1" fill="#1A1715" />
<rect x="27" y="12" width="1" height="1" fill="#1A1715" />
<rect x="28" y="12" width="1" height="1" fill="#1A1715" />
<rect x="29" y="12" width="1" height="1" fill="#1A1715" />
<rect x="30" y="12" width="1" height="1" fill="#1A1715" />
<rect x="31" y="12" width="1" height="1" fill="#1A1715" />
<rect x="32" y="12" width="1" height="1" fill="#1A1715" />
<rect x="33" y="12" width="1" height="1" fill="#1A1715" />
<rect x="34" y="12" width="1" height="1" fill="#1A1715" />
<rect x="35" y="12" width="1" height="1" fill="#1A1715" />
<rect x="36" y="12" width="1" height="1" fill="#1A1715" />
<rect x="20" y="13" width="1" height="1" fill="#1A1715" />
<rect x="21" y="13" width="1" height="1" fill="#1A1715" />
<rect x="22" y="13" width="1" height="1" fill="#1A1715" />
<rect x="23" y="13" width="1" height="1" fill="#1A1715" />
<rect x="24" y="13" width="1" height="1" fill="#1A1715" />
<rect x="25" y="13" width="1" height="1" fill="#1A1715" />
<rect x="26" y="13" width="1" height="1" fill="#1A1715" />
<rect x="27" y="13" width="1" height="1" fill="#1A1715" />
<rect x="28" y="13" width="1" height="1" fill="#1A1715" />
<rect x="29" y="13" width="1" height="1" fill="#1A1715" />
<rect x="30" y="13" width="1" height="1" fill="#1A1715" />
<rect x="31" y="13" width="1" height="1" fill="#1A1715" />
<rect x="32" y="13" width="1" height="1" fill="#1A1715" />
<rect x="33" y="13" width="1" height="1" fill="#1A1715" />
<rect x="34" y="13" width="1" height="1" fill="#1A1715" />
<rect x="35" y="13" width="1" height="1" fill="#1A1715" />
<rect x="36" y="13" width="1" height="1" fill="#1A1715" />
<rect x="22" y="14" width="1" height="1" fill="#1A1715" />
<rect x="23" y="14" width="1" height="1" fill="#1A1715" />
<rect x="24" y="14" width="1" height="1" fill="#1A1715" />
<rect x="25" y="14" width="1" height="1" fill="#1A1715" />
<rect x="26" y="14" width="1" height="1" fill="#1A1715" />
<rect x="27" y="14" width="1" height="1" fill="#1A1715" />
<rect x="28" y="14" width="1" height="1" fill="#1A1715" />
<rect x="29" y="14" width="1" height="1" fill="#1A1715" />
<rect x="30" y="14" width="1" height="1" fill="#1A1715" />
<rect x="31" y="14" width="1" height="1" fill="#1A1715" />
<rect x="32" y="14" width="1" height="1" fill="#1A1715" />
<rect x="33" y="14" width="1" height="1" fill="#1A1715" />
<rect x="34" y="14" width="1" height="1" fill="#1A1715" />
<rect x="35" y="14" width="1" height="1" fill="#1A1715" />
<rect x="36" y="14" width="1" height="1" fill="#1A1715" />
<rect x="24" y="15" width="1" height="1" fill="#1A1715" />
<rect x="25" y="15" width="1" height="1" fill="#1A1715" />
<rect x="26" y="15" width="1" height="1" fill="#1A1715" />
<rect x="27" y="15" width="1" height="1" fill="#1A1715" />
<rect x="28" y="15" width="1" height="1" fill="#1A1715" />
<rect x="29" y="15" width="1" height="1" fill="#1A1715" />
<rect x="30" y="15" width="1" height="1" fill="#1A1715" />
<rect x="31" y="15" width="1" height="1" fill="#1A1715" />
<rect x="32" y="15" width="1" height="1" fill="#1A1715" />
<rect x="33" y="15" width="1" height="1" fill="#1A1715" />
<rect x="34" y="15" width="1" height="1" fill="#1A1715" />
<rect x="35" y="15" width="1" height="1" fill="#1A1715" />
<rect x="36" y="15" width="1" height="1" fill="#1A1715" />
<rect x="26" y="16" width="1" height="1" fill="#1A1715" />
<rect x="27" y="16" width="1" height="1" fill="#1A1715" />
<rect x="28" y="16" width="1" height="1" fill="#1A1715" />
<rect x="29" y="16" width="1" height="1" fill="#1A1715" />
<rect x="30" y="16" width="1" height="1" fill="#1A1715" />
<rect x="31" y="16" width="1" height="1" fill="#1A1715" />
<rect x="32" y="16" width="1" height="1" fill="#1A1715" />
<rect x="33" y="16" width="1" height="1" fill="#1A1715" />
<rect x="34" y="16" width="1" height="1" fill="#1A1715" />
</svg>