<?xml version="1.0" encoding="UTF-8" ?>
<svg version="1.1" width="41" height="41" xmlns="http://www.w3.org/2000/svg" shape-rendering="crispEdges">
<rect x="10" y="0" width="1" height="1" fill="#2E425A" />
<rect x="11" y="0" width="1" height="1" fill="#2E425A" />
<rect x="12" y="0" width="1" height="1" fill="#2E425A" />
<rect x="13" y="0" width="1" height="1" fill="#2E425A" />
<rect x="14" y="0" width="1" height="1" fill="#2E425A" />
<rect x="15" y="0" width="1" height="1" fill="#2E425A" />
<rect x="16" y="0" width="1" height="1" fill="#2E425A" />
<rect x="17" y="0" width="1" height="1" fill="#2E425A" />
<rect x="18" y="0" width="1" height="1" fill="#2E425A" />
<rect x="20" y="0" width="1" height="1" fill="#2E425A" />
<rect x="21" y="0" width="1" height="1" fill="#2E425A" />
<rect x="22" y="0" width="1" height="1" fill="#2E425A" />
<rect x="23" y="0" width="1" height="1" fill="#2E425A" />
<rect x="24" y="0" width="1" height="1" fill="#2E425A" />
<rect x="25" y="0" width="1" height="1" fill="#2E425A" />
<rect x="26" y="0" width="1" height="1" fill="#2E425A" />
<rect x="27" y="0" width="1" height="1" fill="#2E425A" />
<rect x="5" y="1" width="1" height="1" fill="#2E425A" />
<rect x="6" y="1" width="1" height="1" fill="#2E425A" />
<rect x="10" y="1" width="1" height="1" fill="#2E425A" />
<rect x="11" y="1" width="1" height="1" fill="#2E425A" />
<rect x="13" y="1" width="1" height="1" fill="#2E425A" />
<rect x="14" y="1" width="1" height="1" fill="#2E425A" />
<rect x="15" y="1" width="1" height="1" fill="#2E425A" />
<rect x="18" y="1" width="1" height="1" fill="#2E425A" />
<rect x="19" y="1" width="1" height="1" fill="#2E425A" />
<rect x="20" y="1" width="1" height="1" fill="#2E425A" />
<rect x="22" y="1" width="1" height="1" fill="#2E425A" />
<rect x="23" y="1" width="1" height="1" fill="#2E425A" />
<rect x="24" y="1" width="1" height="1" fill="#2E425A" />
<rect x="25" y="1" width="1" height="1" fill="#2E425A" />
<rect x="28" y="1" width="1" height="1" fill="#2E425A" />
<rect x="29" y="1" width="1" height="1" fill="#17283B" />
<rect x="4" y="2" width="1" height="1" fill="#2E425A" />
<rect x="5" y="2" width="1" height="1" fill="#2E425A" />
<rect x="6" y="2" width="1" height="1" fill="#2E425A" />
<rect x="7" y="2" width="1" height="1" fill="#2E425A" />
<rect x="11" y="2" width="1" height="1" fill="#2E425A" />
<rect x="12" y="2" width="1" height="1" fill="#2E425A" />
<rect x="13" y="2" width="1" height="1" fill="#2E425A" />
<rect x="15" y="2" width="1" height="1" fill="#2E425A" />
<rect x="16" y="2" width="1" height="1" fill="#2E425A" />
<rect x="17" y="2" width="1" height="1" fill="#2E425A" />
<rect x="19" y="2" width="1" height="1" fill="#2E425A" />
<rect x="20" y="2" width="1" height="1" fill="#2E425A" />
<rect x="21" y="2" width="1" height="1" fill="#2E425A" />
<rect x="25" y="2" width="1" height="1" fill="#2E425A" />
<rect x="26" y="2" width="1" height="1" fill="#2E425A" />
<rect x="27" y="2" width="1" height="1" fill="#2E425A" />
<rect x="29" y="2" width="1" height="1" fill="#17283B" />
<rect x="30" y="2" width="1" height="1" fill="#17283B" />
<rect x="4" y="3" width="1" height="1" fill="#2E425A" />
<rect x="5" y="3" width="1" height="1" fill="#2E425A" />
<rect x="6" y="3" width="1" height="1" fill="#2E425A" />
<rect x="7" y="3" width="1" height="1" fill="#2E425A" />
<rect x="13" y="3" width="1" height="1" fill="#2E425A" />
<rect x="14" y="3" width="1" height="1" fill="#2E425A" />
<rect x="16" y="3" width="1" height="1" fill="#2E425A" />
<rect x="17" y="3" width="1" height="1" fill="#2E425A" />
<rect x="18" y="3" width="1" height="1" fill="#2E425A" />
<rect x="19" y="3" width="1" height="1" fill="#2E425A" />
<rect x="20" y="3" width="1" height="1" fill="#2E425A" />
<rect x="21" y="3" width="1" height="1" fill="#2E425A" />
<rect x="22" y="3" width="1" height="1" fill="#2E425A" />
<rect x="23" y="3" width="1" height="1" fill="#2E425A" />
<rect x="26" y="3" width="1" height="1" fill="#2E425A" />
<rect x="27" y="3" width="1" height="1" fill="#2E425A" />
<rect x="28" y="3" width="1" height="1" fill="#2E425A" />
<rect x="3" y="4" width="1" height="1" fill="#2E425A" />
<rect x="4" y="4" width="1" height="1" fill="#2E425A" />
<rect x="5" y="4" width="1" height="1" fill="#2E425A" />
<rect x="6" y="4" width="1" height="1" fill="#2E425A" />
<rect x="7" y="4" width="1" height="1" fill="#2E425A" />
<rect x="8" y="4" width="1" height="1" fill="#2E425A" />
<rect x="16" y="4" width="1" height="1" fill="#2E425A" />
<rect x="17" y="4" width="1" height="1" fill="#2E425A" />
<rect x="18" y="4" width="1" height="1" fill="#2E425A" />
<rect x="21" y="4" width="1" height="1" fill="#2E425A" />
<rect x="22" y="4" width="1" height="1" fill="#2E425A" />
<rect x="23" y="4" width="1" height="1" fill="#2E425A" />
<rect x="24" y="4" width="1" height="1" fill="#2E425A" />
<rect x="25" y="4" width="1" height="1" fill="#2E425A" />
<rect x="26" y="4" width="1" height="1" fill="#2E425A" />
<rect x="29" y="4" width="1" height="1" fill="#2E425A" />
<rect x="30" y="4" width="1" height="1" fill="#17283B" />
<rect x="31" y="4" width="1" height="1" fill="#17283B" />
<rect x="32" y="4" width="1" height="1" fill="#17283B" />
<rect x="3" y="5" width="1" height="1" fill="#2E425A" />
<rect x="4" y="5" width="1" height="1" fill="#2E425A" />
<rect x="5" y="5" width="1" height="1" fill="#2E425A" />
<rect x="6" y="5" width="1" height="1" fill="#2E425A" />
<rect x="18" y="5" width="1" height="1" fill="#2E425A" />
<rect x="19" y="5" width="1" height="1" fill="#2E425A" />
<rect x="20" y="5" width="1" height="1" fill="#2E425A" />
<rect x="22" y="5" width="1" height="1" fill="#2E425A" />
<rect x="23" y="5" width="1" height="1" fill="#2E425A" />
<rect x="24" y="5" width="1" height="1" fill="#2E425A" />
<rect x="25" y="5" width="1" height="1" fill="#2E425A" />
<rect x="26" y="5" width="1" height="1" fill="#2E425A" />
<rect x="27" y="5" width="1" height="1" fill="#2E425A" />
<rect x="30" y="5" width="1" height="1" fill="#17283B" />
<rect x="31" y="5" width="1" height="1" fill="#17283B" />
<rect x="32" y="5" width="1" height="1" fill="#17283B" />
<rect x="33" y="5" width="1" height="1" fill="#17283B" />
<rect x="3" y="6" width="1" height="1" fill="#2E425A" />
<rect x="4" y="6" width="1" height="1" fill="#2E425A" />
<rect x="5" y="6" width="1" height="1" fill="#2E425A" />
<rect x="19" y="6" width="1" height="1" fill="#2E425A" />
<rect x="20" y="6" width="1" height="1" fill="#2E425A" />
<rect x="21" y="6" width="1" height="1" fill="#2E425A" />
<rect x="23" y="6" width="1" height="1" fill="#2E425A" />
<rect x="24" y="6" width="1" height="1" fill="#2E425A" />
<rect x="25" y="6" width="1" height="1" fill="#2E425A" />
<rect x="26" y="6" width="1" height="1" fill="#2E425A" />
<rect x="27" y="6" width="1" height="1" fill="#2E425A" />
<rect x="28" y="6" width="1" height="1" fill="#2E425A" />
<rect x="30" y="6" width="1" height="1" fill="#2E425A" />
<rect x="31" y="6" width="1" height="1" fill="#17283B" />
<rect x="32" y="6" width="1" height="1" fill="#17283B" />
<rect x="33" y="6" width="1" height="1" fill="#17283B" />
<rect x="3" y="7" width="1" height="1" fill="#2E425A" />
<rect x="4" y="7" width="1" height="1" fill="#2E425A" />
<rect x="20" y="7" width="1" height="1" fill="#2E425A" />
<rect x="21" y="7" width="1" height="1" fill="#2E425A" />
<rect x="22" y="7" width="1" height="1" fill="#2E425A" />
<rect x="25" y="7" width="1" height="1" fill="#2E425A" />
<rect x="26" y="7" width="1" height="1" fill="#2E425A" />
<rect x="27" y="7" width="1" height="1" fill="#2E425A" />
<rect x="28" y="7" width="1" height="1" fill="#2E425A" />
<rect x="29" y="7" width="1" height="1" fill="#2E425A" />
<rect x="31" y="7" width="1" height="1" fill="#17283B" />
<rect x="32" y="7" width="1" height="1" fill="#17283B" />
<rect x="33" y="7" width="1" height="1" fill="#17283B" />
<rect x="34" y="7" width="1" height="1" fill="#17283B" />
<rect x="3" y="8" width="1" height="1" fill="#2E425A" />
<rect x="4" y="8" width="1" height="1" fill="#2E425A" />
<rect x="22" y="8" width="1" height="1" fill="#2E425A" />
<rect x="23" y="8" width="1" height="1" fill="#2E425A" />
<rect x="24" y="8" width="1" height="1" fill="#2E425A" />
<rect x="27" y="8" width="1" height="1" fill="#2E425A" />
<rect x="28" y="8" width="1" height="1" fill="#2E425A" />
<rect x="29" y="8" width="1" height="1" fill="#2E425A" />
<rect x="30" y="8" width="1" height="1" fill="#2E425A" />
<rect x="33" y="8" width="1" height="1" fill="#17283B" />
<rect x="34" y="8" width="1" height="1" fill="#17283B" />
<rect x="35" y="8" width="1" height="1" fill="#17283B" />
<rect x="23" y="9" width="1" height="1" fill="#2E425A" />
<rect x="24" y="9" width="1" height="1" fill="#2E425A" />
<rect x="25" y="9" width="1" height="1" fill="#2E425A" />
<rect x="26" y="9" width="1" height="1" fill="#2E425A" />
<rect x="28" y="9" width="1" height="1" fill="#2E425A" />
<rect x="29" y="9" width="1" height="1" fill="#2E425A" />
<rect x="30" y="9" width="1" height="1" fill="#2E425A" />
<rect x="31" y="9" width="1" height="1" fill="#2E425A" />
<rect x="34" y="9" width="1" height="1" fill="#17283B" />
<rect x="35" y="9" width="1" height="1" fill="#17283B" />
<rect x="24" y="10" width="1" height="1" fill="#2E425A" />
<rect x="25" y="10" width="1" height="1" fill="#2E425A" />
<rect x="26" y="10" width="1" height="1" fill="#2E425A" />
<rect x="27" y="10" width="1" height="1" fill="#2E425A" />
<rect x="29" y="10" width="1" height="1" fill="#2E425A" />
<rect x="30" y="10" width="1" height="1" fill="#2E425A" />
<rect x="31" y="10" width="1" height="1" fill="#2E425A" />
<rect x="32" y="10" width="1" height="1" fill="#2E425A" />
<rect x="35" y="10" width="1" height="1" fill="#17283B" />
<rect x="36" y="10" width="1" height="1" fill="#17283B" />
<rect x="25" y="11" width="1" height="1" fill="#2E425A" />
<rect x="26" y="11" width="1" height="1" fill="#2E425A" />
<rect x="27" y="11" width="1" height="1" fill="#2E425A" />
<rect x="28" y="11" width="1" height="1" fill="#2E425A" />
<rect x="30" y="11" width="1" height="1" fill="#2E425A" />
<rect x="31" y="11" width="1" height="1" fill="#2E425A" />
<rect x="32" y="11" width="1" height="1" fill="#2E425A" />
<rect x="33" y="11" width="1" height="1" fill="#2E425A" />
<rect x="36" y="11" width="1" height="1" fill="#17283B" />
<rect x="37" y="11" width="1" height="1" fill="#17283B" />
<rect x="26" y="12" width="1" height="1" fill="#2E425A" />
<rect x="27" y="12" width="1" height="1" fill="#2E425A" />
<rect x="28" y="12" width="1" height="1" fill="#2E425A" />
<rect x="29" y="12" width="1" height="1" fill="#2E425A" />
<rect x="30" y="12" width="1" height="1" fill="#2E425A" />
<rect x="32" y="12" width="1" height="1" fill="#2E425A" />
<rect x="33" y="12" width="1" height="1" fill="#2E425A" />
<rect x="34" y="12" width="1" height="1" fill="#2E425A" />
<rect x="37" y="12" width="1" height="1" fill="#17283B" />
<rect x="38" y="12" width="1" height="1" fill="#17283B" />
<rect x="27" y="13" width="1" height="1" fill="#2E425A" />
<rect x="28" y="13" width="1" height="1" fill="#2E425A" />
<rect x="29" y="13" width="1" height="1" fill="#2E425A" />
<rect x="30" y="13" width="1" height="1" fill="#2E425A" />
<rect x="31" y="13" width="1" height="1" fill="#2E425A" />
<rect x="33" y="13" width="1" height="1" fill="#2E425A" />
<rect x="34" y="13" width="1" height="1" fill="#2E425A" />
<rect x="35" y="13" width="1" height="1" fill="#2E425A" />
<rect x="36" y="13" width="1" height="1" fill="#17283B" />
<rect x="38" y="13" width="1" height="1" fill="#17283B" />
<rect x="28" y="14" width="1" height="1" fill="#2E425A" />
<rect x="29" y="14" width="1" height="1" fill="#2E425A" />
<rect x="30" y="14" width="1" height="1" fill="#2E425A" />
<rect x="31" y="14" width="1" height="1" fill="#2E425A" />
<rect x="32" y="14" width="1" height="1" fill="#2E425A" />
<rect x="34" y="14" width="1" height="1" fill="#2E425A" />
<rect x="35" y="14" width="1" height="1" fill="#2E425A" />
<rect x="36" y="14" width="1" height="1" fill="#2E425A" />
<rect x="38" y="14" width="1" height="1" fill="#17283B" />
<rect x="39" y="14" width="1" height="1" fill="#17283B" />
<rect x="29" y="15" width="1" height="1" fill="#2E425A" />
<rect x="30" y="15" width="1" height="1" fill="#2E425A" />
<rect x="31" y="15" width="1" height="1" fill="#2E425A" />
<rect x="32" y="15" width="1" height="1" fill="#2E425A" />
<rect x="33" y="15" width="1" height="1" fill="#2E425A" />
<rect x="36" y="15" width="1" height="1" fill="#2E425A" />
<rect x="37" y="15" width="1" height="1" fill="#17283B" />
<rect x="39" y="15" width="1" height="1" fill="#17283B" />
<rect x="13" y="16" width="1" height="1" fill="#2E425A" />
<rect x="25" y="16" width="1" height="1" fill="#2E425A" />
<rect x="30" y="16" width="1" height="1" fill="#2E425A" />
<rect x="31" y="16" width="1" height="1" fill="#2E425A" />
<rect x="32" y="16" width="1" height="1" fill="#2E425A" />
<rect x="33" y="16" width="1" height="1" fill="#2E425A" />
<rect x="34" y="16" width="1" height="1" fill="#2E425A" />
<rect x="35" y="16" width="1" height="1" fill="#2E425A" />
<rect x="36" y="16" width="1" height="1" fill="#2E425A" />
<rect x="37" y="16" width="1" height="1" fill="#2E425A" />
<rect x="38" y="16" width="1" height="1" fill="#17283B" />
<rect x="32" y="17" width="1" height="1" fill="#2E425A" />
<rect x="33" y="17" width="1" height="1" fill="#2E425A" />
<rect x="34" y="17" width="1" height="1" fill="#2E425A" />
<rect x="36" y="17" width="1" height="1" fill="#2E425A" />
<rect x="37" y="17" width="1" height="1" fill="#2E425A" />
<rect x="38" y="17" width="1" height="1" fill="#17283B" />
<rect x="33" y="18" width="1" height="1" fill="#2E425A" />
<rect x="34" y="18" width="1" height="1" fill="#2E425A" />
<rect x="35" y="18" width="1" height="1" fill="#2E425A" />
<rect x="38" y="18" width="1" height="1" fill="#2E425A" />
<rect x="39" y="18" width="1" height="1" fill="#17283B" />
<rect x="34" y="19" width="1" height="1" fill="#2E425A" />
<rect x="35" y="19" width="1" height="1" fill="#2E425A" />
<rect x="36" y="19" width="1" height="1" fill="#2E425A" />
<rect x="37" y="19" width="1" height="1" fill="#2E425A" />
<rect x="39" y="19" width="1" height="1" fill="#2E425A" />
<rect x="40" y="19" width="1" height="1" fill="#17283B" />
<rect x="36" y="20" width="1" height="1" fill="#2E425A" />
<rect x="37" y="20" width="1" height="1" fill="#2E425A" />
<rect x="38" y="20" width="1" height="1" fill="#2E425A" />
<rect x="39" y="20" width="1" height="1" fill="#2E425A" />
<rect x="40" y="20" width="1" height="1" fill="#2E425A" />
<rect x="38" y="21" width="1" height="1" fill="#2E425A" />
<rect x="39" y="21" width="1" height="1" fill="#2E425A" />
<rect x="40" y="21" width="1" height="1" fill="#2E425A" />
<rect x="39" y="22" width="1" height="1" fill="#2E425A" />
<rect x="40" y="22" width="1" height="1" fill="#2E425A" />
<rect x="35" y="23" width="1" height="1" fill="#17283B" />
<rect x="36" y="24" width="1" height="1" fill="#17283B" />
<rect x="32" y="25" width="1" height="1" fill="#17283B" />
<rect x="33" y="25" width="1" height="1" fill="#17283B" />
<rect x="36" y="25" width="1" height="1" fill="#17283B" />
<rect x="37" y="25" width="1" height="1" fill="#17283B" />
<rect x="27" y="26" width="1" height="1" fill="#17283B" />
<rect x="33" y="26" width="1" height="1" fill="#17283B" />
<rect x="34" y="26" width="1" height="1" fill="#17283B" />
<rect x="37" y="26" width="1" height="1" fill="#17283B" />
<rect x="38" y="26" width="1" height="1" fill="#17283B" />
<rect x="27" y="27" width="1" height="1" fill="#17283B" />
<rect x="34" y="27" width="1" height="1" fill="#17283B" />
<rect x="38" y="27" width="1" height="1" fill="#17283B" />
<rect x="28" y="28" width="1" height="1" fill="#17283B" />
<rect x="34" y="28" width="1" height="1" fill="#17283B" />
<rect x="35" y="28" width="1" height="1" fill="#17283B" />
<rect x="30" y="29" width="1" height="1" fill="#17283B" />
<rect x="31" y="29" width="1" height="1" fill="#17283B" />
<rect x="35" y="29" width="1" height="1" fill="#17283B" />
<rect x="31" y="30" width="1" height="1" fill="#17283B" />
<rect x="32" y="30" width="1" height="1" fill="#17283B" />
<rect x="32" y="31" width="1" height="1" fill="#17283B" />
<rect x="33" y="31" width="1" height="1" fill="#17283B" />
<rect x="32" y="32" width="1" height="1" fill="#17283B" />
<rect x="33" y="32" width="1" height="1" fill="#17283B" />
<rect x="27" y="33" width="1" height="1" fill="#17283B" />
<rect x="33" y="33" width="1" height="1" fill="#17283B" />
<rect x="34" y="33" width="1" height="1" fill="#17283B" />
<rect x="28" y="34" width="1" height="1" fill="#17283B" />
<rect x="30" y="35" width="1" height="1" fill="#17283B" />
<rect x="31" y="35" width="1" height="1" fill="#17283B" />
<rect x="32" y="36" width="1" height="1" fill="#17283B" />
<rect x="33" y="37" width="1" height="1" fill="#17283B" />
<rect x="34" y="37" width="1" height="1" fill="#17283B" />
<rect x="34" y="38" width="1" height="1" fill="#17283B" />
<rect x="35" y="38" width="1" height="1" fill="#17283B" />
</svg>