<?xml version="1.0" encoding="UTF-8" ?>
<svg version="1.1" width="41" height="41" xmlns="http://www.w3.org/2000/svg" shape-rendering="crispEdges">
<rect x="8" y="29" width="1" height="1" fill="#1A1715" />
<rect x="9" y="29" width="1" height="1" fill="#1A1715" />
<rect x="10" y="29" width="1" height="1" fill="#1A1715" />
<rect x="6" y="30" width="1" height="1" fill="#1A1715" />
<rect x="7" y="30" width="1" height="1" fill="#1A1715" />
<rect x="8" y="30" width="1" height="1" fill="#1A1715" />
<rect x="9" y="30" width="1" height="1" fill="#1A1715" />
<rect x="10" y="30" width="1" height="1" fill="#1A1715" />
<rect x="5" y="31" width="1" height="1" fill="#1A1715" />
<rect x="6" y="31" width="1" height="1" fill="#1A1715" />
<rect x="7" y="31" width="1" height="1" fill="#1A1715" />
<rect x="8" y="31" width="1" height="1" fill="#1A1715" />
<rect x="9" y="31" width="1" height="1" fill="#1A1715" />
<rect x="10" y="31" width="1" height="1" fill="#1A1715" />
<rect x="4" y="32" width="1" height="1" fill="#1A1715" />
<rect x="5" y="32" width="1" height="1" fill="#1A1715" />
<rect x="6" y="32" width="1" height="1" fill="#1A1715" />
<rect x="7" y="32" width="1" height="1" fill="#1A1715" />
<rect x="8" y="32" width="1" height="1" fill="#1A1715" />
<rect x="9" y="32" width="1" height="1" fill="#1A1715" />
<rect x="10" y="32" width="1" height="1" fill="#1A1715" />
<rect x="4" y="33" width="1" height="1" fill="#1A1715" />
<rect x="5" y="33" width="1" height="1" fill="#1A1715" />
<rect x="6" y="33" width="1" height="1" fill="#1A1715" />
<rect x="7" y="33" width="1" height="1" fill="#1A1715" />
<rect x="8" y="33" width="1" height="1" fill="#1A1715" />
<rect x="9" y="33" width="1" height="1" fill="#1A1715" />
<rect x="10" y="33" width="1" height="1" fill="#1A1715" />
<rect x="3" y="34" width="1" height="1" fill="#1A1715" />
<rect x="4" y="34" width="1" height="1" fill="#1A1715" />
<rect x="5" y="34" width="1" height="1" fill="#1A1715" />
<rect x="6" y="34" width="1" height="1" fill="#1A1715" />
<rect x="7" y="34" width="1" height="1" fill="#1A1715" />
<rect x="8" y="34" width="1" height="1" fill="#1A1715" />
<rect x="2" y="35" width="1" height="1" fill="#1A1715" />
<rect x="3" y="35" width="1" height="1" fill="#1A1715" />
<rect x="4" y="35" width="1" height="1" fill="#1A1715" />
<rect x="5" y="35" width="1" height="1" fill="#1A1715" />
<rect x="6" y="35" width="1" height="1" fill="#1A1715" />
<rect x="7" y="35" width="1" height="1" fill="#1A1715" />
<rect x="2" y="36" width="1" height="1" fill="#1A1715" />
<rect x="3" y="36" width="1" height="1" fill="#1A1715" />
<rect x="4" y="36" width="1" height="1" fill="#1A1715" />
<rect x="5" y="36" width="1" height="1" fill="#1A1715" />
<rect x="2" y="37" width="1" height="1" fill="#1A1715" />
<rect x="3" y="37" width="1" height="1" fill="#1A1715" />
<rect x="4" y="37" width="1" height="1" fill="#1A1715" />
<rect x="2" y="38" width="1" height="1" fill="#1A1715" />
<rect x="3" y="38" width="1" height="1" fill="#1A1715" />
</svg>